SplineFontDB: 3.2
FontName: F35Mono-BoldItalic
FullName: F35 Mono Bold Italic
FamilyName: F35 Mono
Weight: Bold
Copyright: Copyright 2012 The B612 Project Authors (https://github.com/polarsys/b612)
Version: 2024.3
ItalicAngle: -10
UnderlinePosition: -307
UnderlineWidth: 102
Ascent: 1638
Descent: 410
InvalidEm: 0
sfntRevision: 0x07e84ccd
LayerCount: 2
Layer: 0 1 "Back" 1
Layer: 1 1 "Fore" 0
XUID: [1021 443 1183686117 8158341]
StyleMap: 0x0021
FSType: 0
OS2Version: 3
OS2_WeightWidthSlopeOnly: 0
OS2_UseTypoMetrics: 0
CreationTime: 1511795160
ModificationTime: 1711165441
PfmFamily: 17
TTFWeight: 700
TTFWidth: 5
LineGap: 0
VLineGap: 0
Panose: 2 11 6 9 5 0 0 2 0 4
OS2TypoAscent: 1976
OS2TypoAOffset: 0
OS2TypoDescent: -512
OS2TypoDOffset: 0
OS2TypoLinegap: 0
OS2WinAscent: 2013
OS2WinAOffset: 0
OS2WinDescent: 729
OS2WinDOffset: 0
HheadAscent: 1976
HheadAOffset: 0
HheadDescent: -512
HheadDOffset: 0
OS2SubXSize: 1331
OS2SubYSize: 1433
OS2SubXOff: 0
OS2SubYOff: 286
OS2SupXSize: 1331
OS2SupYSize: 1433
OS2SupXOff: 0
OS2SupYOff: 983
OS2StrikeYSize: 102
OS2StrikeYPos: 512
OS2CapHeight: 1536
OS2XHeight: 1126
OS2FamilyClass: 2053
OS2Vendor: '    '
OS2CodePages: 20000011.81d40000
OS2UnicodeRanges: 800000af.5000e0fb.00000000.00000000
MarkAttachClasses: 1
DEI: 91125
TtTable: prep
PUSHW_1
 511
SCANCTRL
PUSHB_1
 4
SCANTYPE
EndTTInstrs
TtTable: fpgm
PUSHW_1
 0
FDEF
MPPEM
PUSHW_1
 9
LT
IF
PUSHB_2
 1
 1
INSTCTRL
EIF
PUSHW_1
 511
SCANCTRL
PUSHW_1
 68
SCVTCI
PUSHW_2
 9
 3
SDS
SDB
ENDF
PUSHW_1
 1
FDEF
DUP
DUP
RCVT
ROUND[Black]
WCVTP
PUSHB_1
 1
ADD
ENDF
PUSHW_1
 2
FDEF
PUSHW_1
 1
LOOPCALL
POP
ENDF
PUSHW_1
 3
FDEF
DUP
GC[cur]
PUSHB_1
 3
CINDEX
GC[cur]
GT
IF
SWAP
EIF
DUP
ROLL
DUP
ROLL
MD[grid]
ABS
ROLL
DUP
GC[cur]
DUP
ROUND[Grey]
SUB
ABS
PUSHB_1
 4
CINDEX
GC[cur]
DUP
ROUND[Grey]
SUB
ABS
GT
IF
SWAP
NEG
ROLL
EIF
MDAP[rnd]
DUP
PUSHB_1
 0
GTEQ
IF
ROUND[Black]
DUP
PUSHB_1
 0
EQ
IF
POP
PUSHB_1
 64
EIF
ELSE
ROUND[Black]
DUP
PUSHB_1
 0
EQ
IF
POP
PUSHB_1
 64
NEG
EIF
EIF
MSIRP[no-rp0]
ENDF
PUSHW_1
 4
FDEF

StartChar: .notdef
Encoding: 65536 -1 0
Width: 1331
GlyphClass: 1
Flags: W
LayerCount: 2
Fore
SplineSet
414.418945312 1536 m 1,0,-1
 1458.41894531 1536 l 1,1,-1
 1187.41894531 0 l 1,2,-1
 143.418945312 0 l 1,3,-1
 414.418945312 1536 l 1,0,-1
384.418945312 205 m 1,4,-1
 1019.41894531 205 l 1,5,-1
 1216.41894531 1331 l 1,6,-1
 581.418945312 1331 l 1,7,-1
 384.418945312 205 l 1,4,-1
EndSplineSet
EndChar

StartChar: exclam
Encoding: 33 33 5
Width: 1331
GlyphClass: 1
Flags: W
LayerCount: 2
Fore
SplineSet
1090.94433594 1536 m 1,0,-1
 899.944335938 455 l 1,1,-1
 586.944335938 419 l 1,2,-1
 783.944335938 1536 l 1,3,-1
 1090.94433594 1536 l 1,0,-1
525.944335938 153 m 0,4,5
 531.944335938 188 531.944335938 188 549.944335938 218 c 128,-1,6
 567.944335938 248 567.944335938 248 594.944335938 271 c 128,-1,7
 621.944335938 294 621.944335938 294 654.444335938 307.5 c 128,-1,8
 686.944335938 321 686.944335938 321 721.944335938 321 c 256,9,10
 756.944335938 321 756.944335938 321 784.444335938 307.5 c 128,-1,11
 811.944335938 294 811.944335938 294 830.944335938 271 c 128,-1,12
 849.944335938 248 849.944335938 248 857.944335938 217.5 c 128,-1,13
 865.944335938 187 865.944335938 187 858.944335938 153 c 0,14,15
 852.944335938 119 852.944335938 119 834.444335938 87.5 c 128,-1,16
 815.944335938 56 815.944335938 56 789.944335938 33 c 128,-1,17
 763.944335938 10 763.944335938 10 731.444335938 -3.5 c 128,-1,18
 698.944335938 -17 698.944335938 -17 663.944335938 -17 c 0,19,20
 629.944335938 -17 629.944335938 -17 601.444335938 -3.5 c 128,-1,21
 572.944335938 10 572.944335938 10 553.444335938 33 c 128,-1,22
 533.944335938 56 533.944335938 56 526.944335938 87.5 c 128,-1,23
 519.944335938 119 519.944335938 119 525.944335938 153 c 0,4,5
EndSplineSet
EndChar

StartChar: quotedbl
Encoding: 34 34 6
Width: 1331
GlyphClass: 1
Flags: W
LayerCount: 2
Fore
SplineSet
1215.26269531 1536 m 1,0,-1
 1192.26269531 1400 l 2,1,2
 1189.26269531 1382 1189.26269531 1382 1184.76269531 1356.5 c 128,-1,3
 1180.26269531 1331 1180.26269531 1331 1173.76269531 1303.5 c 128,-1,4
 1167.26269531 1276 1167.26269531 1276 1160.26269531 1248 c 128,-1,5
 1153.26269531 1220 1153.26269531 1220 1146.26269531 1196 c 2,6,-1
 1095.26269531 1037 l 1,7,-1
 910.262695312 1037 l 1,8,-1
 914.262695312 1196 l 2,9,10
 915.262695312 1220 915.262695312 1220 918.262695312 1248 c 128,-1,11
 921.262695312 1276 921.262695312 1276 925.262695312 1303.5 c 128,-1,12
 929.262695312 1331 929.262695312 1331 933.262695312 1356 c 128,-1,13
 937.262695312 1381 937.262695312 1381 940.262695312 1400 c 2,14,-1
 964.262695312 1536 l 1,15,-1
 1215.26269531 1536 l 1,0,-1
908.262695312 1536 m 1,16,-1
 885.262695312 1400 l 2,17,18
 882.262695312 1382 882.262695312 1382 877.262695312 1356.5 c 128,-1,19
 872.262695312 1331 872.262695312 1331 866.262695312 1303.5 c 128,-1,20
 860.262695312 1276 860.262695312 1276 853.262695312 1248 c 128,-1,21
 846.262695312 1220 846.262695312 1220 839.262695312 1196 c 2,22,-1
 787.262695312 1037 l 1,23,-1
 603.262695312 1037 l 1,24,-1
 607.262695312 1196 l 2,25,26
 608.262695312 1220 608.262695312 1220 610.762695312 1248 c 128,-1,27
 613.262695312 1276 613.262695312 1276 617.762695312 1303.5 c 128,-1,28
 622.262695312 1331 622.262695312 1331 626.262695312 1356 c 128,-1,29
 630.262695312 1381 630.262695312 1381 633.262695312 1400 c 2,30,-1
 656.262695312 1536 l 1,31,-1
 908.262695312 1536 l 1,16,-1
EndSplineSet
EndChar

StartChar: numbersign
Encoding: 35 35 7
Width: 1331
GlyphClass: 1
Flags: W
LayerCount: 2
Fore
SplineSet
1234.36230469 906 m 1,0,1
 1222.36230469 865 1222.36230469 865 1210.86230469 828.5 c 128,-1,2
 1199.36230469 792 1199.36230469 792 1187.86230469 756 c 128,-1,3
 1176.36230469 720 1176.36230469 720 1164.86230469 682 c 128,-1,4
 1153.36230469 644 1153.36230469 644 1141.36230469 601 c 1,5,-1
 1379.36230469 601 l 1,6,-1
 1314.36230469 382 l 1,7,-1
 1078.36230469 382 l 1,8,9
 1065.36230469 337 1065.36230469 337 1050.36230469 288 c 128,-1,10
 1035.36230469 239 1035.36230469 239 1019.86230469 189 c 128,-1,11
 1004.36230469 139 1004.36230469 139 990.362304688 91 c 128,-1,12
 976.362304688 43 976.362304688 43 962.362304688 0 c 1,13,-1
 646.362304688 -17 l 1,14,-1
 768.362304688 382 l 1,15,-1
 598.362304688 382 l 1,16,17
 585.362304688 337 585.362304688 337 569.862304688 288 c 128,-1,18
 554.362304688 239 554.362304688 239 538.862304688 189 c 128,-1,19
 523.362304688 139 523.362304688 139 508.362304688 91 c 128,-1,20
 493.362304688 43 493.362304688 43 480.362304688 0 c 1,21,-1
 165.362304688 -17 l 1,22,-1
 290.362304688 382 l 1,23,-1
 135.362304688 382 l 1,24,-1
 172.362304688 601 l 1,25,-1
 353.362304688 601 l 1,26,-1
 445.362304688 906 l 1,27,-1
 217.362304688 906 l 1,28,-1
 284.362304688 1126 l 1,29,-1
 511.362304688 1126 l 1,30,31
 522.362304688 1162 522.362304688 1162 532.362304688 1195.5 c 128,-1,32
 542.362304688 1229 542.362304688 1229 553.362304688 1265 c 1,33,-1
 600.362304688 1536 l 1,34,-1
 949.362304688 1556 l 1,35,-1
 819.362304688 1126 l 1,36,-1
 990.362304688 1126 l 1,37,38
 1003.36230469 1171 1003.36230469 1171 1019.86230469 1224.5 c 128,-1,39
 1036.36230469 1278 1036.36230469 1278 1053.36230469 1333 c 128,-1,40
 1070.36230469 1388 1070.36230469 1388 1086.36230469 1440.5 c 128,-1,41
 1102.36230469 1493 1102.36230469 1493 1114.36230469 1536 c 1,42,-1
 1433.36230469 1556 l 1,43,-1
 1299.36230469 1126 l 1,44,-1
 1464.36230469 1126 l 1,45,-1
 1425.36230469 906 l 1,46,-1
 1234.36230469 906 l 1,0,1
924.362304688 906 m 1,47,-1
 756.362304688 906 l 1,48,49
 744.362304688 865 744.362304688 865 732.862304688 828.5 c 128,-1,50
 721.362304688 792 721.362304688 792 710.362304688 756 c 128,-1,51
 699.362304688 720 699.362304688 720 687.862304688 682 c 128,-1,52
 676.362304688 644 676.362304688 644 663.362304688 601 c 1,53,-1
 831.362304688 601 l 1,54,-1
 924.362304688 906 l 1,47,-1
EndSplineSet
EndChar

StartChar: dollar
Encoding: 36 36 8
Width: 1331
GlyphClass: 1
Flags: W
LayerCount: 2
Fore
SplineSet
528.888671875 -14 m 1,0,1
 422.888671875 -6 422.888671875 -6 334.388671875 28.5 c 128,-1,2
 245.888671875 63 245.888671875 63 160.888671875 124 c 1,3,-1
 343.888671875 356 l 1,4,5
 362.888671875 341 362.888671875 341 388.888671875 323.5 c 128,-1,6
 414.888671875 306 414.888671875 306 445.388671875 289.5 c 128,-1,7
 475.888671875 273 475.888671875 273 508.388671875 259.5 c 128,-1,8
 540.888671875 246 540.888671875 246 573.888671875 239 c 1,9,-1
 659.888671875 729 l 1,10,11
 594.888671875 763 594.888671875 763 533.888671875 800 c 128,-1,12
 472.888671875 837 472.888671875 837 426.888671875 883 c 128,-1,13
 380.888671875 929 380.888671875 929 358.888671875 988 c 128,-1,14
 336.888671875 1047 336.888671875 1047 350.888671875 1123 c 0,15,16
 365.888671875 1207 365.888671875 1207 407.888671875 1275 c 128,-1,17
 449.888671875 1343 449.888671875 1343 510.888671875 1395.5 c 128,-1,18
 571.888671875 1448 571.888671875 1448 646.888671875 1483.5 c 128,-1,19
 721.888671875 1519 721.888671875 1519 801.888671875 1536 c 1,20,-1
 834.888671875 1721 l 1,21,-1
 1148.88867188 1760 l 1,22,-1
 1108.88867188 1535 l 1,23,24
 1251.88867188 1501 1251.88867188 1501 1382.88867188 1402 c 1,25,-1
 1193.88867188 1206 l 1,26,27
 1116.88867188 1255 1116.88867188 1255 1063.88867188 1282 c 1,28,-1
 994.888671875 887 l 1,29,30
 1055.88867188 855 1055.88867188 855 1112.38867188 816 c 128,-1,31
 1168.88867188 777 1168.88867188 777 1209.88867188 726.5 c 128,-1,32
 1250.88867188 676 1250.88867188 676 1269.88867188 610.5 c 128,-1,33
 1288.88867188 545 1288.88867188 545 1272.88867188 459 c 0,34,35
 1257.88867188 372 1257.88867188 372 1216.88867188 300.5 c 128,-1,36
 1175.88867188 229 1175.88867188 229 1116.88867188 174 c 128,-1,37
 1057.88867188 119 1057.88867188 119 984.888671875 79.5 c 128,-1,38
 911.888671875 40 911.888671875 40 831.888671875 16 c 1,39,-1
 793.888671875 -195 l 1,40,-1
 496.888671875 -195 l 1,41,-1
 528.888671875 -14 l 1,0,1
976.888671875 440 m 0,42,43
 985.888671875 495 985.888671875 495 959.388671875 536.5 c 128,-1,44
 932.888671875 578 932.888671875 578 886.888671875 610 c 1,45,-1
 824.888671875 255 l 1,46,47
 851.888671875 264 851.888671875 264 876.388671875 279 c 128,-1,48
 900.888671875 294 900.888671875 294 920.888671875 316 c 128,-1,49
 940.888671875 338 940.888671875 338 955.388671875 368.5 c 128,-1,50
 969.888671875 399 969.888671875 399 976.888671875 440 c 0,42,43
668.888671875 1152 m 0,51,52
 663.888671875 1122 663.888671875 1122 668.888671875 1098.5 c 128,-1,53
 673.888671875 1075 673.888671875 1075 687.888671875 1056 c 128,-1,54
 701.888671875 1037 701.888671875 1037 721.888671875 1022.5 c 128,-1,55
 741.888671875 1008 741.888671875 1008 765.888671875 995 c 1,56,-1
 819.888671875 1298 l 1,57,58
 792.888671875 1290 792.888671875 1290 768.388671875 1278.5 c 128,-1,59
 743.888671875 1267 743.888671875 1267 723.388671875 1249 c 128,-1,60
 702.888671875 1231 702.888671875 1231 688.388671875 1207 c 128,-1,61
 673.888671875 1183 673.888671875 1183 668.888671875 1152 c 0,51,52
EndSplineSet
EndChar

StartChar: percent
Encoding: 37 37 9
Width: 1331
GlyphClass: 1
Flags: W
LayerCount: 2
Fore
SplineSet
471.64453125 764 m 0,0,1
 383.64453125 764 383.64453125 764 327.14453125 793 c 128,-1,2
 270.64453125 822 270.64453125 822 241.14453125 873.5 c 128,-1,3
 211.64453125 925 211.64453125 925 206.64453125 995.5 c 128,-1,4
 201.64453125 1066 201.64453125 1066 215.64453125 1148 c 0,5,6
 229.64453125 1229 229.64453125 1229 258.64453125 1298 c 128,-1,7
 287.64453125 1367 287.64453125 1367 334.64453125 1417 c 128,-1,8
 381.64453125 1467 381.64453125 1467 448.14453125 1496 c 128,-1,9
 514.64453125 1525 514.64453125 1525 605.64453125 1525 c 0,10,11
 692.64453125 1525 692.64453125 1525 749.14453125 1496 c 128,-1,12
 805.64453125 1467 805.64453125 1467 835.64453125 1417 c 128,-1,13
 865.64453125 1367 865.64453125 1367 870.64453125 1298 c 128,-1,14
 875.64453125 1229 875.64453125 1229 861.64453125 1148 c 0,15,16
 855.64453125 1112 855.64453125 1112 846.64453125 1078 c 1,17,-1
 1115.64453125 1508 l 1,18,-1
 1426.64453125 1508 l 1,19,-1
 911.64453125 686 l 1,20,21
 938.64453125 703 938.64453125 703 968.64453125 716 c 0,22,23
 1036.64453125 745 1036.64453125 745 1126.64453125 744 c 0,24,25
 1213.64453125 744 1213.64453125 744 1270.14453125 716 c 128,-1,26
 1326.64453125 688 1326.64453125 688 1356.14453125 637.5 c 128,-1,27
 1385.64453125 587 1385.64453125 587 1391.64453125 518 c 128,-1,28
 1397.64453125 449 1397.64453125 449 1382.64453125 368 c 0,29,30
 1368.64453125 286 1368.64453125 286 1339.64453125 215 c 128,-1,31
 1310.64453125 144 1310.64453125 144 1263.64453125 93 c 128,-1,32
 1216.64453125 42 1216.64453125 42 1149.64453125 13 c 128,-1,33
 1082.64453125 -16 1082.64453125 -16 992.64453125 -16 c 0,34,35
 904.64453125 -16 904.64453125 -16 848.14453125 13 c 128,-1,36
 791.64453125 42 791.64453125 42 762.14453125 93 c 128,-1,37
 732.64453125 144 732.64453125 144 727.64453125 215 c 128,-1,38
 722.64453125 286 722.64453125 286 736.64453125 368 c 0,39,40
 741.64453125 398 741.64453125 398 748.64453125 426 c 1,41,-1
 481.64453125 0 l 1,42,-1
 170.64453125 0 l 1,43,-1
 687.64453125 825 l 1,44,45
 659.64453125 807 659.64453125 807 628.64453125 793 c 0,46,47
 561.64453125 764 561.64453125 764 471.64453125 764 c 0,0,1
601.64453125 1193 m 2,48,49
 605.64453125 1219 605.64453125 1219 608.64453125 1242.5 c 128,-1,50
 611.64453125 1266 611.64453125 1266 608.64453125 1283 c 128,-1,51
 605.64453125 1300 605.64453125 1300 596.14453125 1311 c 128,-1,52
 586.64453125 1322 586.64453125 1322 566.64453125 1322 c 0,53,54
 549.64453125 1322 549.64453125 1322 537.64453125 1313 c 128,-1,55
 525.64453125 1304 525.64453125 1304 518.14453125 1288 c 128,-1,56
 510.64453125 1272 510.64453125 1272 506.14453125 1251 c 128,-1,57
 501.64453125 1230 501.64453125 1230 497.64453125 1206 c 2,58,-1
 480.64453125 1110 l 2,59,60
 475.64453125 1083 475.64453125 1083 473.14453125 1059.5 c 128,-1,61
 470.64453125 1036 470.64453125 1036 473.14453125 1018 c 128,-1,62
 475.64453125 1000 475.64453125 1000 484.64453125 989.5 c 128,-1,63
 493.64453125 979 493.64453125 979 514.64453125 979 c 0,64,65
 530.64453125 979 530.64453125 979 542.64453125 988 c 128,-1,66
 554.64453125 997 554.64453125 997 562.14453125 1013 c 128,-1,67
 569.64453125 1029 569.64453125 1029 574.64453125 1049.5 c 128,-1,68
 579.64453125 1070 579.64453125 1070 584.64453125 1094 c 2,69,-1
 601.64453125 1193 l 2,48,49
1122.64453125 414 m 2,70,71
 1126.64453125 440 1126.64453125 440 1129.64453125 462.5 c 128,-1,72
 1132.64453125 485 1132.64453125 485 1129.64453125 503 c 128,-1,73
 1126.64453125 521 1126.64453125 521 1117.14453125 531.5 c 128,-1,74
 1107.64453125 542 1107.64453125 542 1087.64453125 542 c 0,75,76
 1070.64453125 542 1070.64453125 542 1059.14453125 532.5 c 128,-1,77
 1047.64453125 523 1047.64453125 523 1040.14453125 507.5 c 128,-1,78
 1032.64453125 492 1032.64453125 492 1027.64453125 471 c 128,-1,79
 1022.64453125 450 1022.64453125 450 1018.64453125 427 c 2,80,-1
 1001.64453125 331 l 2,81,82
 996.64453125 304 996.64453125 304 994.14453125 280 c 128,-1,83
 991.64453125 256 991.64453125 256 994.64453125 238 c 128,-1,84
 997.64453125 220 997.64453125 220 1007.64453125 209.5 c 128,-1,85
 1017.64453125 199 1017.64453125 199 1037.64453125 199 c 0,86,87
 1053.64453125 199 1053.64453125 199 1064.64453125 208 c 128,-1,88
 1075.64453125 217 1075.64453125 217 1083.14453125 233 c 128,-1,89
 1090.64453125 249 1090.64453125 249 1096.14453125 269.5 c 128,-1,90
 1101.64453125 290 1101.64453125 290 1105.64453125 313 c 2,91,-1
 1122.64453125 414 l 2,70,71
EndSplineSet
EndChar

StartChar: ampersand
Encoding: 38 38 10
Width: 1331
GlyphClass: 1
Flags: W
LayerCount: 2
Fore
SplineSet
1370.52246094 758 m 1,0,1
 1353.52246094 658 1353.52246094 658 1322.02246094 573 c 128,-1,2
 1290.52246094 488 1290.52246094 488 1250.52246094 419 c 128,-1,3
 1210.52246094 350 1210.52246094 350 1164.02246094 296.5 c 128,-1,4
 1117.52246094 243 1117.52246094 243 1068.52246094 205 c 1,5,-1
 1147.52246094 205 l 1,6,-1
 1276.52246094 -17 l 1,7,-1
 888.522460938 -17 l 1,8,-1
 831.522460938 102 l 1,9,-1
 778.522460938 11 l 1,10,11
 753.522460938 5 753.522460938 5 729.022460938 0 c 128,-1,12
 704.522460938 -5 704.522460938 -5 677.022460938 -8.5 c 128,-1,13
 649.522460938 -12 649.522460938 -12 619.522460938 -14.5 c 128,-1,14
 589.522460938 -17 589.522460938 -17 552.522460938 -17 c 0,15,16
 436.522460938 -17 436.522460938 -17 350.522460938 22 c 128,-1,17
 264.522460938 61 264.522460938 61 211.022460938 127.5 c 128,-1,18
 157.522460938 194 157.522460938 194 137.022460938 281.5 c 128,-1,19
 116.522460938 369 116.522460938 369 133.522460938 465 c 0,20,21
 146.522460938 545 146.522460938 545 181.022460938 611.5 c 128,-1,22
 215.522460938 678 215.522460938 678 260.522460938 731 c 128,-1,23
 305.522460938 784 305.522460938 784 357.022460938 823 c 128,-1,24
 408.522460938 862 408.522460938 862 457.522460938 888 c 1,25,26
 445.522460938 918 445.522460938 918 433.522460938 952.5 c 128,-1,27
 421.522460938 987 421.522460938 987 414.522460938 1023.5 c 128,-1,28
 407.522460938 1060 407.522460938 1060 404.522460938 1095 c 128,-1,29
 401.522460938 1130 401.522460938 1130 408.522460938 1161 c 0,30,31
 421.522460938 1237 421.522460938 1237 456.522460938 1305 c 128,-1,32
 491.522460938 1373 491.522460938 1373 550.522460938 1424.5 c 128,-1,33
 609.522460938 1476 609.522460938 1476 694.022460938 1506 c 128,-1,34
 778.522460938 1536 778.522460938 1536 891.522460938 1536 c 0,35,36
 970.522460938 1536 970.522460938 1536 1027.02246094 1518 c 128,-1,37
 1083.52246094 1500 1083.52246094 1500 1125.02246094 1470 c 128,-1,38
 1166.52246094 1440 1166.52246094 1440 1197.52246094 1400.5 c 128,-1,39
 1228.52246094 1361 1228.52246094 1361 1256.52246094 1317 c 1,40,-1
 1077.52246094 1126 l 1,41,42
 1055.52246094 1164 1055.52246094 1164 1035.02246094 1193.5 c 128,-1,43
 1014.52246094 1223 1014.52246094 1223 990.522460938 1242 c 128,-1,44
 966.522460938 1261 966.522460938 1261 937.022460938 1270.5 c 128,-1,45
 907.522460938 1280 907.522460938 1280 868.522460938 1280 c 0,46,47
 831.522460938 1280 831.522460938 1280 807.022460938 1268 c 128,-1,48
 782.522460938 1256 782.522460938 1256 767.022460938 1239 c 128,-1,49
 751.522460938 1222 751.522460938 1222 743.022460938 1201 c 128,-1,50
 734.522460938 1180 734.522460938 1180 731.522460938 1160 c 0,51,52
 726.522460938 1133 726.522460938 1133 729.522460938 1110 c 0,53,54
 731.522460938 1091 731.522460938 1091 740.522460938 1062.5 c 128,-1,55
 749.522460938 1034 749.522460938 1034 768.522460938 988.5 c 128,-1,56
 787.522460938 943 787.522460938 943 817.522460938 874.5 c 128,-1,57
 847.522460938 806 847.522460938 806 892.522460938 705 c 0,58,59
 905.522460938 673 905.522460938 673 915.022460938 653 c 128,-1,60
 924.522460938 633 924.522460938 633 934.022460938 612.5 c 128,-1,61
 943.522460938 592 943.522460938 592 955.522460938 565 c 128,-1,62
 967.522460938 538 967.522460938 538 987.522460938 492 c 1,63,64
 1006.52246094 512 1006.52246094 512 1018.52246094 539.5 c 128,-1,65
 1030.52246094 567 1030.52246094 567 1042.52246094 636 c 128,-1,66
 1054.52246094 705 1054.52246094 705 1060.52246094 737 c 1,67,-1
 1370.52246094 758 l 1,0,1
543.522460938 711 m 1,68,-1
 525.522460938 610 l 1,69,70
 481.522460938 555 481.522460938 555 466.522460938 474 c 0,71,72
 456.522460938 415 456.522460938 415 466.022460938 371 c 128,-1,73
 475.522460938 327 475.522460938 327 498.522460938 297.5 c 128,-1,74
 521.522460938 268 521.522460938 268 554.522460938 253.5 c 128,-1,75
 587.522460938 239 587.522460938 239 621.522460938 239 c 0,76,77
 664.522460938 239 664.522460938 239 693.522460938 249.5 c 128,-1,78
 722.522460938 260 722.522460938 260 745.522460938 275 c 1,79,-1
 543.522460938 711 l 1,68,-1
EndSplineSet
EndChar

StartChar: quotesingle
Encoding: 39 39 11
Width: 1331
GlyphClass: 1
Flags: W
LayerCount: 2
Fore
SplineSet
803.369140625 1536 m 1,0,-1
 1080.36914062 1536 l 1,1,-1
 1055.36914062 1400 l 2,2,3
 1049.36914062 1363 1049.36914062 1363 1035.86914062 1329.5 c 128,-1,4
 1022.36914062 1296 1022.36914062 1296 999.369140625 1261 c 128,-1,5
 976.369140625 1226 976.369140625 1226 941.869140625 1185.5 c 128,-1,6
 907.369140625 1145 907.369140625 1145 856.369140625 1094 c 1,7,-1
 714.369140625 1094 l 1,8,9
 731.369140625 1176 731.369140625 1176 749.369140625 1254 c 128,-1,10
 767.369140625 1332 767.369140625 1332 779.369140625 1400 c 2,11,-1
 803.369140625 1536 l 1,0,-1
EndSplineSet
EndChar

StartChar: parenleft
Encoding: 40 40 12
Width: 1331
GlyphClass: 1
Flags: W
LayerCount: 2
Fore
SplineSet
592.416015625 1186 m 2,0,1
 608.416015625 1281 608.416015625 1281 633.416015625 1363.5 c 128,-1,2
 658.416015625 1446 658.416015625 1446 705.416015625 1507.5 c 128,-1,3
 752.416015625 1569 752.416015625 1569 827.916015625 1603.5 c 128,-1,4
 903.416015625 1638 903.416015625 1638 1020.41601562 1638 c 0,5,6
 1046.41601562 1638 1046.41601562 1638 1074.41601562 1634.5 c 128,-1,7
 1102.41601562 1631 1102.41601562 1631 1129.91601562 1624 c 128,-1,8
 1157.41601562 1617 1157.41601562 1617 1182.91601562 1606 c 128,-1,9
 1208.41601562 1595 1208.41601562 1595 1227.41601562 1582 c 1,10,-1
 1114.41601562 1465 l 1,11,12
 1096.41601562 1465 1096.41601562 1465 1069.91601562 1460 c 128,-1,13
 1043.41601562 1455 1043.41601562 1455 1017.41601562 1434 c 128,-1,14
 991.416015625 1413 991.416015625 1413 968.416015625 1371 c 128,-1,15
 945.416015625 1329 945.416015625 1329 933.416015625 1256 c 2,16,-1
 702.416015625 -47 l 2,17,18
 689.416015625 -122 689.416015625 -122 697.916015625 -163.5 c 128,-1,19
 706.416015625 -205 706.416015625 -205 724.916015625 -224.5 c 128,-1,20
 743.416015625 -244 743.416015625 -244 765.416015625 -247.5 c 128,-1,21
 787.416015625 -251 787.416015625 -251 803.416015625 -251 c 1,22,-1
 882.416015625 -374 l 1,23,24
 858.416015625 -387 858.416015625 -387 829.916015625 -398 c 128,-1,25
 801.416015625 -409 801.416015625 -409 770.416015625 -416 c 128,-1,26
 739.416015625 -423 739.416015625 -423 709.916015625 -426.5 c 128,-1,27
 680.416015625 -430 680.416015625 -430 654.416015625 -430 c 0,28,29
 537.416015625 -430 537.416015625 -430 475.416015625 -392.5 c 128,-1,30
 413.416015625 -355 413.416015625 -355 388.416015625 -290.5 c 128,-1,31
 363.416015625 -226 363.416015625 -226 367.916015625 -141 c 128,-1,32
 372.416015625 -56 372.416015625 -56 389.416015625 39 c 2,33,-1
 592.416015625 1186 l 2,0,1
EndSplineSet
EndChar

StartChar: parenright
Encoding: 41 41 13
Width: 1331
GlyphClass: 1
Flags: W
LayerCount: 2
Fore
SplineSet
954.588867188 39 m 2,0,1
 937.588867188 -56 937.588867188 -56 912.088867188 -141 c 128,-1,2
 886.588867188 -226 886.588867188 -226 839.088867188 -290.5 c 128,-1,3
 791.588867188 -355 791.588867188 -355 715.588867188 -392.5 c 128,-1,4
 639.588867188 -430 639.588867188 -430 523.588867188 -430 c 0,5,6
 497.588867188 -430 497.588867188 -430 469.588867188 -426.5 c 128,-1,7
 441.588867188 -423 441.588867188 -423 413.588867188 -416 c 128,-1,8
 385.588867188 -409 385.588867188 -409 360.088867188 -398 c 128,-1,9
 334.588867188 -387 334.588867188 -387 316.588867188 -374 c 1,10,-1
 438.588867188 -251 l 1,11,12
 453.588867188 -251 453.588867188 -251 477.088867188 -247.5 c 128,-1,13
 500.588867188 -244 500.588867188 -244 526.088867188 -224.5 c 128,-1,14
 551.588867188 -205 551.588867188 -205 574.088867188 -163.5 c 128,-1,15
 596.588867188 -122 596.588867188 -122 610.588867188 -47 c 2,16,-1
 840.588867188 1256 l 2,17,18
 852.588867188 1329 852.588867188 1329 844.588867188 1371 c 128,-1,19
 836.588867188 1413 836.588867188 1413 818.088867188 1434 c 128,-1,20
 799.588867188 1455 799.588867188 1455 775.588867188 1460 c 128,-1,21
 751.588867188 1465 751.588867188 1465 733.588867188 1465 c 1,22,-1
 661.588867188 1582 l 1,23,24
 685.588867188 1595 685.588867188 1595 714.088867188 1606 c 128,-1,25
 742.588867188 1617 742.588867188 1617 773.088867188 1624 c 128,-1,26
 803.588867188 1631 803.588867188 1631 833.588867188 1634.5 c 128,-1,27
 863.588867188 1638 863.588867188 1638 888.588867188 1638 c 0,28,29
 1005.58886719 1638 1005.58886719 1638 1068.58886719 1603.5 c 128,-1,30
 1131.58886719 1569 1131.58886719 1569 1156.58886719 1507.5 c 128,-1,31
 1181.58886719 1446 1181.58886719 1446 1177.58886719 1363.5 c 128,-1,32
 1173.58886719 1281 1173.58886719 1281 1157.58886719 1186 c 2,33,-1
 954.588867188 39 l 2,0,1
EndSplineSet
EndChar

StartChar: asterisk
Encoding: 42 42 14
Width: 1331
GlyphClass: 1
Flags: W
LayerCount: 2
Fore
SplineSet
1081.1640625 948 m 1,0,-1
 1153.1640625 824 l 1,1,-1
 954.1640625 670 l 1,2,-1
 865.1640625 819 l 1,3,-1
 844.1640625 1014 l 1,4,-1
 758.1640625 819 l 1,5,-1
 629.1640625 672 l 1,6,-1
 447.1640625 800 l 1,7,-1
 603.1640625 973 l 1,8,-1
 784.1640625 1066 l 1,9,-1
 569.1640625 1066 l 1,10,-1
 423.1640625 1116 l 1,11,-1
 508.1640625 1340 l 1,12,-1
 688.1640625 1289 l 1,13,-1
 826.1640625 1147 l 1,14,-1
 792.1640625 1347 l 1,15,-1
 816.1640625 1481 l 1,16,-1
 1055.1640625 1505 l 1,17,-1
 1026.1640625 1340 l 1,18,-1
 912.1640625 1144 l 1,19,-1
 1086.1640625 1277 l 1,20,-1
 1242.1640625 1325 l 1,21,-1
 1300.1640625 1109 l 1,22,-1
 1151.1640625 1062 l 1,23,-1
 922.1640625 1062 l 1,24,-1
 1081.1640625 948 l 1,0,-1
EndSplineSet
EndChar

StartChar: plus
Encoding: 43 43 15
Width: 1331
GlyphClass: 1
Flags: W
LayerCount: 2
Fore
SplineSet
311.279296875 717 m 1,0,-1
 680.279296875 717 l 1,1,-1
 754.279296875 1144 l 1,2,-1
 980.279296875 1144 l 1,3,-1
 905.279296875 717 l 1,4,-1
 1273.27929688 717 l 1,5,-1
 1237.27929688 512 l 1,6,-1
 868.279296875 512 l 1,7,-1
 796.279296875 102 l 1,8,-1
 571.279296875 102 l 1,9,-1
 643.279296875 512 l 1,10,-1
 274.279296875 512 l 1,11,-1
 311.279296875 717 l 1,0,-1
EndSplineSet
EndChar

StartChar: comma
Encoding: 44 44 16
Width: 1331
GlyphClass: 1
Flags: W
LayerCount: 2
Fore
SplineSet
511.365234375 160 m 0,0,1
 517.365234375 196 517.365234375 196 537.365234375 228 c 128,-1,2
 557.365234375 260 557.365234375 260 586.865234375 283.5 c 128,-1,3
 616.365234375 307 616.365234375 307 652.365234375 322 c 128,-1,4
 688.365234375 337 688.365234375 337 725.365234375 337 c 0,5,6
 761.365234375 337 761.365234375 337 790.865234375 324 c 128,-1,7
 820.365234375 311 820.365234375 311 841.865234375 286.5 c 128,-1,8
 863.365234375 262 863.365234375 262 871.865234375 224 c 128,-1,9
 880.365234375 186 880.365234375 186 872.365234375 139 c 0,10,11
 860.365234375 73 860.365234375 73 841.365234375 12.5 c 128,-1,12
 822.365234375 -48 822.365234375 -48 786.365234375 -110.5 c 128,-1,13
 750.365234375 -173 750.365234375 -173 692.365234375 -238 c 128,-1,14
 634.365234375 -303 634.365234375 -303 544.365234375 -374 c 1,15,-1
 486.365234375 -345 l 1,16,17
 524.365234375 -291 524.365234375 -291 556.365234375 -233 c 0,18,19
 584.365234375 -185 584.365234375 -185 609.365234375 -128.5 c 128,-1,20
 634.365234375 -72 634.365234375 -72 644.365234375 -17 c 1,21,22
 613.365234375 -16 613.365234375 -16 585.865234375 -4 c 128,-1,23
 558.365234375 8 558.365234375 8 538.865234375 29.5 c 128,-1,24
 519.365234375 51 519.365234375 51 511.865234375 84.5 c 128,-1,25
 504.365234375 118 504.365234375 118 511.365234375 160 c 0,0,1
EndSplineSet
EndChar

StartChar: hyphen
Encoding: 45 45 17
Width: 1331
GlyphClass: 1
Flags: W
LayerCount: 2
Fore
SplineSet
456.983398438 639 m 1,0,-1
 1098.98339844 639 l 1,1,-1
 1058.98339844 410 l 1,2,-1
 416.983398438 410 l 1,3,-1
 456.983398438 639 l 1,0,-1
EndSplineSet
EndChar

StartChar: period
Encoding: 46 46 18
Width: 1331
GlyphClass: 1
Flags: W
LayerCount: 2
Fore
SplineSet
495.984375 187 m 0,0,1
 502.984375 229 502.984375 229 525.984375 266 c 128,-1,2
 548.984375 303 548.984375 303 580.984375 330.5 c 128,-1,3
 612.984375 358 612.984375 358 652.484375 374 c 128,-1,4
 691.984375 390 691.984375 390 733.984375 390 c 256,5,6
 775.984375 390 775.984375 390 809.984375 374 c 128,-1,7
 843.984375 358 843.984375 358 866.984375 330.5 c 128,-1,8
 889.984375 303 889.984375 303 898.984375 266 c 128,-1,9
 907.984375 229 907.984375 229 900.984375 187 c 0,10,11
 892.984375 145 892.984375 145 870.984375 108 c 128,-1,12
 848.984375 71 848.984375 71 816.484375 43 c 128,-1,13
 783.984375 15 783.984375 15 744.484375 -1 c 128,-1,14
 704.984375 -17 704.984375 -17 662.984375 -17 c 256,15,16
 620.984375 -17 620.984375 -17 586.984375 -1 c 128,-1,17
 552.984375 15 552.984375 15 530.484375 43 c 128,-1,18
 507.984375 71 507.984375 71 497.984375 108 c 128,-1,19
 487.984375 145 487.984375 145 495.984375 187 c 0,0,1
EndSplineSet
EndChar

StartChar: slash
Encoding: 47 47 19
Width: 1331
GlyphClass: 1
Flags: W
LayerCount: 2
Fore
SplineSet
474.418945312 -102 m 1,0,-1
 135.418945312 -102 l 1,1,-1
 1135.41894531 1638 l 1,2,-1
 1466.41894531 1638 l 1,3,-1
 474.418945312 -102 l 1,0,-1
EndSplineSet
EndChar

StartChar: zero
Encoding: 48 48 20
Width: 1331
GlyphClass: 1
Flags: W
LayerCount: 2
Fore
SplineSet
661.419921875 -16 m 0,0,1
 566.419921875 -16 566.419921875 -16 492.919921875 17 c 128,-1,2
 419.419921875 50 419.419921875 50 365.419921875 107.5 c 128,-1,3
 311.419921875 165 311.419921875 165 277.419921875 241.5 c 128,-1,4
 243.419921875 318 243.419921875 318 226.919921875 405.5 c 128,-1,5
 210.419921875 493 210.419921875 493 210.919921875 586 c 128,-1,6
 211.419921875 679 211.419921875 679 227.419921875 768 c 0,7,8
 243.419921875 860 243.419921875 860 273.419921875 954 c 128,-1,9
 303.419921875 1048 303.419921875 1048 347.919921875 1135.5 c 128,-1,10
 392.419921875 1223 392.419921875 1223 451.419921875 1298.5 c 128,-1,11
 510.419921875 1374 510.419921875 1374 583.919921875 1431 c 128,-1,12
 657.419921875 1488 657.419921875 1488 745.919921875 1520 c 128,-1,13
 834.419921875 1552 834.419921875 1552 939.419921875 1552 c 0,14,15
 1034.41992188 1552 1034.41992188 1552 1107.91992188 1519 c 128,-1,16
 1181.41992188 1486 1181.41992188 1486 1235.41992188 1428.5 c 128,-1,17
 1289.41992188 1371 1289.41992188 1371 1323.91992188 1294.5 c 128,-1,18
 1358.41992188 1218 1358.41992188 1218 1374.41992188 1130.5 c 128,-1,19
 1390.41992188 1043 1390.41992188 1043 1389.91992188 950 c 128,-1,20
 1389.41992188 857 1389.41992188 857 1374.41992188 768 c 0,21,22
 1358.41992188 676 1358.41992188 676 1327.91992188 582 c 128,-1,23
 1297.41992188 488 1297.41992188 488 1252.91992188 400.5 c 128,-1,24
 1208.41992188 313 1208.41992188 313 1149.41992188 237.5 c 128,-1,25
 1090.41992188 162 1090.41992188 162 1016.91992188 105 c 128,-1,26
 943.419921875 48 943.419921875 48 853.919921875 16 c 128,-1,27
 764.419921875 -16 764.419921875 -16 661.419921875 -16 c 0,0,1
570.419921875 810 m 0,28,29
 561.419921875 757 561.419921875 757 554.419921875 692.5 c 128,-1,30
 547.419921875 628 547.419921875 628 547.419921875 562 c 1,31,-1
 506.419921875 393 l 1,32,-1
 1002.41992188 1232 l 1,33,34
 983.419921875 1265 983.419921875 1265 955.419921875 1284.5 c 128,-1,35
 927.419921875 1304 927.419921875 1304 887.419921875 1304 c 0,36,37
 844.419921875 1304 844.419921875 1304 806.419921875 1283 c 128,-1,38
 768.419921875 1262 768.419921875 1262 736.419921875 1225.5 c 128,-1,39
 704.419921875 1189 704.419921875 1189 678.419921875 1140.5 c 128,-1,40
 652.419921875 1092 652.419921875 1092 631.419921875 1037 c 128,-1,41
 610.419921875 982 610.419921875 982 595.419921875 923.5 c 128,-1,42
 580.419921875 865 580.419921875 865 570.419921875 810 c 0,28,29
1030.41992188 726 m 0,43,44
 1045.41992188 810 1045.41992188 810 1050.41992188 910 c 1,45,-1
 1100.41992188 1097 l 1,46,-1
 618.419921875 272 l 1,47,48
 635.419921875 253 635.419921875 253 659.419921875 242 c 128,-1,49
 683.419921875 231 683.419921875 231 712.419921875 231 c 0,50,51
 755.419921875 231 755.419921875 231 793.419921875 252 c 128,-1,52
 831.419921875 273 831.419921875 273 863.419921875 309.5 c 128,-1,53
 895.419921875 346 895.419921875 346 921.919921875 394.5 c 128,-1,54
 948.419921875 443 948.419921875 443 969.419921875 498.5 c 128,-1,55
 990.419921875 554 990.419921875 554 1005.41992188 612 c 128,-1,56
 1020.41992188 670 1020.41992188 670 1030.41992188 726 c 0,43,44
EndSplineSet
EndChar

StartChar: one
Encoding: 49 49 21
Width: 1331
GlyphClass: 1
Flags: W
LayerCount: 2
Fore
SplineSet
731.84765625 901 m 1,0,-1
 872.84765625 1273 l 1,1,-1
 590.84765625 995 l 1,2,-1
 491.84765625 920 l 1,3,-1
 365.84765625 1109 l 1,4,-1
 937.84765625 1556 l 1,5,-1
 1181.84765625 1536 l 1,6,-1
 947.84765625 205 l 1,7,-1
 1196.84765625 205 l 1,8,-1
 1159.84765625 0 l 1,9,-1
 322.84765625 0 l 1,10,-1
 359.84765625 205 l 1,11,-1
 608.84765625 205 l 1,12,-1
 731.84765625 901 l 1,0,-1
EndSplineSet
EndChar

StartChar: two
Encoding: 50 50 22
Width: 1331
GlyphClass: 1
Flags: W
LayerCount: 2
Fore
SplineSet
149.69140625 0 m 1,0,-1
 182.69140625 195 l 1,1,2
 243.69140625 271 243.69140625 271 321.69140625 354 c 128,-1,3
 399.69140625 437 399.69140625 437 480.19140625 517.5 c 128,-1,4
 560.69140625 598 560.69140625 598 636.69140625 669.5 c 128,-1,5
 712.69140625 741 712.69140625 741 770.69140625 794 c 0,6,7
 837.69140625 853 837.69140625 853 882.69140625 894 c 128,-1,8
 927.69140625 935 927.69140625 935 958.19140625 970 c 128,-1,9
 988.69140625 1005 988.69140625 1005 1005.69140625 1040 c 128,-1,10
 1022.69140625 1075 1022.69140625 1075 1030.69140625 1123 c 0,11,12
 1037.69140625 1161 1037.69140625 1161 1031.69140625 1198.5 c 128,-1,13
 1025.69140625 1236 1025.69140625 1236 1007.19140625 1265.5 c 128,-1,14
 988.69140625 1295 988.69140625 1295 958.19140625 1313 c 128,-1,15
 927.69140625 1331 927.69140625 1331 885.69140625 1331 c 0,16,17
 801.69140625 1331 801.69140625 1331 728.19140625 1275 c 128,-1,18
 654.69140625 1219 654.69140625 1219 588.69140625 1122 c 1,19,-1
 365.69140625 1211 l 1,20,21
 409.69140625 1290 409.69140625 1290 467.69140625 1353 c 128,-1,22
 525.69140625 1416 525.69140625 1416 597.19140625 1460.5 c 128,-1,23
 668.69140625 1505 668.69140625 1505 754.69140625 1529 c 128,-1,24
 840.69140625 1553 840.69140625 1553 940.69140625 1553 c 0,25,26
 1057.69140625 1553 1057.69140625 1553 1141.69140625 1515 c 128,-1,27
 1225.69140625 1477 1225.69140625 1477 1277.69140625 1414.5 c 128,-1,28
 1329.69140625 1352 1329.69140625 1352 1348.69140625 1272.5 c 128,-1,29
 1367.69140625 1193 1367.69140625 1193 1352.69140625 1112 c 0,30,31
 1340.69140625 1040 1340.69140625 1040 1307.69140625 980 c 128,-1,32
 1274.69140625 920 1274.69140625 920 1226.69140625 864 c 128,-1,33
 1178.69140625 808 1178.69140625 808 1121.19140625 752.5 c 128,-1,34
 1063.69140625 697 1063.69140625 697 1000.69140625 636 c 0,35,36
 939.69140625 575 939.69140625 575 873.69140625 511 c 128,-1,37
 807.69140625 447 807.69140625 447 747.69140625 390 c 128,-1,38
 687.69140625 333 687.69140625 333 638.19140625 285 c 128,-1,39
 588.69140625 237 588.69140625 237 561.69140625 205 c 1,40,-1
 1218.69140625 205 l 1,41,-1
 1182.69140625 0 l 1,42,-1
 149.69140625 0 l 1,0,-1
EndSplineSet
EndChar

StartChar: three
Encoding: 51 51 23
Width: 1331
GlyphClass: 1
Flags: W
LayerCount: 2
Fore
SplineSet
456.751953125 961 m 1,0,1
 490.751953125 983 490.751953125 983 537.751953125 1013 c 128,-1,2
 584.751953125 1043 584.751953125 1043 638.751953125 1080 c 128,-1,3
 692.751953125 1117 692.751953125 1117 749.751953125 1157.5 c 128,-1,4
 806.751953125 1198 806.751953125 1198 859.251953125 1240.5 c 128,-1,5
 911.751953125 1283 911.751953125 1283 957.251953125 1325.5 c 128,-1,6
 1002.75195312 1368 1002.75195312 1368 1034.75195312 1407 c 1,7,-1
 754.751953125 1331 l 1,8,-1
 415.751953125 1331 l 1,9,-1
 473.751953125 1536 l 1,10,-1
 1335.75195312 1536 l 1,11,-1
 1304.75195312 1359 l 1,12,13
 1258.75195312 1278 1258.75195312 1278 1187.25195312 1210.5 c 128,-1,14
 1115.75195312 1143 1115.75195312 1143 1031.75195312 1077 c 1,15,-1
 856.751953125 992 l 1,16,17
 964.751953125 992 964.751953125 992 1047.75195312 964 c 128,-1,18
 1130.75195312 936 1130.75195312 936 1184.25195312 883.5 c 128,-1,19
 1237.75195312 831 1237.75195312 831 1258.75195312 756 c 128,-1,20
 1279.75195312 681 1279.75195312 681 1263.75195312 587 c 0,21,22
 1245.75195312 486 1245.75195312 486 1189.25195312 402.5 c 128,-1,23
 1132.75195312 319 1132.75195312 319 1049.25195312 254 c 128,-1,24
 965.751953125 189 965.751953125 189 860.751953125 141 c 128,-1,25
 755.751953125 93 755.751953125 93 639.751953125 62 c 128,-1,26
 523.751953125 31 523.751953125 31 404.251953125 15.5 c 128,-1,27
 284.751953125 0 284.751953125 0 170.751953125 0 c 1,28,-1
 207.751953125 205 l 1,29,30
 328.751953125 209 328.751953125 209 448.251953125 236.5 c 128,-1,31
 567.751953125 264 567.751953125 264 666.251953125 311.5 c 128,-1,32
 764.751953125 359 764.751953125 359 831.251953125 426.5 c 128,-1,33
 897.751953125 494 897.751953125 494 912.751953125 577 c 0,34,35
 922.751953125 636 922.751953125 636 905.251953125 676.5 c 128,-1,36
 887.751953125 717 887.751953125 717 848.751953125 742 c 128,-1,37
 809.751953125 767 809.751953125 767 754.751953125 777.5 c 128,-1,38
 699.751953125 788 699.751953125 788 636.751953125 788 c 0,39,40
 621.751953125 788 621.751953125 788 591.751953125 786.5 c 128,-1,41
 561.751953125 785 561.751953125 785 529.751953125 783.5 c 128,-1,42
 497.751953125 782 497.751953125 782 468.251953125 780.5 c 128,-1,43
 438.751953125 779 438.751953125 779 423.751953125 778 c 1,44,-1
 456.751953125 961 l 1,0,1
EndSplineSet
EndChar

StartChar: four
Encoding: 52 52 24
Width: 1331
GlyphClass: 1
Flags: W
LayerCount: 2
Fore
SplineSet
1251.20605469 307 m 1,0,-1
 1068.20605469 307 l 1,1,-1
 1014.20605469 0 l 1,2,-1
 685.206054688 0 l 1,3,-1
 740.206054688 307 l 1,4,-1
 166.206054688 307 l 1,5,-1
 203.206054688 512 l 1,6,-1
 892.206054688 1556 l 1,7,-1
 1176.20605469 1536 l 1,8,-1
 704.206054688 781 l 1,9,-1
 479.206054688 512 l 1,10,-1
 777.206054688 512 l 1,11,-1
 827.206054688 799 l 1,12,-1
 1160.20605469 819 l 1,13,-1
 1105.20605469 512 l 1,14,-1
 1309.20605469 512 l 1,15,-1
 1251.20605469 307 l 1,0,-1
EndSplineSet
EndChar

StartChar: five
Encoding: 53 53 25
Width: 1331
GlyphClass: 1
Flags: W
LayerCount: 2
Fore
SplineSet
721.512695312 1071 m 1,0,1
 747.512695312 1077 747.512695312 1077 777.012695312 1080.5 c 128,-1,2
 806.512695312 1084 806.512695312 1084 842.512695312 1084 c 0,3,4
 961.512695312 1084 961.512695312 1084 1049.01269531 1049.5 c 128,-1,5
 1136.51269531 1015 1136.51269531 1015 1191.01269531 954.5 c 128,-1,6
 1245.51269531 894 1245.51269531 894 1265.51269531 813.5 c 128,-1,7
 1285.51269531 733 1285.51269531 733 1269.51269531 641 c 0,8,9
 1251.51269531 536 1251.51269531 536 1193.51269531 447.5 c 128,-1,10
 1135.51269531 359 1135.51269531 359 1051.01269531 288 c 128,-1,11
 966.512695312 217 966.512695312 217 860.512695312 163.5 c 128,-1,12
 754.512695312 110 754.512695312 110 639.012695312 73.5 c 128,-1,13
 523.512695312 37 523.512695312 37 404.512695312 18.5 c 128,-1,14
 285.512695312 0 285.512695312 0 174.512695312 0 c 1,15,-1
 215.512695312 231 l 1,16,17
 289.512695312 233 289.512695312 233 368.012695312 247.5 c 128,-1,18
 446.512695312 262 446.512695312 262 522.512695312 286.5 c 128,-1,19
 598.512695312 311 598.512695312 311 668.012695312 346 c 128,-1,20
 737.512695312 381 737.512695312 381 793.012695312 423.5 c 128,-1,21
 848.512695312 466 848.512695312 466 884.512695312 515.5 c 128,-1,22
 920.512695312 565 920.512695312 565 930.512695312 621 c 0,23,24
 937.512695312 663 937.512695312 663 930.512695312 702.5 c 128,-1,25
 923.512695312 742 923.512695312 742 903.012695312 773 c 128,-1,26
 882.512695312 804 882.512695312 804 849.512695312 823 c 128,-1,27
 816.512695312 842 816.512695312 842 772.512695312 842 c 0,28,29
 733.512695312 842 733.512695312 842 699.012695312 835.5 c 128,-1,30
 664.512695312 829 664.512695312 829 635.012695312 819.5 c 128,-1,31
 605.512695312 810 605.512695312 810 582.012695312 798.5 c 128,-1,32
 558.512695312 787 558.512695312 787 542.512695312 777 c 1,33,-1
 311.512695312 777 l 1,34,-1
 445.512695312 1536 l 1,35,-1
 1332.51269531 1536 l 1,36,-1
 1295.51269531 1331 l 1,37,-1
 766.512695312 1331 l 1,38,-1
 721.512695312 1071 l 1,0,1
EndSplineSet
EndChar

StartChar: six
Encoding: 54 54 26
Width: 1331
GlyphClass: 1
Flags: W
LayerCount: 2
Fore
SplineSet
1261.05761719 1311 m 1,0,1
 1237.05761719 1325 1237.05761719 1325 1206.05761719 1328 c 128,-1,2
 1175.05761719 1331 1175.05761719 1331 1151.05761719 1331 c 0,3,4
 1080.05761719 1331 1080.05761719 1331 998.557617188 1297 c 128,-1,5
 917.057617188 1263 917.057617188 1263 839.057617188 1197.5 c 128,-1,6
 761.057617188 1132 761.057617188 1132 694.557617188 1036.5 c 128,-1,7
 628.057617188 941 628.057617188 941 588.057617188 819 c 1,8,-1
 784.057617188 968 l 1,9,10
 843.057617188 979 843.057617188 979 889.057617188 979 c 0,11,12
 988.057617188 979 988.057617188 979 1076.55761719 954 c 128,-1,13
 1165.05761719 929 1165.05761719 929 1227.55761719 875 c 128,-1,14
 1290.05761719 821 1290.05761719 821 1318.05761719 737.5 c 128,-1,15
 1346.05761719 654 1346.05761719 654 1326.05761719 538 c 0,16,17
 1306.05761719 424 1306.05761719 424 1247.05761719 323 c 128,-1,18
 1188.05761719 222 1188.05761719 222 1100.05761719 146.5 c 128,-1,19
 1012.05761719 71 1012.05761719 71 900.057617188 27 c 128,-1,20
 788.057617188 -17 788.057617188 -17 662.057617188 -17 c 0,21,22
 551.057617188 -17 551.057617188 -17 472.557617188 15.5 c 128,-1,23
 394.057617188 48 394.057617188 48 340.557617188 102 c 128,-1,24
 287.057617188 156 287.057617188 156 256.557617188 225 c 128,-1,25
 226.057617188 294 226.057617188 294 212.557617188 367 c 128,-1,26
 199.057617188 440 199.057617188 440 200.557617188 512 c 128,-1,27
 202.057617188 584 202.057617188 584 213.057617188 642 c 0,28,29
 235.057617188 763 235.057617188 763 280.557617188 877.5 c 128,-1,30
 326.057617188 992 326.057617188 992 393.557617188 1093 c 128,-1,31
 461.057617188 1194 461.057617188 1194 548.557617188 1279 c 128,-1,32
 636.057617188 1364 636.057617188 1364 738.557617188 1425 c 128,-1,33
 841.057617188 1486 841.057617188 1486 957.557617188 1519.5 c 128,-1,34
 1074.05761719 1553 1074.05761719 1553 1200.05761719 1553 c 0,35,36
 1218.05761719 1553 1218.05761719 1553 1252.05761719 1550.5 c 128,-1,37
 1286.05761719 1548 1286.05761719 1548 1335.05761719 1534 c 1,38,-1
 1261.05761719 1311 l 1,0,1
839.057617188 774 m 0,39,40
 802.057617188 774 802.057617188 774 762.057617188 758.5 c 128,-1,41
 722.057617188 743 722.057617188 743 683.557617188 719.5 c 128,-1,42
 645.057617188 696 645.057617188 696 611.057617188 668 c 128,-1,43
 577.057617188 640 577.057617188 640 553.057617188 615 c 1,44,45
 548.057617188 588 548.057617188 588 544.557617188 566.5 c 128,-1,46
 541.057617188 545 541.057617188 545 539.557617188 525 c 128,-1,47
 538.057617188 505 538.057617188 505 538.057617188 485.5 c 128,-1,48
 538.057617188 466 538.057617188 466 540.057617188 444 c 0,49,50
 544.057617188 396 544.057617188 396 556.057617188 352.5 c 128,-1,51
 568.057617188 309 568.057617188 309 589.057617188 276.5 c 128,-1,52
 610.057617188 244 610.057617188 244 638.557617188 224.5 c 128,-1,53
 667.057617188 205 667.057617188 205 705.057617188 205 c 0,54,55
 760.057617188 205 760.057617188 205 806.557617188 234 c 128,-1,56
 853.057617188 263 853.057617188 263 887.557617188 309.5 c 128,-1,57
 922.057617188 356 922.057617188 356 945.057617188 414 c 128,-1,58
 968.057617188 472 968.057617188 472 979.057617188 528 c 0,59,60
 988.057617188 579 988.057617188 579 981.557617188 624.5 c 128,-1,61
 975.057617188 670 975.057617188 670 957.057617188 703 c 128,-1,62
 939.057617188 736 939.057617188 736 908.557617188 755 c 128,-1,63
 878.057617188 774 878.057617188 774 839.057617188 774 c 0,39,40
EndSplineSet
EndChar

StartChar: seven
Encoding: 55 55 27
Width: 1331
GlyphClass: 1
Flags: W
LayerCount: 2
Fore
SplineSet
420.791015625 1536 m 1,0,-1
 1451.79101562 1536 l 1,1,-1
 1422.79101562 1371 l 2,2,3
 1417.79101562 1343 1417.79101562 1343 1396.29101562 1304.5 c 128,-1,4
 1374.79101562 1266 1374.79101562 1266 1341.29101562 1218 c 128,-1,5
 1307.79101562 1170 1307.79101562 1170 1264.79101562 1114.5 c 128,-1,6
 1221.79101562 1059 1221.79101562 1059 1174.79101562 999 c 0,7,8
 1119.79101562 927 1119.79101562 927 1058.29101562 846.5 c 128,-1,9
 996.791015625 766 996.791015625 766 940.791015625 682 c 128,-1,10
 884.791015625 598 884.791015625 598 840.291015625 514.5 c 128,-1,11
 795.791015625 431 795.791015625 431 773.791015625 354 c 0,12,13
 762.791015625 317 762.791015625 317 752.291015625 272 c 128,-1,14
 741.791015625 227 741.791015625 227 732.291015625 179.5 c 128,-1,15
 722.791015625 132 722.791015625 132 714.791015625 86 c 128,-1,16
 706.791015625 40 706.791015625 40 699.791015625 0 c 1,17,-1
 354.791015625 0 l 1,18,19
 360.791015625 33 360.791015625 33 370.791015625 88 c 128,-1,20
 380.791015625 143 380.791015625 143 394.291015625 204.5 c 128,-1,21
 407.791015625 266 407.791015625 266 423.291015625 326 c 128,-1,22
 438.791015625 386 438.791015625 386 454.791015625 428 c 0,23,24
 489.791015625 519 489.791015625 519 541.291015625 612 c 128,-1,25
 592.791015625 705 592.791015625 705 652.291015625 793 c 128,-1,26
 711.791015625 881 711.791015625 881 773.791015625 961.5 c 128,-1,27
 835.791015625 1042 835.791015625 1042 890.791015625 1112 c 0,28,29
 936.791015625 1170 936.791015625 1170 974.791015625 1219.5 c 128,-1,30
 1012.79101562 1269 1012.79101562 1269 1031.79101562 1303 c 1,31,-1
 379.791015625 1303 l 1,32,-1
 420.791015625 1536 l 1,0,-1
EndSplineSet
EndChar

StartChar: eight
Encoding: 56 56 28
Width: 1331
GlyphClass: 1
Flags: W
LayerCount: 2
Fore
SplineSet
919.893554688 1553 m 0,0,1
 1024.89355469 1553 1024.89355469 1553 1110.39355469 1526 c 128,-1,2
 1195.89355469 1499 1195.89355469 1499 1252.39355469 1448.5 c 128,-1,3
 1308.89355469 1398 1308.89355469 1398 1332.89355469 1325 c 128,-1,4
 1356.89355469 1252 1356.89355469 1252 1339.89355469 1161 c 0,5,6
 1330.89355469 1109 1330.89355469 1109 1302.89355469 1065 c 128,-1,7
 1274.89355469 1021 1274.89355469 1021 1235.89355469 984 c 128,-1,8
 1196.89355469 947 1196.89355469 947 1150.89355469 917.5 c 128,-1,9
 1104.89355469 888 1104.89355469 888 1058.89355469 864 c 1,10,11
 1120.89355469 831 1120.89355469 831 1172.39355469 787.5 c 128,-1,12
 1223.89355469 744 1223.89355469 744 1258.39355469 690.5 c 128,-1,13
 1292.89355469 637 1292.89355469 637 1306.89355469 573.5 c 128,-1,14
 1320.89355469 510 1320.89355469 510 1308.89355469 437 c 0,15,16
 1286.89355469 319 1286.89355469 319 1222.39355469 233 c 128,-1,17
 1157.89355469 147 1157.89355469 147 1066.89355469 91.5 c 128,-1,18
 975.893554688 36 975.893554688 36 866.893554688 9.5 c 128,-1,19
 757.893554688 -17 757.893554688 -17 648.893554688 -17 c 0,20,21
 542.893554688 -17 542.893554688 -17 448.393554688 13 c 128,-1,22
 353.893554688 43 353.893554688 43 287.393554688 102.5 c 128,-1,23
 220.893554688 162 220.893554688 162 189.893554688 249.5 c 128,-1,24
 158.893554688 337 158.893554688 337 178.893554688 452 c 0,25,26
 190.893554688 525 190.893554688 525 224.393554688 587.5 c 128,-1,27
 257.893554688 650 257.893554688 650 306.393554688 702.5 c 128,-1,28
 354.893554688 755 354.893554688 755 416.393554688 796.5 c 128,-1,29
 477.893554688 838 477.893554688 838 547.893554688 868 c 1,30,31
 505.893554688 896 505.893554688 896 470.893554688 927 c 128,-1,32
 435.893554688 958 435.893554688 958 412.393554688 993 c 128,-1,33
 388.893554688 1028 388.893554688 1028 378.893554688 1067 c 128,-1,34
 368.893554688 1106 368.893554688 1106 376.893554688 1151 c 0,35,36
 388.893554688 1221 388.893554688 1221 419.893554688 1278 c 128,-1,37
 450.893554688 1335 450.893554688 1335 493.893554688 1379.5 c 128,-1,38
 536.893554688 1424 536.893554688 1424 589.893554688 1457 c 128,-1,39
 642.893554688 1490 642.893554688 1490 699.393554688 1511.5 c 128,-1,40
 755.893554688 1533 755.893554688 1533 812.393554688 1543 c 128,-1,41
 868.893554688 1553 868.893554688 1553 919.893554688 1553 c 0,0,1
974.893554688 432 m 0,42,43
 983.893554688 487 983.893554688 487 968.393554688 532.5 c 128,-1,44
 952.893554688 578 952.893554688 578 921.893554688 614 c 128,-1,45
 890.893554688 650 890.893554688 650 849.393554688 678.5 c 128,-1,46
 807.893554688 707 807.893554688 707 765.893554688 728 c 1,47,48
 717.893554688 706 717.893554688 706 675.393554688 678 c 128,-1,49
 632.893554688 650 632.893554688 650 598.393554688 613.5 c 128,-1,50
 563.893554688 577 563.893554688 577 540.393554688 531.5 c 128,-1,51
 516.893554688 486 516.893554688 486 506.893554688 431 c 0,52,53
 498.893554688 382 498.893554688 382 510.893554688 340 c 128,-1,54
 522.893554688 298 522.893554688 298 549.393554688 268.5 c 128,-1,55
 575.893554688 239 575.893554688 239 612.893554688 222 c 128,-1,56
 649.893554688 205 649.893554688 205 689.893554688 205 c 0,57,58
 735.893554688 205 735.893554688 205 782.893554688 220.5 c 128,-1,59
 829.893554688 236 829.893554688 236 868.893554688 265 c 128,-1,60
 907.893554688 294 907.893554688 294 936.893554688 336 c 128,-1,61
 965.893554688 378 965.893554688 378 974.893554688 432 c 0,42,43
710.893554688 1184 m 0,62,63
 704.893554688 1149 704.893554688 1149 713.893554688 1120 c 128,-1,64
 722.893554688 1091 722.893554688 1091 742.893554688 1066 c 128,-1,65
 762.893554688 1041 762.893554688 1041 789.893554688 1021.5 c 128,-1,66
 816.893554688 1002 816.893554688 1002 847.893554688 987 c 1,67,68
 908.893554688 1017 908.893554688 1017 956.393554688 1066 c 128,-1,69
 1003.89355469 1115 1003.89355469 1115 1015.89355469 1180 c 0,70,71
 1022.89355469 1219 1022.89355469 1219 1012.89355469 1247.5 c 128,-1,72
 1002.89355469 1276 1002.89355469 1276 984.893554688 1294.5 c 128,-1,73
 966.893554688 1313 966.893554688 1313 942.893554688 1322 c 128,-1,74
 918.893554688 1331 918.893554688 1331 898.893554688 1331 c 0,75,76
 869.893554688 1331 869.893554688 1331 838.893554688 1320 c 128,-1,77
 807.893554688 1309 807.893554688 1309 781.393554688 1289 c 128,-1,78
 754.893554688 1269 754.893554688 1269 735.393554688 1242 c 128,-1,79
 715.893554688 1215 715.893554688 1215 710.893554688 1184 c 0,62,63
EndSplineSet
EndChar

StartChar: nine
Encoding: 57 57 29
Width: 1331
GlyphClass: 1
Flags: W
LayerCount: 2
Fore
SplineSet
369.047851562 205 m 1,0,1
 440.047851562 207 440.047851562 207 512.047851562 228.5 c 128,-1,2
 584.047851562 250 584.047851562 250 651.547851562 286 c 128,-1,3
 719.047851562 322 719.047851562 322 779.047851562 370.5 c 128,-1,4
 839.047851562 419 839.047851562 419 887.047851562 474.5 c 128,-1,5
 935.047851562 530 935.047851562 530 967.547851562 591.5 c 128,-1,6
 1000.04785156 653 1000.04785156 653 1013.04785156 717 c 1,7,-1
 803.047851562 561 l 1,8,9
 787.047851562 559 787.047851562 559 769.547851562 558 c 128,-1,10
 752.047851562 557 752.047851562 557 734.047851562 557 c 0,11,12
 622.047851562 557 622.047851562 557 531.047851562 591.5 c 128,-1,13
 440.047851562 626 440.047851562 626 379.547851562 689.5 c 128,-1,14
 319.047851562 753 319.047851562 753 294.047851562 842.5 c 128,-1,15
 269.047851562 932 269.047851562 932 289.047851562 1041 c 0,16,17
 308.047851562 1155 308.047851562 1155 364.047851562 1249 c 128,-1,18
 420.047851562 1343 420.047851562 1343 504.047851562 1411 c 128,-1,19
 588.047851562 1479 588.047851562 1479 697.047851562 1516 c 128,-1,20
 806.047851562 1553 806.047851562 1553 933.047851562 1553 c 0,21,22
 1046.04785156 1553 1046.04785156 1553 1126.04785156 1521.5 c 128,-1,23
 1206.04785156 1490 1206.04785156 1490 1260.04785156 1437 c 128,-1,24
 1314.04785156 1384 1314.04785156 1384 1343.54785156 1315.5 c 128,-1,25
 1373.04785156 1247 1373.04785156 1247 1386.04785156 1174 c 128,-1,26
 1399.04785156 1101 1399.04785156 1101 1397.04785156 1028 c 128,-1,27
 1395.04785156 955 1395.04785156 955 1383.04785156 894 c 0,28,29
 1351.04785156 713 1351.04785156 713 1266.04785156 553.5 c 128,-1,30
 1181.04785156 394 1181.04785156 394 1049.54785156 273 c 128,-1,31
 918.047851562 152 918.047851562 152 746.047851562 75.5 c 128,-1,32
 574.047851562 -1 574.047851562 -1 369.047851562 -17 c 1,33,-1
 369.047851562 205 l 1,0,1
782.047851562 779 m 0,34,35
 817.047851562 779 817.047851562 779 856.547851562 795.5 c 128,-1,36
 896.047851562 812 896.047851562 812 934.047851562 838.5 c 128,-1,37
 972.047851562 865 972.047851562 865 1005.04785156 899 c 128,-1,38
 1038.04785156 933 1038.04785156 933 1061.04785156 968 c 1,39,40
 1070.04785156 1033 1070.04785156 1033 1064.54785156 1097.5 c 128,-1,41
 1059.04785156 1162 1059.04785156 1162 1039.04785156 1214.5 c 128,-1,42
 1019.04785156 1267 1019.04785156 1267 984.047851562 1299 c 128,-1,43
 949.047851562 1331 949.047851562 1331 900.047851562 1331 c 0,44,45
 852.047851562 1331 852.047851562 1331 807.547851562 1309 c 128,-1,46
 763.047851562 1287 763.047851562 1287 726.547851562 1250 c 128,-1,47
 690.047851562 1213 690.047851562 1213 664.547851562 1163.5 c 128,-1,48
 639.047851562 1114 639.047851562 1114 630.047851562 1059 c 0,49,50
 620.047851562 1004 620.047851562 1004 624.547851562 953.5 c 128,-1,51
 629.047851562 903 629.047851562 903 648.547851562 864 c 128,-1,52
 668.047851562 825 668.047851562 825 701.047851562 802 c 128,-1,53
 734.047851562 779 734.047851562 779 782.047851562 779 c 0,34,35
EndSplineSet
EndChar

StartChar: colon
Encoding: 58 58 30
Width: 1331
GlyphClass: 1
Flags: W
LayerCount: 2
Fore
SplineSet
496.200195312 187 m 256,0,1
 503.200195312 229 503.200195312 229 526.200195312 266 c 128,-1,2
 549.200195312 303 549.200195312 303 581.700195312 330.5 c 128,-1,3
 614.200195312 358 614.200195312 358 653.200195312 374 c 128,-1,4
 692.200195312 390 692.200195312 390 734.200195312 390 c 256,5,6
 776.200195312 390 776.200195312 390 810.200195312 374 c 128,-1,7
 844.200195312 358 844.200195312 358 867.200195312 330.5 c 128,-1,8
 890.200195312 303 890.200195312 303 899.200195312 266 c 128,-1,9
 908.200195312 229 908.200195312 229 901.200195312 187 c 256,10,11
 894.200195312 145 894.200195312 145 871.700195312 108 c 128,-1,12
 849.200195312 71 849.200195312 71 816.700195312 43 c 128,-1,13
 784.200195312 15 784.200195312 15 745.200195312 -1 c 128,-1,14
 706.200195312 -17 706.200195312 -17 664.200195312 -17 c 256,15,16
 622.200195312 -17 622.200195312 -17 587.700195312 -1 c 128,-1,17
 553.200195312 15 553.200195312 15 530.700195312 43 c 128,-1,18
 508.200195312 71 508.200195312 71 498.700195312 108 c 128,-1,19
 489.200195312 145 489.200195312 145 496.200195312 187 c 256,0,1
589.200195312 717 m 256,20,21
 596.200195312 759 596.200195312 759 619.200195312 796 c 128,-1,22
 642.200195312 833 642.200195312 833 674.700195312 860.5 c 128,-1,23
 707.200195312 888 707.200195312 888 746.200195312 904 c 128,-1,24
 785.200195312 920 785.200195312 920 827.200195312 920 c 256,25,26
 869.200195312 920 869.200195312 920 903.700195312 904 c 128,-1,27
 938.200195312 888 938.200195312 888 960.700195312 860.5 c 128,-1,28
 983.200195312 833 983.200195312 833 992.200195312 796 c 128,-1,29
 1001.20019531 759 1001.20019531 759 994.200195312 717 c 256,30,31
 987.200195312 675 987.200195312 675 964.700195312 637.5 c 128,-1,32
 942.200195312 600 942.200195312 600 910.200195312 572.5 c 128,-1,33
 878.200195312 545 878.200195312 545 838.700195312 528.5 c 128,-1,34
 799.200195312 512 799.200195312 512 757.200195312 512 c 256,35,36
 715.200195312 512 715.200195312 512 681.200195312 528.5 c 128,-1,37
 647.200195312 545 647.200195312 545 624.200195312 572.5 c 128,-1,38
 601.200195312 600 601.200195312 600 591.700195312 637.5 c 128,-1,39
 582.200195312 675 582.200195312 675 589.200195312 717 c 256,20,21
EndSplineSet
EndChar

StartChar: semicolon
Encoding: 59 59 31
Width: 1331
GlyphClass: 1
Flags: W
LayerCount: 2
Fore
SplineSet
511.426757812 160 m 0,0,1
 517.426757812 196 517.426757812 196 537.426757812 228 c 128,-1,2
 557.426757812 260 557.426757812 260 586.426757812 283.5 c 128,-1,3
 615.426757812 307 615.426757812 307 651.926757812 322 c 128,-1,4
 688.426757812 337 688.426757812 337 725.426757812 337 c 0,5,6
 761.426757812 337 761.426757812 337 790.926757812 324 c 128,-1,7
 820.426757812 311 820.426757812 311 841.926757812 286.5 c 128,-1,8
 863.426757812 262 863.426757812 262 871.926757812 224 c 128,-1,9
 880.426757812 186 880.426757812 186 871.426757812 139 c 0,10,11
 860.426757812 73 860.426757812 73 841.426757812 12.5 c 128,-1,12
 822.426757812 -48 822.426757812 -48 786.426757812 -110.5 c 128,-1,13
 750.426757812 -173 750.426757812 -173 691.926757812 -238 c 128,-1,14
 633.426757812 -303 633.426757812 -303 544.426757812 -374 c 1,15,-1
 486.426757812 -345 l 1,16,17
 523.426757812 -291 523.426757812 -291 556.426757812 -233 c 0,18,19
 584.426757812 -185 584.426757812 -185 608.926757812 -128.5 c 128,-1,20
 633.426757812 -72 633.426757812 -72 644.426757812 -17 c 1,21,22
 613.426757812 -16 613.426757812 -16 585.926757812 -4 c 128,-1,23
 558.426757812 8 558.426757812 8 538.926757812 29.5 c 128,-1,24
 519.426757812 51 519.426757812 51 511.926757812 84.5 c 128,-1,25
 504.426757812 118 504.426757812 118 511.426757812 160 c 0,0,1
589.426757812 717 m 256,26,27
 596.426757812 759 596.426757812 759 619.426757812 796 c 128,-1,28
 642.426757812 833 642.426757812 833 674.426757812 860.5 c 128,-1,29
 706.426757812 888 706.426757812 888 745.926757812 904 c 128,-1,30
 785.426757812 920 785.426757812 920 827.426757812 920 c 256,31,32
 869.426757812 920 869.426757812 920 903.426757812 904 c 128,-1,33
 937.426757812 888 937.426757812 888 960.426757812 860.5 c 128,-1,34
 983.426757812 833 983.426757812 833 992.426757812 796 c 128,-1,35
 1001.42675781 759 1001.42675781 759 994.426757812 717 c 256,36,37
 987.426757812 675 987.426757812 675 964.926757812 637.5 c 128,-1,38
 942.426757812 600 942.426757812 600 909.926757812 572.5 c 128,-1,39
 877.426757812 545 877.426757812 545 838.426757812 528.5 c 128,-1,40
 799.426757812 512 799.426757812 512 757.426757812 512 c 256,41,42
 715.426757812 512 715.426757812 512 680.926757812 528.5 c 128,-1,43
 646.426757812 545 646.426757812 545 623.926757812 572.5 c 128,-1,44
 601.426757812 600 601.426757812 600 591.926757812 637.5 c 128,-1,45
 582.426757812 675 582.426757812 675 589.426757812 717 c 256,26,27
EndSplineSet
EndChar

StartChar: less
Encoding: 60 60 32
Width: 1331
GlyphClass: 1
Flags: W
LayerCount: 2
Fore
SplineSet
1411.26757812 1308 m 1,0,-1
 1363.26757812 1033 l 1,1,-1
 616.267578125 670 l 1,2,-1
 1235.26757812 309 l 1,3,-1
 1187.26757812 35 l 1,4,-1
 248.267578125 558 l 1,5,-1
 289.267578125 788 l 1,6,-1
 1411.26757812 1308 l 1,0,-1
EndSplineSet
EndChar

StartChar: equal
Encoding: 61 61 33
Width: 1331
GlyphClass: 1
Flags: W
LayerCount: 2
Fore
SplineSet
400.104492188 918 m 5,0,-1
 1219.10449219 918 l 5,1,-1
 1180.10449219 694 l 5,2,-1
 360.104492188 694 l 5,3,-1
 400.104492188 918 l 5,0,-1
329.104492188 443 m 5,4,-1
 1148.10449219 443 l 5,5,-1
 1108.10449219 218 l 5,6,-1
 289.104492188 218 l 5,7,-1
 329.104492188 443 l 5,4,-1
EndSplineSet
EndChar

StartChar: greater
Encoding: 62 62 34
Width: 1331
GlyphClass: 1
Flags: W
LayerCount: 2
Fore
SplineSet
1320.37890625 788 m 1,0,-1
 1279.37890625 558 l 1,1,-1
 156.37890625 35 l 1,2,-1
 204.37890625 309 l 1,3,-1
 951.37890625 670 l 1,4,-1
 332.37890625 1033 l 1,5,-1
 380.37890625 1309 l 1,6,-1
 1320.37890625 788 l 1,0,-1
EndSplineSet
EndChar

StartChar: question
Encoding: 63 63 35
Width: 1331
GlyphClass: 1
Flags: W
LayerCount: 2
Fore
SplineSet
1382.41210938 1151 m 0,0,1
 1371.41210938 1090 1371.41210938 1090 1342.41210938 1039 c 128,-1,2
 1313.41210938 988 1313.41210938 988 1272.41210938 944 c 128,-1,3
 1231.41210938 900 1231.41210938 900 1181.91210938 861 c 128,-1,4
 1132.41210938 822 1132.41210938 822 1080.41210938 783 c 0,5,6
 1045.41210938 757 1045.41210938 757 1010.41210938 725 c 128,-1,7
 975.412109375 693 975.412109375 693 944.412109375 652 c 128,-1,8
 913.412109375 611 913.412109375 611 888.912109375 560 c 128,-1,9
 864.412109375 509 864.412109375 509 853.412109375 444 c 1,10,-1
 529.412109375 409 l 1,11,12
 545.412109375 498 545.412109375 498 571.912109375 575.5 c 128,-1,13
 598.412109375 653 598.412109375 653 639.912109375 722 c 128,-1,14
 681.412109375 791 681.412109375 791 740.412109375 850.5 c 128,-1,15
 799.412109375 910 799.412109375 910 881.412109375 965 c 0,16,17
 908.412109375 984 908.412109375 984 933.412109375 1004.5 c 128,-1,18
 958.412109375 1025 958.412109375 1025 978.912109375 1048 c 128,-1,19
 999.412109375 1071 999.412109375 1071 1013.91210938 1098 c 128,-1,20
 1028.41210938 1125 1028.41210938 1125 1034.41210938 1159 c 0,21,22
 1041.41210938 1200 1041.41210938 1200 1031.91210938 1229 c 128,-1,23
 1022.41210938 1258 1022.41210938 1258 1000.41210938 1277 c 128,-1,24
 978.412109375 1296 978.412109375 1296 947.412109375 1305 c 128,-1,25
 916.412109375 1314 916.412109375 1314 881.412109375 1314 c 0,26,27
 854.412109375 1314 854.412109375 1314 814.412109375 1305 c 128,-1,28
 774.412109375 1296 774.412109375 1296 727.912109375 1276 c 128,-1,29
 681.412109375 1256 681.412109375 1256 632.412109375 1223.5 c 128,-1,30
 583.412109375 1191 583.412109375 1191 539.412109375 1144 c 1,31,-1
 380.412109375 1298 l 1,32,33
 452.412109375 1376 452.412109375 1376 527.412109375 1426 c 128,-1,34
 602.412109375 1476 602.412109375 1476 676.412109375 1504 c 128,-1,35
 750.412109375 1532 750.412109375 1532 819.412109375 1542.5 c 128,-1,36
 888.412109375 1553 888.412109375 1553 948.412109375 1553 c 0,37,38
 1045.41210938 1553 1045.41210938 1553 1132.41210938 1529 c 128,-1,39
 1219.41210938 1505 1219.41210938 1505 1280.91210938 1455.5 c 128,-1,40
 1342.41210938 1406 1342.41210938 1406 1371.41210938 1330 c 128,-1,41
 1400.41210938 1254 1400.41210938 1254 1382.41210938 1151 c 0,0,1
488.412109375 153 m 0,42,43
 494.412109375 188 494.412109375 188 512.412109375 218 c 128,-1,44
 530.412109375 248 530.412109375 248 557.412109375 271 c 128,-1,45
 584.412109375 294 584.412109375 294 616.412109375 307.5 c 128,-1,46
 648.412109375 321 648.412109375 321 683.412109375 321 c 256,47,48
 718.412109375 321 718.412109375 321 746.412109375 307.5 c 128,-1,49
 774.412109375 294 774.412109375 294 793.412109375 271 c 128,-1,50
 812.412109375 248 812.412109375 248 820.412109375 217.5 c 128,-1,51
 828.412109375 187 828.412109375 187 821.412109375 153 c 0,52,53
 815.412109375 119 815.412109375 119 796.912109375 87.5 c 128,-1,54
 778.412109375 56 778.412109375 56 751.912109375 33 c 128,-1,55
 725.412109375 10 725.412109375 10 692.912109375 -3.5 c 128,-1,56
 660.412109375 -17 660.412109375 -17 625.412109375 -17 c 0,57,58
 591.412109375 -17 591.412109375 -17 562.912109375 -3.5 c 128,-1,59
 534.412109375 10 534.412109375 10 515.412109375 33 c 128,-1,60
 496.412109375 56 496.412109375 56 489.412109375 87.5 c 128,-1,61
 482.412109375 119 482.412109375 119 488.412109375 153 c 0,42,43
EndSplineSet
EndChar

StartChar: at
Encoding: 64 64 36
Width: 1331
GlyphClass: 1
Flags: W
LayerCount: 2
Fore
SplineSet
849.5859375 651 m 1,0,-1
 906.5859375 793 l 1,1,2
 881.5859375 787 881.5859375 787 848.0859375 768.5 c 128,-1,3
 814.5859375 750 814.5859375 750 779.5859375 712.5 c 128,-1,4
 744.5859375 675 744.5859375 675 711.5859375 615.5 c 128,-1,5
 678.5859375 556 678.5859375 556 655.5859375 468 c 0,6,7
 635.5859375 390 635.5859375 390 628.5859375 337 c 128,-1,8
 621.5859375 284 621.5859375 284 625.0859375 250 c 128,-1,9
 628.5859375 216 628.5859375 216 641.0859375 198.5 c 128,-1,10
 653.5859375 181 653.5859375 181 669.5859375 175.5 c 128,-1,11
 685.5859375 170 685.5859375 170 703.5859375 173.5 c 128,-1,12
 721.5859375 177 721.5859375 177 738.5859375 185 c 1,13,-1
 849.5859375 651 l 1,0,-1
1181.5859375 584 m 0,14,15
 1197.5859375 668 1197.5859375 668 1207.0859375 752 c 128,-1,16
 1216.5859375 836 1216.5859375 836 1216.0859375 913 c 128,-1,17
 1215.5859375 990 1215.5859375 990 1203.0859375 1056 c 128,-1,18
 1190.5859375 1122 1190.5859375 1122 1164.5859375 1171.5 c 128,-1,19
 1138.5859375 1221 1138.5859375 1221 1096.0859375 1249 c 128,-1,20
 1053.5859375 1277 1053.5859375 1277 993.5859375 1277 c 0,21,22
 932.5859375 1277 932.5859375 1277 869.0859375 1253 c 128,-1,23
 805.5859375 1229 805.5859375 1229 745.5859375 1187.5 c 128,-1,24
 685.5859375 1146 685.5859375 1146 630.0859375 1089 c 128,-1,25
 574.5859375 1032 574.5859375 1032 528.5859375 967 c 128,-1,26
 482.5859375 902 482.5859375 902 447.0859375 831 c 128,-1,27
 411.5859375 760 411.5859375 760 392.5859375 689 c 0,28,29
 366.5859375 598 366.5859375 598 350.0859375 498.5 c 128,-1,30
 333.5859375 399 333.5859375 399 330.5859375 304 c 128,-1,31
 327.5859375 209 327.5859375 209 340.5859375 123.5 c 128,-1,32
 353.5859375 38 353.5859375 38 386.5859375 -26 c 128,-1,33
 419.5859375 -90 419.5859375 -90 476.0859375 -128 c 128,-1,34
 532.5859375 -166 532.5859375 -166 615.5859375 -166 c 0,35,36
 630.5859375 -166 630.5859375 -166 658.0859375 -160.5 c 128,-1,37
 685.5859375 -155 685.5859375 -155 716.5859375 -143 c 128,-1,38
 747.5859375 -131 747.5859375 -131 781.0859375 -112.5 c 128,-1,39
 814.5859375 -94 814.5859375 -94 843.5859375 -68 c 1,40,-1
 776.5859375 -321 l 1,41,42
 760.5859375 -338 760.5859375 -338 732.0859375 -351.5 c 128,-1,43
 703.5859375 -365 703.5859375 -365 673.0859375 -373.5 c 128,-1,44
 642.5859375 -382 642.5859375 -382 613.0859375 -386.5 c 128,-1,45
 583.5859375 -391 583.5859375 -391 565.5859375 -391 c 0,46,47
 454.5859375 -391 454.5859375 -391 373.5859375 -348.5 c 128,-1,48
 292.5859375 -306 292.5859375 -306 237.5859375 -234 c 128,-1,49
 182.5859375 -162 182.5859375 -162 151.0859375 -66 c 128,-1,50
 119.5859375 30 119.5859375 30 107.5859375 135.5 c 128,-1,51
 95.5859375 241 95.5859375 241 100.0859375 350.5 c 128,-1,52
 104.5859375 460 104.5859375 460 121.5859375 560 c 0,53,54
 144.5859375 689 144.5859375 689 189.0859375 809 c 128,-1,55
 233.5859375 929 233.5859375 929 296.5859375 1033 c 128,-1,56
 359.5859375 1137 359.5859375 1137 439.0859375 1222 c 128,-1,57
 518.5859375 1307 518.5859375 1307 610.5859375 1367.5 c 128,-1,58
 702.5859375 1428 702.5859375 1428 806.0859375 1461.5 c 128,-1,59
 909.5859375 1495 909.5859375 1495 1019.5859375 1495 c 0,60,61
 1122.5859375 1495 1122.5859375 1495 1198.0859375 1458 c 128,-1,62
 1273.5859375 1421 1273.5859375 1421 1324.5859375 1355 c 128,-1,63
 1375.5859375 1289 1375.5859375 1289 1403.5859375 1198.5 c 128,-1,64
 1431.5859375 1108 1431.5859375 1108 1439.0859375 1001 c 128,-1,65
 1446.5859375 894 1446.5859375 894 1436.5859375 774 c 128,-1,66
 1426.5859375 654 1426.5859375 654 1400.5859375 531 c 0,67,68
 1369.5859375 384 1369.5859375 384 1321.0859375 277.5 c 128,-1,69
 1272.5859375 171 1272.5859375 171 1206.5859375 102 c 128,-1,70
 1140.5859375 33 1140.5859375 33 1057.5859375 0 c 128,-1,71
 974.5859375 -33 974.5859375 -33 875.5859375 -33 c 0,72,73
 849.5859375 -33 849.5859375 -33 828.0859375 -25 c 128,-1,74
 806.5859375 -17 806.5859375 -17 789.5859375 -4.5 c 128,-1,75
 772.5859375 8 772.5859375 8 759.5859375 24.5 c 128,-1,76
 746.5859375 41 746.5859375 41 740.5859375 58 c 1,77,-1
 672.5859375 -17 l 1,78,79
 620.5859375 -17 620.5859375 -17 572.0859375 -3 c 128,-1,80
 523.5859375 11 523.5859375 11 487.5859375 51 c 128,-1,81
 451.5859375 91 451.5859375 91 433.5859375 162.5 c 128,-1,82
 415.5859375 234 415.5859375 234 426.5859375 348 c 0,83,84
 436.5859375 458 436.5859375 458 466.5859375 549.5 c 128,-1,85
 496.5859375 641 496.5859375 641 540.5859375 714 c 128,-1,86
 584.5859375 787 584.5859375 787 638.0859375 841.5 c 128,-1,87
 691.5859375 896 691.5859375 896 747.5859375 932.5 c 128,-1,88
 803.5859375 969 803.5859375 969 858.5859375 987 c 128,-1,89
 913.5859375 1005 913.5859375 1005 960.5859375 1005 c 0,90,91
 1021.5859375 1005 1021.5859375 1005 1063.0859375 996.5 c 128,-1,92
 1104.5859375 988 1104.5859375 988 1129.5859375 975 c 1,93,-1
 959.5859375 255 l 2,94,95
 951.5859375 215 951.5859375 215 952.0859375 194 c 128,-1,96
 952.5859375 173 952.5859375 173 975.5859375 173 c 0,97,98
 992.5859375 173 992.5859375 173 1020.0859375 200.5 c 128,-1,99
 1047.5859375 228 1047.5859375 228 1077.0859375 281 c 128,-1,100
 1106.5859375 334 1106.5859375 334 1135.0859375 410.5 c 128,-1,101
 1163.5859375 487 1163.5859375 487 1181.5859375 584 c 0,14,15
EndSplineSet
EndChar

StartChar: A
Encoding: 65 65 37
Width: 1331
GlyphClass: 1
Flags: W
LayerCount: 2
Fore
SplineSet
51.5 0 m 1,0,-1
 646.5 1315 l 1,1,-1
 711.5 1536 l 1,2,-1
 1113.5 1556 l 1,3,-1
 1279.5 0 l 1,4,-1
 937.5 0 l 1,5,-1
 908.5 437 l 1,6,-1
 558.5 437 l 1,7,-1
 376.5 0 l 1,8,-1
 51.5 0 l 1,0,-1
898.5 1363 m 1,9,-1
 796.5 1014 l 1,10,-1
 657.5 662 l 1,11,-1
 886.5 662 l 1,12,-1
 875.5 1014 l 1,13,-1
 898.5 1363 l 1,9,-1
EndSplineSet
EndChar

StartChar: B
Encoding: 66 66 38
Width: 1331
GlyphClass: 1
Flags: W
LayerCount: 2
Fore
SplineSet
712.033203125 1157 m 1,0,-1
 670.033203125 922 l 1,1,-1
 699.033203125 922 l 2,2,3
 747.033203125 922 747.033203125 922 798.033203125 935 c 128,-1,4
 849.033203125 948 849.033203125 948 893.533203125 976.5 c 128,-1,5
 938.033203125 1005 938.033203125 1005 970.533203125 1049 c 128,-1,6
 1003.03320312 1093 1003.03320312 1093 1014.03320312 1155 c 0,7,8
 1024.03320312 1211 1024.03320312 1211 1006.53320312 1247 c 128,-1,9
 989.033203125 1283 989.033203125 1283 956.033203125 1302.5 c 128,-1,10
 923.033203125 1322 923.033203125 1322 879.533203125 1329 c 128,-1,11
 836.033203125 1336 836.033203125 1336 794.033203125 1336 c 0,12,13
 780.033203125 1336 780.033203125 1336 761.033203125 1335 c 128,-1,14
 742.033203125 1334 742.033203125 1334 726.033203125 1332 c 1,15,-1
 712.033203125 1157 l 1,0,-1
150.033203125 0 m 1,16,-1
 376.033203125 1292 l 1,17,-1
 376.033203125 1525 l 1,18,19
 421.033203125 1531 421.033203125 1531 475.033203125 1536 c 128,-1,20
 529.033203125 1541 529.033203125 1541 583.533203125 1545 c 128,-1,21
 638.033203125 1549 638.033203125 1549 686.533203125 1551 c 128,-1,22
 735.033203125 1553 735.033203125 1553 769.033203125 1553 c 0,23,24
 892.033203125 1553 892.033203125 1553 1002.03320312 1535 c 128,-1,25
 1112.03320312 1517 1112.03320312 1517 1191.53320312 1471.5 c 128,-1,26
 1271.03320312 1426 1271.03320312 1426 1309.53320312 1351.5 c 128,-1,27
 1348.03320312 1277 1348.03320312 1277 1328.03320312 1165 c 256,28,29
 1309.03320312 1053 1309.03320312 1053 1242.03320312 972.5 c 128,-1,30
 1175.03320312 892 1175.03320312 892 1062.03320312 846 c 1,31,32
 1124.03320312 823 1124.03320312 823 1175.03320312 788.5 c 128,-1,33
 1226.03320312 754 1226.03320312 754 1259.03320312 706 c 128,-1,34
 1292.03320312 658 1292.03320312 658 1305.03320312 598 c 128,-1,35
 1318.03320312 538 1318.03320312 538 1306.03320312 466 c 0,36,37
 1281.03320312 331 1281.03320312 331 1223.53320312 241.5 c 128,-1,38
 1166.03320312 152 1166.03320312 152 1079.03320312 98 c 128,-1,39
 992.033203125 44 992.033203125 44 877.533203125 22 c 128,-1,40
 763.033203125 0 763.033203125 0 625.033203125 0 c 2,41,-1
 150.033203125 0 l 1,16,-1
549.033203125 233 m 1,42,-1
 607.033203125 233 l 2,43,44
 684.033203125 233 684.033203125 233 746.533203125 245 c 128,-1,45
 809.033203125 257 809.033203125 257 855.033203125 285.5 c 128,-1,46
 901.033203125 314 901.033203125 314 931.533203125 360.5 c 128,-1,47
 962.033203125 407 962.033203125 407 974.033203125 476 c 0,48,49
 985.033203125 543 985.033203125 543 971.533203125 587.5 c 128,-1,50
 958.033203125 632 958.033203125 632 925.033203125 659 c 128,-1,51
 892.033203125 686 892.033203125 686 842.033203125 698 c 128,-1,52
 792.033203125 710 792.033203125 710 730.033203125 710 c 2,53,-1
 633.033203125 710 l 1,54,-1
 549.033203125 233 l 1,42,-1
EndSplineSet
EndChar

StartChar: C
Encoding: 67 67 39
Width: 1331
GlyphClass: 1
Flags: W
LayerCount: 2
Fore
SplineSet
1262.69921875 136 m 1,0,1
 1144.69921875 53 1144.69921875 53 1023.19921875 18 c 128,-1,2
 901.69921875 -17 901.69921875 -17 768.69921875 -17 c 0,3,4
 663.69921875 -17 663.69921875 -17 576.69921875 12 c 128,-1,5
 489.69921875 41 489.69921875 41 423.69921875 93.5 c 128,-1,6
 357.69921875 146 357.69921875 146 311.69921875 220 c 128,-1,7
 265.69921875 294 265.69921875 294 241.69921875 383 c 128,-1,8
 217.69921875 472 217.69921875 472 214.69921875 575 c 128,-1,9
 211.69921875 678 211.69921875 678 230.69921875 787 c 0,10,11
 248.69921875 890 248.69921875 890 277.69921875 987 c 128,-1,12
 306.69921875 1084 306.69921875 1084 350.69921875 1169 c 128,-1,13
 394.69921875 1254 394.69921875 1254 456.69921875 1325 c 128,-1,14
 518.69921875 1396 518.69921875 1396 603.69921875 1446.5 c 128,-1,15
 688.69921875 1497 688.69921875 1497 799.19921875 1525 c 128,-1,16
 909.69921875 1553 909.69921875 1553 1049.69921875 1553 c 0,17,18
 1115.69921875 1553 1115.69921875 1553 1177.69921875 1541.5 c 128,-1,19
 1239.69921875 1530 1239.69921875 1530 1294.69921875 1507.5 c 128,-1,20
 1349.69921875 1485 1349.69921875 1485 1397.19921875 1452 c 128,-1,21
 1444.69921875 1419 1444.69921875 1419 1481.69921875 1376 c 1,22,-1
 1296.69921875 1188 l 1,23,24
 1266.69921875 1211 1266.69921875 1211 1233.19921875 1231 c 128,-1,25
 1199.69921875 1251 1199.69921875 1251 1164.19921875 1266.5 c 128,-1,26
 1128.69921875 1282 1128.69921875 1282 1092.69921875 1291 c 128,-1,27
 1056.69921875 1300 1056.69921875 1300 1021.69921875 1300 c 0,28,29
 924.69921875 1300 924.69921875 1300 851.69921875 1260.5 c 128,-1,30
 778.69921875 1221 778.69921875 1221 727.19921875 1151.5 c 128,-1,31
 675.69921875 1082 675.69921875 1082 641.69921875 989 c 128,-1,32
 607.69921875 896 607.69921875 896 589.69921875 791 c 0,33,34
 578.69921875 729 578.69921875 729 575.69921875 663.5 c 128,-1,35
 572.69921875 598 572.69921875 598 580.19921875 536.5 c 128,-1,36
 587.69921875 475 587.69921875 475 605.69921875 421 c 128,-1,37
 623.69921875 367 623.69921875 367 655.19921875 326.5 c 128,-1,38
 686.69921875 286 686.69921875 286 732.19921875 262.5 c 128,-1,39
 777.69921875 239 777.69921875 239 837.69921875 239 c 0,40,41
 872.69921875 239 872.69921875 239 907.69921875 244.5 c 128,-1,42
 942.69921875 250 942.69921875 250 982.69921875 262.5 c 128,-1,43
 1022.69921875 275 1022.69921875 275 1070.19921875 296 c 128,-1,44
 1117.69921875 317 1117.69921875 317 1177.69921875 348 c 1,45,-1
 1262.69921875 136 l 1,0,1
EndSplineSet
EndChar

StartChar: D
Encoding: 68 68 40
Width: 1331
GlyphClass: 1
Flags: W
LayerCount: 2
Fore
SplineSet
336.241210938 1536 m 1,0,1
 387.241210938 1541 387.241210938 1541 445.741210938 1544 c 128,-1,2
 504.241210938 1547 504.241210938 1547 560.741210938 1549 c 128,-1,3
 617.241210938 1551 617.241210938 1551 667.241210938 1552 c 128,-1,4
 717.241210938 1553 717.241210938 1553 751.241210938 1553 c 0,5,6
 846.241210938 1553 846.241210938 1553 938.741210938 1535.5 c 128,-1,7
 1031.24121094 1518 1031.24121094 1518 1111.74121094 1479.5 c 128,-1,8
 1192.24121094 1441 1192.24121094 1441 1257.74121094 1382.5 c 128,-1,9
 1323.24121094 1324 1323.24121094 1324 1364.74121094 1243 c 128,-1,10
 1406.24121094 1162 1406.24121094 1162 1419.74121094 1058 c 128,-1,11
 1433.24121094 954 1433.24121094 954 1411.24121094 826 c 0,12,13
 1372.24121094 603 1372.24121094 603 1298.74121094 446 c 128,-1,14
 1225.24121094 289 1225.24121094 289 1111.24121094 190 c 128,-1,15
 997.241210938 91 997.241210938 91 838.241210938 45.5 c 128,-1,16
 679.241210938 0 679.241210938 0 469.241210938 0 c 2,17,-1
 110.241210938 0 l 1,18,-1
 336.241210938 1292 l 1,19,-1
 336.241210938 1536 l 1,0,1
670.241210938 1148 m 1,20,-1
 514.241210938 256 l 1,21,22
 622.241210938 256 622.241210938 256 701.241210938 282 c 128,-1,23
 780.241210938 308 780.241210938 308 837.741210938 351.5 c 128,-1,24
 895.241210938 395 895.241210938 395 933.241210938 451.5 c 128,-1,25
 971.241210938 508 971.241210938 508 995.741210938 568 c 128,-1,26
 1020.24121094 628 1020.24121094 628 1033.74121094 687 c 128,-1,27
 1047.24121094 746 1047.24121094 746 1056.24121094 797 c 0,28,29
 1076.24121094 912 1076.24121094 912 1075.24121094 1007 c 128,-1,30
 1074.24121094 1102 1074.24121094 1102 1037.24121094 1170.5 c 128,-1,31
 1000.24121094 1239 1000.24121094 1239 919.741210938 1276.5 c 128,-1,32
 839.241210938 1314 839.241210938 1314 701.241210938 1314 c 0,33,34
 698.241210938 1314 698.241210938 1314 694.741210938 1313.5 c 128,-1,35
 691.241210938 1313 691.241210938 1313 687.241210938 1313 c 2,36,-1
 678.241210938 1313 l 1,37,-1
 670.241210938 1148 l 1,20,-1
EndSplineSet
EndChar

StartChar: E
Encoding: 69 69 41
Width: 1331
GlyphClass: 1
Flags: W
LayerCount: 2
Fore
SplineSet
1224.4609375 233 m 1,0,-1
 1155.4609375 0 l 1,1,-1
 172.4609375 0 l 1,2,-1
 231.4609375 237 l 1,3,-1
 418.4609375 1293 l 1,4,-1
 418.4609375 1536 l 1,5,-1
 1416.4609375 1536 l 1,6,-1
 1375.4609375 1303 l 1,7,-1
 764.4609375 1303 l 1,8,-1
 754.4609375 1161 l 1,9,-1
 715.4609375 938 l 1,10,-1
 1243.4609375 938 l 1,11,-1
 1204.4609375 720 l 1,12,-1
 676.4609375 720 l 1,13,-1
 614.4609375 369 l 1,14,-1
 582.4609375 233 l 1,15,-1
 1224.4609375 233 l 1,0,-1
EndSplineSet
EndChar

StartChar: F
Encoding: 70 70 42
Width: 1331
GlyphClass: 1
Flags: W
LayerCount: 2
Fore
SplineSet
550.837890625 0 m 1,0,-1
 191.837890625 0 l 1,1,-1
 419.837890625 1293 l 1,2,-1
 419.837890625 1536 l 1,3,-1
 1452.83789062 1536 l 1,4,-1
 1384.83789062 1303 l 1,5,-1
 765.837890625 1303 l 1,6,-1
 755.837890625 1161 l 1,7,-1
 716.837890625 938 l 1,8,-1
 1241.83789062 938 l 1,9,-1
 1202.83789062 720 l 1,10,-1
 677.837890625 720 l 1,11,-1
 550.837890625 0 l 1,0,-1
EndSplineSet
EndChar

StartChar: G
Encoding: 71 71 43
Width: 1331
GlyphClass: 1
Flags: W
LayerCount: 2
Fore
SplineSet
1323.30957031 226 m 1,0,1
 1268.30957031 175 1268.30957031 175 1202.80957031 130.5 c 128,-1,2
 1137.30957031 86 1137.30957031 86 1062.30957031 53 c 128,-1,3
 987.309570312 20 987.309570312 20 902.809570312 1.5 c 128,-1,4
 818.309570312 -17 818.309570312 -17 724.309570312 -17 c 0,5,6
 565.309570312 -17 565.309570312 -17 450.809570312 47 c 128,-1,7
 336.309570312 111 336.309570312 111 267.809570312 220.5 c 128,-1,8
 199.309570312 330 199.309570312 330 178.309570312 476.5 c 128,-1,9
 157.309570312 623 157.309570312 623 186.309570312 787 c 0,10,11
 214.309570312 942 214.309570312 942 280.809570312 1081.5 c 128,-1,12
 347.309570312 1221 347.309570312 1221 452.309570312 1326 c 128,-1,13
 557.309570312 1431 557.309570312 1431 700.809570312 1492 c 128,-1,14
 844.309570312 1553 844.309570312 1553 1024.30957031 1553 c 0,15,16
 1156.30957031 1553 1156.30957031 1553 1268.30957031 1507.5 c 128,-1,17
 1380.30957031 1462 1380.30957031 1462 1455.30957031 1376 c 1,18,-1
 1273.30957031 1198 l 1,19,20
 1243.30957031 1221 1243.30957031 1221 1209.30957031 1241.5 c 128,-1,21
 1175.30957031 1262 1175.30957031 1262 1140.30957031 1277 c 128,-1,22
 1105.30957031 1292 1105.30957031 1292 1068.80957031 1301.5 c 128,-1,23
 1032.30957031 1311 1032.30957031 1311 996.309570312 1311 c 0,24,25
 899.309570312 1311 899.309570312 1311 823.809570312 1269.5 c 128,-1,26
 748.309570312 1228 748.309570312 1228 693.309570312 1156.5 c 128,-1,27
 638.309570312 1085 638.309570312 1085 601.309570312 990.5 c 128,-1,28
 564.309570312 896 564.309570312 896 546.309570312 791 c 0,29,30
 535.309570312 729 535.309570312 729 532.309570312 662.5 c 128,-1,31
 529.309570312 596 529.309570312 596 535.809570312 533 c 128,-1,32
 542.309570312 470 542.309570312 470 560.809570312 414.5 c 128,-1,33
 579.309570312 359 579.309570312 359 610.809570312 317 c 128,-1,34
 642.309570312 275 642.309570312 275 686.809570312 250.5 c 128,-1,35
 731.309570312 226 731.309570312 226 792.309570312 226 c 0,36,37
 818.309570312 226 818.309570312 226 846.309570312 232.5 c 128,-1,38
 874.309570312 239 874.309570312 239 901.309570312 248.5 c 128,-1,39
 928.309570312 258 928.309570312 258 952.809570312 270.5 c 128,-1,40
 977.309570312 283 977.309570312 283 995.309570312 296 c 1,41,-1
 1054.30957031 631 l 1,42,-1
 756.309570312 650 l 1,43,-1
 793.309570312 860 l 1,44,-1
 1434.30957031 860 l 1,45,-1
 1323.30957031 226 l 1,0,1
EndSplineSet
EndChar

StartChar: H
Encoding: 72 72 44
Width: 1331
GlyphClass: 1
Flags: W
LayerCount: 2
Fore
SplineSet
848.1015625 0 m 1,0,-1
 973.1015625 705 l 1,1,-1
 649.1015625 705 l 1,2,-1
 525.1015625 0 l 1,3,-1
 170.1015625 0 l 1,4,-1
 398.1015625 1293 l 1,5,-1
 398.1015625 1536 l 1,6,-1
 800.1015625 1556 l 1,7,-1
 690.1015625 938 l 1,8,-1
 1014.1015625 938 l 1,9,-1
 1119.1015625 1536 l 1,10,-1
 1478.1015625 1556 l 1,11,-1
 1202.1015625 0 l 1,12,-1
 848.1015625 0 l 1,0,-1
EndSplineSet
EndChar

StartChar: I
Encoding: 73 73 45
Width: 1331
GlyphClass: 1
Flags: W
LayerCount: 2
Fore
SplineSet
489.918945312 1536 m 1,0,-1
 1388.91894531 1536 l 1,1,-1
 1347.91894531 1303 l 1,2,-1
 1068.91894531 1303 l 1,3,-1
 878.918945312 233 l 1,4,-1
 1187.91894531 233 l 1,5,-1
 1110.91894531 0 l 1,6,-1
 211.918945312 0 l 1,7,-1
 252.918945312 233 l 1,8,-1
 536.918945312 233 l 1,9,-1
 726.918945312 1303 l 1,10,-1
 413.918945312 1303 l 1,11,-1
 489.918945312 1536 l 1,0,-1
EndSplineSet
EndChar

StartChar: J
Encoding: 74 74 46
Width: 1331
GlyphClass: 1
Flags: W
LayerCount: 2
Fore
SplineSet
638.9921875 1536 m 1,0,-1
 1429.9921875 1536 l 1,1,-1
 1238.9921875 457 l 2,2,3
 1222.9921875 361 1222.9921875 361 1178.4921875 278.5 c 128,-1,4
 1133.9921875 196 1133.9921875 196 1061.9921875 124 c 0,5,6
 1027.9921875 90 1027.9921875 90 983.4921875 64 c 128,-1,7
 938.9921875 38 938.9921875 38 886.4921875 20 c 128,-1,8
 833.9921875 2 833.9921875 2 775.4921875 -7.5 c 128,-1,9
 716.9921875 -17 716.9921875 -17 657.9921875 -17 c 0,10,11
 558.9921875 -17 558.9921875 -17 486.4921875 0.5 c 128,-1,12
 413.9921875 18 413.9921875 18 361.9921875 49 c 128,-1,13
 309.9921875 80 309.9921875 80 273.4921875 120 c 128,-1,14
 236.9921875 160 236.9921875 160 207.9921875 205 c 1,15,-1
 401.9921875 410 l 1,16,17
 413.9921875 392 413.9921875 392 433.9921875 364.5 c 128,-1,18
 453.9921875 337 453.9921875 337 484.9921875 312 c 128,-1,19
 515.9921875 287 515.9921875 287 562.4921875 268.5 c 128,-1,20
 608.9921875 250 608.9921875 250 672.9921875 250 c 0,21,22
 703.9921875 250 703.9921875 250 735.9921875 259.5 c 128,-1,23
 767.9921875 269 767.9921875 269 796.9921875 292.5 c 128,-1,24
 825.9921875 316 825.9921875 316 847.9921875 355.5 c 128,-1,25
 869.9921875 395 869.9921875 395 879.9921875 455 c 2,26,-1
 1003.9921875 1159 l 1,27,-1
 1048.9921875 1296 l 1,28,-1
 617.9921875 1296 l 1,29,-1
 638.9921875 1536 l 1,0,-1
EndSplineSet
EndChar

StartChar: K
Encoding: 75 75 47
Width: 1331
GlyphClass: 1
Flags: W
LayerCount: 2
Fore
SplineSet
108.418945312 0 m 1,0,-1
 336.418945312 1293 l 1,1,-1
 336.418945312 1536 l 1,2,-1
 742.418945312 1556 l 1,3,-1
 654.418945312 1060 l 1,4,-1
 1046.41894531 1536 l 1,5,-1
 1423.41894531 1536 l 1,6,-1
 896.418945312 922 l 1,7,-1
 640.418945312 819 l 1,8,-1
 853.418945312 733 l 1,9,-1
 1265.41894531 0 l 1,10,-1
 876.418945312 0 l 1,11,-1
 565.418945312 553 l 1,12,-1
 467.418945312 0 l 1,13,-1
 108.418945312 0 l 1,0,-1
EndSplineSet
EndChar

StartChar: L
Encoding: 76 76 48
Width: 1331
GlyphClass: 1
Flags: W
LayerCount: 2
Fore
SplineSet
548.9609375 233 m 1,0,-1
 1255.9609375 233 l 1,1,-1
 1185.9609375 0 l 1,2,-1
 135.9609375 0 l 1,3,-1
 200.9609375 238 l 1,4,-1
 386.9609375 1293 l 1,5,-1
 386.9609375 1536 l 1,6,-1
 790.9609375 1556 l 1,7,-1
 580.9609375 369 l 1,8,-1
 548.9609375 233 l 1,0,-1
EndSplineSet
EndChar

StartChar: M
Encoding: 77 77 49
Width: 1331
GlyphClass: 1
Flags: W
LayerCount: 2
Fore
SplineSet
891.1015625 0 m 1,0,-1
 973.1015625 460 l 1,1,-1
 1218.1015625 1229 l 1,2,-1
 1208.1015625 1229 l 1,3,-1
 977.1015625 717 l 1,4,-1
 867.1015625 486 l 1,5,-1
 671.1015625 486 l 1,6,-1
 645.1015625 717 l 1,7,-1
 593.1015625 1229 l 1,8,-1
 583.1015625 1229 l 1,9,-1
 563.1015625 460 l 1,10,-1
 481.1015625 0 l 1,11,-1
 162.1015625 0 l 1,12,-1
 389.1015625 1293 l 1,13,-1
 389.1015625 1536 l 1,14,-1
 722.1015625 1556 l 1,15,-1
 817.1015625 1105 l 1,16,-1
 814.1015625 819 l 1,17,-1
 899.1015625 1108 l 1,18,-1
 1149.1015625 1536 l 1,19,-1
 1487.1015625 1556 l 1,20,-1
 1212.1015625 0 l 1,21,-1
 891.1015625 0 l 1,0,-1
EndSplineSet
EndChar

StartChar: N
Encoding: 78 78 50
Width: 1331
GlyphClass: 1
Flags: W
LayerCount: 2
Fore
SplineSet
915.1015625 0 m 1,0,-1
 612.1015625 973 l 1,1,-1
 601.1015625 973 l 1,2,-1
 611.1015625 665 l 1,3,-1
 493.1015625 0 l 1,4,-1
 163.1015625 0 l 1,5,-1
 390.1015625 1293 l 1,6,-1
 390.1015625 1536 l 1,7,-1
 738.1015625 1556 l 1,8,-1
 1040.1015625 614 l 1,9,-1
 1050.1015625 614 l 1,10,-1
 1036.1015625 872 l 1,11,-1
 1152.1015625 1536 l 1,12,-1
 1486.1015625 1556 l 1,13,-1
 1211.1015625 0 l 1,14,-1
 915.1015625 0 l 1,0,-1
EndSplineSet
EndChar

StartChar: O
Encoding: 79 79 51
Width: 1331
GlyphClass: 1
Flags: W
LayerCount: 2
Fore
SplineSet
661.943359375 -17 m 0,0,1
 561.943359375 -17 561.943359375 -17 482.443359375 11 c 128,-1,2
 402.943359375 39 402.943359375 39 344.443359375 90.5 c 128,-1,3
 285.943359375 142 285.943359375 142 246.943359375 214 c 128,-1,4
 207.943359375 286 207.943359375 286 188.443359375 373.5 c 128,-1,5
 168.943359375 461 168.943359375 461 168.943359375 560.5 c 128,-1,6
 168.943359375 660 168.943359375 660 187.943359375 768 c 0,7,8
 205.943359375 876 205.943359375 876 240.943359375 975.5 c 128,-1,9
 275.943359375 1075 275.943359375 1075 325.443359375 1162.5 c 128,-1,10
 374.943359375 1250 374.943359375 1250 438.443359375 1322 c 128,-1,11
 501.943359375 1394 501.943359375 1394 578.443359375 1445.5 c 128,-1,12
 654.943359375 1497 654.943359375 1497 745.443359375 1525 c 128,-1,13
 835.943359375 1553 835.943359375 1553 939.943359375 1553 c 0,14,15
 1090.94335938 1553 1090.94335938 1553 1193.94335938 1490.5 c 128,-1,16
 1296.94335938 1428 1296.94335938 1428 1355.44335938 1321.5 c 128,-1,17
 1413.94335938 1215 1413.94335938 1215 1428.44335938 1072 c 128,-1,18
 1442.94335938 929 1442.94335938 929 1413.94335938 768 c 0,19,20
 1394.94335938 660 1394.94335938 660 1360.44335938 560.5 c 128,-1,21
 1325.94335938 461 1325.94335938 461 1276.94335938 373.5 c 128,-1,22
 1227.94335938 286 1227.94335938 286 1164.44335938 214 c 128,-1,23
 1100.94335938 142 1100.94335938 142 1023.44335938 90.5 c 128,-1,24
 945.943359375 39 945.943359375 39 854.943359375 11 c 128,-1,25
 763.943359375 -17 763.943359375 -17 661.943359375 -17 c 0,0,1
1048.94335938 738 m 0,26,27
 1059.94335938 801 1059.94335938 801 1068.44335938 868 c 128,-1,28
 1076.94335938 935 1076.94335938 935 1078.44335938 998 c 128,-1,29
 1079.94335938 1061 1079.94335938 1061 1071.94335938 1116.5 c 128,-1,30
 1063.94335938 1172 1063.94335938 1172 1042.44335938 1213.5 c 128,-1,31
 1020.94335938 1255 1020.94335938 1255 983.943359375 1280 c 128,-1,32
 946.943359375 1305 946.943359375 1305 889.943359375 1305 c 0,33,34
 836.943359375 1305 836.943359375 1305 793.443359375 1283 c 128,-1,35
 749.943359375 1261 749.943359375 1261 715.943359375 1223.5 c 128,-1,36
 681.943359375 1186 681.943359375 1186 655.943359375 1136 c 128,-1,37
 629.943359375 1086 629.943359375 1086 609.943359375 1030.5 c 128,-1,38
 589.943359375 975 589.943359375 975 575.443359375 916 c 128,-1,39
 560.943359375 857 560.943359375 857 551.943359375 802 c 0,40,41
 540.943359375 737 540.943359375 737 532.443359375 670 c 128,-1,42
 523.943359375 603 523.943359375 603 522.943359375 539.5 c 128,-1,43
 521.943359375 476 521.943359375 476 529.943359375 420.5 c 128,-1,44
 537.943359375 365 537.943359375 365 559.443359375 323 c 128,-1,45
 580.943359375 281 580.943359375 281 617.943359375 256 c 128,-1,46
 654.943359375 231 654.943359375 231 710.943359375 231 c 0,47,48
 789.943359375 231 789.943359375 231 847.443359375 279.5 c 128,-1,49
 904.943359375 328 904.943359375 328 944.943359375 402.5 c 128,-1,50
 984.943359375 477 984.943359375 477 1009.94335938 566 c 128,-1,51
 1034.94335938 655 1034.94335938 655 1048.94335938 738 c 0,26,27
EndSplineSet
EndChar

StartChar: P
Encoding: 80 80 52
Width: 1331
GlyphClass: 1
Flags: W
LayerCount: 2
Fore
SplineSet
489.421875 0 m 1,0,-1
 149.421875 0 l 1,1,-1
 376.421875 1292 l 1,2,-1
 376.421875 1520 l 1,3,4
 423.421875 1527 423.421875 1527 479.421875 1533.5 c 128,-1,5
 535.421875 1540 535.421875 1540 590.921875 1544 c 128,-1,6
 646.421875 1548 646.421875 1548 698.421875 1550.5 c 128,-1,7
 750.421875 1553 750.421875 1553 789.421875 1553 c 0,8,9
 950.421875 1553 950.421875 1553 1072.921875 1518.5 c 128,-1,10
 1195.421875 1484 1195.421875 1484 1275.921875 1422 c 128,-1,11
 1356.421875 1360 1356.421875 1360 1392.421875 1274 c 128,-1,12
 1428.421875 1188 1428.421875 1188 1413.421875 1086 c 0,13,14
 1395.421875 951 1395.421875 951 1334.421875 859.5 c 128,-1,15
 1273.421875 768 1273.421875 768 1170.421875 711 c 128,-1,16
 1067.421875 654 1067.421875 654 923.421875 627.5 c 128,-1,17
 779.421875 601 779.421875 601 594.421875 597 c 1,18,-1
 489.421875 0 l 1,0,-1
690.421875 1148 m 1,19,-1
 635.421875 833 l 1,20,21
 743.421875 837 743.421875 837 821.421875 852.5 c 128,-1,22
 899.421875 868 899.421875 868 953.421875 899.5 c 128,-1,23
 1007.421875 931 1007.421875 931 1038.421875 981 c 128,-1,24
 1069.421875 1031 1069.421875 1031 1083.421875 1104 c 0,25,26
 1092.421875 1159 1092.421875 1159 1069.421875 1200.5 c 128,-1,27
 1046.421875 1242 1046.421875 1242 1003.421875 1269 c 128,-1,28
 960.421875 1296 960.421875 1296 904.421875 1309.5 c 128,-1,29
 848.421875 1323 848.421875 1323 793.421875 1323 c 2,30,-1
 768.421875 1323 l 2,31,32
 758.421875 1323 758.421875 1323 749.421875 1322.5 c 128,-1,33
 740.421875 1322 740.421875 1322 729.421875 1321.5 c 128,-1,34
 718.421875 1321 718.421875 1321 705.421875 1320 c 1,35,-1
 690.421875 1148 l 1,19,-1
EndSplineSet
EndChar

StartChar: Q
Encoding: 81 81 53
Width: 1331
GlyphClass: 1
Flags: W
LayerCount: 2
Fore
SplineSet
1197.171875 -184 m 1,0,1
 1099.171875 -184 1099.171875 -184 1027.671875 -173.5 c 128,-1,2
 956.171875 -163 956.171875 -163 903.171875 -132 c 128,-1,3
 850.171875 -101 850.171875 -101 810.171875 -45 c 128,-1,4
 770.171875 11 770.171875 11 735.171875 102 c 1,5,-1
 716.171875 -11 l 1,6,7
 689.171875 -14 689.171875 -14 664.671875 -15.5 c 128,-1,8
 640.171875 -17 640.171875 -17 614.171875 -17 c 0,9,10
 521.171875 -17 521.171875 -17 448.671875 12.5 c 128,-1,11
 376.171875 42 376.171875 42 322.671875 95 c 128,-1,12
 269.171875 148 269.171875 148 234.671875 221.5 c 128,-1,13
 200.171875 295 200.171875 295 184.171875 382.5 c 128,-1,14
 168.171875 470 168.171875 470 169.671875 568 c 128,-1,15
 171.171875 666 171.171875 666 188.171875 768 c 0,16,17
 206.171875 876 206.171875 876 241.171875 975.5 c 128,-1,18
 276.171875 1075 276.171875 1075 325.671875 1162.5 c 128,-1,19
 375.171875 1250 375.171875 1250 438.671875 1322 c 128,-1,20
 502.171875 1394 502.171875 1394 578.671875 1445.5 c 128,-1,21
 655.171875 1497 655.171875 1497 745.671875 1525 c 128,-1,22
 836.171875 1553 836.171875 1553 940.171875 1553 c 0,23,24
 1091.171875 1553 1091.171875 1553 1194.671875 1496 c 128,-1,25
 1298.171875 1439 1298.171875 1439 1357.671875 1338 c 128,-1,26
 1417.171875 1237 1417.171875 1237 1432.671875 1099 c 128,-1,27
 1448.171875 961 1448.171875 961 1419.171875 799 c 0,28,29
 1403.171875 705 1403.171875 705 1369.171875 607 c 128,-1,30
 1335.171875 509 1335.171875 509 1286.671875 420 c 128,-1,31
 1238.171875 331 1238.171875 331 1175.171875 255.5 c 128,-1,32
 1112.171875 180 1112.171875 180 1037.171875 130 c 1,33,34
 1050.171875 99 1050.171875 99 1072.671875 83 c 128,-1,35
 1095.171875 67 1095.171875 67 1122.671875 60 c 128,-1,36
 1150.171875 53 1150.171875 53 1180.171875 52 c 128,-1,37
 1210.171875 51 1210.171875 51 1238.171875 51 c 1,38,-1
 1197.171875 -184 l 1,0,1
545.171875 802 m 0,39,40
 536.171875 741 536.171875 741 526.671875 675.5 c 128,-1,41
 517.171875 610 517.171875 610 513.671875 548 c 128,-1,42
 510.171875 486 510.171875 486 515.171875 431 c 128,-1,43
 520.171875 376 520.171875 376 539.671875 334.5 c 128,-1,44
 559.171875 293 559.171875 293 595.671875 269 c 128,-1,45
 632.171875 245 632.171875 245 691.171875 245 c 1,46,47
 683.171875 269 683.171875 269 670.671875 306 c 128,-1,48
 658.171875 343 658.171875 343 645.671875 383 c 128,-1,49
 633.171875 423 633.171875 423 620.171875 458 c 2,50,-1
 603.171875 512 l 1,51,-1
 854.171875 615 l 1,52,-1
 953.171875 307 l 1,53,-1
 989.171875 512 l 1,54,55
 1007.171875 561 1007.171875 561 1028.171875 624 c 128,-1,56
 1049.171875 687 1049.171875 687 1064.171875 769 c 0,57,58
 1075.171875 832 1075.171875 832 1081.671875 897 c 128,-1,59
 1088.171875 962 1088.171875 962 1086.671875 1021.5 c 128,-1,60
 1085.171875 1081 1085.171875 1081 1074.671875 1134 c 128,-1,61
 1064.171875 1187 1064.171875 1187 1041.171875 1226 c 128,-1,62
 1018.171875 1265 1018.171875 1265 981.171875 1287.5 c 128,-1,63
 944.171875 1310 944.171875 1310 891.171875 1310 c 0,64,65
 841.171875 1310 841.171875 1310 798.171875 1288 c 128,-1,66
 755.171875 1266 755.171875 1266 720.171875 1228 c 128,-1,67
 685.171875 1190 685.171875 1190 657.171875 1139.5 c 128,-1,68
 629.171875 1089 629.171875 1089 607.671875 1032.5 c 128,-1,69
 586.171875 976 586.171875 976 570.171875 916.5 c 128,-1,70
 554.171875 857 554.171875 857 545.171875 802 c 0,39,40
EndSplineSet
EndChar

StartChar: R
Encoding: 82 82 54
Width: 1331
GlyphClass: 1
Flags: W
LayerCount: 2
Fore
SplineSet
576.861328125 614 m 1,0,-1
 467.861328125 0 l 1,1,-1
 135.861328125 0 l 1,2,-1
 362.861328125 1292 l 1,3,-1
 362.861328125 1524 l 1,4,-1
 458.861328125 1534 l 2,5,6
 509.861328125 1540 509.861328125 1540 561.361328125 1544 c 128,-1,7
 612.861328125 1548 612.861328125 1548 662.861328125 1550.5 c 128,-1,8
 712.861328125 1553 712.861328125 1553 757.861328125 1553 c 0,9,10
 887.861328125 1553 887.861328125 1553 998.361328125 1521 c 128,-1,11
 1108.86132812 1489 1108.86132812 1489 1185.86132812 1428 c 128,-1,12
 1262.86132812 1367 1262.86132812 1367 1298.86132812 1280.5 c 128,-1,13
 1334.86132812 1194 1334.86132812 1194 1314.86132812 1086 c 0,14,15
 1299.86132812 995 1299.86132812 995 1258.86132812 923 c 128,-1,16
 1217.86132812 851 1217.86132812 851 1156.36132812 795.5 c 128,-1,17
 1094.86132812 740 1094.86132812 740 1014.36132812 701.5 c 128,-1,18
 933.861328125 663 933.861328125 663 837.861328125 639 c 1,19,-1
 927.861328125 614 l 1,20,-1
 1236.86132812 0 l 1,21,-1
 863.861328125 0 l 1,22,-1
 576.861328125 614 l 1,0,-1
669.861328125 1148 m 1,23,-1
 612.861328125 819 l 1,24,-1
 648.861328125 819 l 2,25,26
 718.861328125 819 718.861328125 819 776.861328125 841 c 128,-1,27
 834.861328125 863 834.861328125 863 878.361328125 900.5 c 128,-1,28
 921.861328125 938 921.861328125 938 949.361328125 987.5 c 128,-1,29
 976.861328125 1037 976.861328125 1037 985.861328125 1092 c 0,30,31
 997.861328125 1164 997.861328125 1164 979.861328125 1209.5 c 128,-1,32
 961.861328125 1255 961.861328125 1255 924.361328125 1281.5 c 128,-1,33
 886.861328125 1308 886.861328125 1308 838.361328125 1317.5 c 128,-1,34
 789.861328125 1327 789.861328125 1327 742.861328125 1327 c 0,35,36
 726.861328125 1327 726.861328125 1327 712.361328125 1326.5 c 128,-1,37
 697.861328125 1326 697.861328125 1326 684.861328125 1325 c 1,38,-1
 669.861328125 1148 l 1,23,-1
EndSplineSet
EndChar

StartChar: S
Encoding: 83 83 55
Width: 1331
GlyphClass: 1
Flags: W
LayerCount: 2
Fore
SplineSet
1200.38085938 1206 m 1,0,1
 1157.38085938 1234 1157.38085938 1234 1122.88085938 1252.5 c 128,-1,2
 1088.38085938 1271 1088.38085938 1271 1057.38085938 1282.5 c 128,-1,3
 1026.38085938 1294 1026.38085938 1294 998.380859375 1299.5 c 128,-1,4
 970.380859375 1305 970.380859375 1305 941.380859375 1305 c 0,5,6
 903.380859375 1305 903.380859375 1305 864.880859375 1297.5 c 128,-1,7
 826.380859375 1290 826.380859375 1290 793.880859375 1272.5 c 128,-1,8
 761.380859375 1255 761.380859375 1255 737.380859375 1226 c 128,-1,9
 713.380859375 1197 713.380859375 1197 706.380859375 1152 c 0,10,11
 698.380859375 1110 698.380859375 1110 713.880859375 1080 c 128,-1,12
 729.380859375 1050 729.380859375 1050 759.380859375 1026 c 128,-1,13
 789.380859375 1002 789.380859375 1002 829.380859375 983 c 128,-1,14
 869.380859375 964 869.380859375 964 911.380859375 943 c 0,15,16
 1006.38085938 897 1006.38085938 897 1079.38085938 845.5 c 128,-1,17
 1152.38085938 794 1152.38085938 794 1197.88085938 731 c 128,-1,18
 1243.38085938 668 1243.38085938 668 1259.88085938 588.5 c 128,-1,19
 1276.38085938 509 1276.38085938 509 1257.38085938 408 c 0,20,21
 1237.38085938 289 1237.38085938 289 1173.88085938 208 c 128,-1,22
 1110.38085938 127 1110.38085938 127 1020.38085938 77 c 128,-1,23
 930.380859375 27 930.380859375 27 820.880859375 5 c 128,-1,24
 711.380859375 -17 711.380859375 -17 598.380859375 -17 c 0,25,26
 533.380859375 -17 533.380859375 -17 476.380859375 -8 c 128,-1,27
 419.380859375 1 419.380859375 1 366.880859375 19 c 128,-1,28
 314.380859375 37 314.380859375 37 265.380859375 63.5 c 128,-1,29
 216.380859375 90 216.380859375 90 167.380859375 124 c 1,30,-1
 349.380859375 356 l 1,31,32
 374.380859375 338 374.380859375 338 408.380859375 319.5 c 128,-1,33
 442.380859375 301 442.380859375 301 481.380859375 285.5 c 128,-1,34
 520.380859375 270 520.380859375 270 561.880859375 261 c 128,-1,35
 603.380859375 252 603.380859375 252 642.380859375 252 c 0,36,37
 687.380859375 252 687.380859375 252 732.880859375 260 c 128,-1,38
 778.380859375 268 778.380859375 268 816.880859375 289 c 128,-1,39
 855.380859375 310 855.380859375 310 882.880859375 346.5 c 128,-1,40
 910.380859375 383 910.380859375 383 921.380859375 440 c 0,41,42
 931.380859375 495 931.380859375 495 913.380859375 535 c 128,-1,43
 895.380859375 575 895.380859375 575 859.880859375 605.5 c 128,-1,44
 824.380859375 636 824.380859375 636 777.380859375 660.5 c 128,-1,45
 730.380859375 685 730.380859375 685 682.380859375 710 c 0,46,47
 614.380859375 745 614.380859375 745 553.380859375 789 c 128,-1,48
 492.380859375 833 492.380859375 833 448.880859375 887 c 128,-1,49
 405.380859375 941 405.380859375 941 384.380859375 1007.5 c 128,-1,50
 363.380859375 1074 363.380859375 1074 377.380859375 1154 c 0,51,52
 395.380859375 1257 395.380859375 1257 451.880859375 1332.5 c 128,-1,53
 508.380859375 1408 508.380859375 1408 588.880859375 1457 c 128,-1,54
 669.380859375 1506 669.380859375 1506 765.880859375 1529.5 c 128,-1,55
 862.380859375 1553 862.380859375 1553 961.380859375 1553 c 0,56,57
 1081.38085938 1553 1081.38085938 1553 1184.88085938 1515.5 c 128,-1,58
 1288.38085938 1478 1288.38085938 1478 1389.38085938 1402 c 1,59,-1
 1200.38085938 1206 l 1,0,1
EndSplineSet
EndChar

StartChar: T
Encoding: 84 84 56
Width: 1331
GlyphClass: 1
Flags: W
LayerCount: 2
Fore
SplineSet
496.795898438 0 m 1,0,-1
 726.795898438 1303 l 1,1,-1
 314.795898438 1303 l 1,2,-1
 355.795898438 1536 l 1,3,-1
 1516.79589844 1536 l 1,4,-1
 1475.79589844 1303 l 1,5,-1
 1067.79589844 1303 l 1,6,-1
 837.795898438 0 l 1,7,-1
 496.795898438 0 l 1,0,-1
EndSplineSet
EndChar

StartChar: U
Encoding: 85 85 57
Width: 1331
GlyphClass: 1
Flags: W
LayerCount: 2
Fore
SplineSet
1486.64453125 1536 m 1,0,-1
 1312.64453125 547 l 2,1,2
 1287.64453125 405 1287.64453125 405 1231.14453125 299 c 128,-1,3
 1174.64453125 193 1174.64453125 193 1090.64453125 122.5 c 128,-1,4
 1006.64453125 52 1006.64453125 52 897.64453125 17.5 c 128,-1,5
 788.64453125 -17 788.64453125 -17 659.64453125 -17 c 0,6,7
 520.64453125 -17 520.64453125 -17 431.64453125 27 c 128,-1,8
 342.64453125 71 342.64453125 71 297.14453125 151.5 c 128,-1,9
 251.64453125 232 251.64453125 232 245.14453125 345.5 c 128,-1,10
 238.64453125 459 238.64453125 459 263.64453125 596 c 2,11,-1
 385.64453125 1293 l 1,12,-1
 385.64453125 1536 l 1,13,-1
 772.64453125 1556 l 1,14,-1
 598.64453125 578 l 2,15,16
 584.64453125 495 584.64453125 495 579.64453125 429.5 c 128,-1,17
 574.64453125 364 574.64453125 364 586.14453125 318.5 c 128,-1,18
 597.64453125 273 597.64453125 273 630.64453125 249.5 c 128,-1,19
 663.64453125 226 663.64453125 226 723.64453125 226 c 0,20,21
 816.64453125 226 816.64453125 226 880.14453125 301.5 c 128,-1,22
 943.64453125 377 943.64453125 377 969.64453125 528 c 2,23,-1
 1146.64453125 1536 l 1,24,-1
 1486.64453125 1536 l 1,0,-1
EndSplineSet
EndChar

StartChar: V
Encoding: 86 86 58
Width: 1331
GlyphClass: 1
Flags: W
LayerCount: 2
Fore
SplineSet
1584.83789062 1536 m 1,0,-1
 926.837890625 205 l 1,1,-1
 859.837890625 -17 l 1,2,-1
 501.837890625 0 l 1,3,-1
 287.837890625 1536 l 1,4,-1
 621.837890625 1556 l 1,5,-1
 732.837890625 717 l 1,6,-1
 707.837890625 266 l 1,7,-1
 858.837890625 717 l 1,8,-1
 1256.83789062 1536 l 1,9,-1
 1584.83789062 1536 l 1,0,-1
EndSplineSet
EndChar

StartChar: W
Encoding: 87 87 59
Width: 1331
GlyphClass: 1
Flags: W
LayerCount: 2
Fore
SplineSet
593.837890625 1556 m 1,0,-1
 607.837890625 982 l 1,1,-1
 503.837890625 410 l 1,2,-1
 513.837890625 410 l 1,3,-1
 622.837890625 718 l 1,4,-1
 729.837890625 1024 l 1,5,-1
 960.837890625 1024 l 1,6,-1
 964.837890625 718 l 1,7,-1
 963.837890625 410 l 1,8,-1
 974.837890625 410 l 1,9,-1
 1072.83789062 980 l 1,10,-1
 1275.83789062 1536 l 1,11,-1
 1573.83789062 1536 l 1,12,-1
 1027.83789062 0 l 1,13,-1
 768.837890625 0 l 1,14,-1
 760.837890625 307 l 1,15,-1
 782.837890625 666 l 1,16,-1
 677.837890625 307 l 1,17,-1
 559.837890625 0 l 1,18,-1
 297.837890625 0 l 1,19,-1
 298.837890625 1536 l 1,20,-1
 593.837890625 1556 l 1,0,-1
EndSplineSet
EndChar

StartChar: X
Encoding: 88 88 60
Width: 1331
GlyphClass: 1
Flags: W
LayerCount: 2
Fore
SplineSet
920.418945312 0 m 1,0,-1
 700.418945312 628 l 1,1,-1
 659.418945312 437 l 1,2,-1
 403.418945312 0 l 1,3,-1
 74.4189453125 0 l 1,4,-1
 608.418945312 844 l 1,5,-1
 333.418945312 1536 l 1,6,-1
 673.418945312 1556 l 1,7,-1
 858.418945312 1075 l 1,8,-1
 911.418945312 1261 l 1,9,-1
 1080.41894531 1536 l 1,10,-1
 1374.41894531 1536 l 1,11,-1
 943.418945312 876 l 1,12,-1
 1268.41894531 0 l 1,13,-1
 920.418945312 0 l 1,0,-1
EndSplineSet
EndChar

StartChar: Y
Encoding: 89 89 61
Width: 1331
GlyphClass: 1
Flags: W
LayerCount: 2
Fore
SplineSet
794.337890625 1170 m 1,0,-1
 837.337890625 792 l 1,1,-1
 963.337890625 1170 l 1,2,-1
 1214.33789062 1536 l 1,3,-1
 1557.33789062 1536 l 1,4,-1
 960.337890625 666 l 1,5,-1
 843.337890625 0 l 1,6,-1
 483.337890625 0 l 1,7,-1
 601.337890625 666 l 1,8,-1
 315.337890625 1536 l 1,9,-1
 666.337890625 1556 l 1,10,-1
 794.337890625 1170 l 1,0,-1
EndSplineSet
EndChar

StartChar: Z
Encoding: 90 90 62
Width: 1331
GlyphClass: 1
Flags: W
LayerCount: 2
Fore
SplineSet
1227.2578125 233 m 1,0,-1
 1214.2578125 0 l 1,1,-1
 150.2578125 0 l 1,2,-1
 132.2578125 88 l 1,3,-1
 884.2578125 1215 l 1,4,-1
 1045.2578125 1331 l 1,5,-1
 907.2578125 1303 l 1,6,-1
 438.2578125 1303 l 1,7,-1
 451.2578125 1536 l 1,8,-1
 1387.2578125 1536 l 1,9,-1
 1419.2578125 1477 l 1,10,-1
 655.2578125 322 l 1,11,-1
 497.2578125 205 l 1,12,-1
 638.2578125 233 l 1,13,-1
 1227.2578125 233 l 1,0,-1
EndSplineSet
EndChar

StartChar: bracketleft
Encoding: 91 91 63
Width: 1331
GlyphClass: 1
Flags: W
LayerCount: 2
Fore
SplineSet
566.711914062 1319 m 1,0,-1
 581.711914062 1556 l 1,1,-1
 1430.71191406 1556 l 1,2,-1
 1390.71191406 1333 l 1,3,-1
 900.711914062 1333 l 1,4,-1
 889.711914062 1182 l 1,5,-1
 675.711914062 -32 l 1,6,-1
 633.711914062 -183 l 1,7,-1
 1123.71191406 -183 l 5,8,-1
 1083.71191406 -408 l 5,9,-1
 234.711914062 -408 l 1,10,-1
 303.711914062 -170 l 1,11,-1
 566.711914062 1319 l 1,0,-1
EndSplineSet
EndChar

StartChar: backslash
Encoding: 92 92 64
Width: 1331
GlyphClass: 1
Flags: W
LayerCount: 2
Fore
SplineSet
427.918945312 1638 m 1,0,-1
 757.918945312 1638 l 1,1,-1
 1173.91894531 -102 l 1,2,-1
 832.918945312 -102 l 1,3,-1
 427.918945312 1638 l 1,0,-1
EndSplineSet
EndChar

StartChar: bracketright
Encoding: 93 93 65
Width: 1331
GlyphClass: 1
Flags: W
LayerCount: 2
Fore
SplineSet
967.548828125 -170 m 1,0,-1
 951.548828125 -408 l 1,1,-1
 103.548828125 -408 l 5,2,-1
 142.548828125 -183 l 5,3,-1
 632.548828125 -183 l 1,4,-1
 643.548828125 -32 l 1,5,-1
 857.548828125 1182 l 1,6,-1
 899.548828125 1333 l 1,7,-1
 410.548828125 1333 l 1,8,-1
 450.548828125 1556 l 1,9,-1
 1298.54882812 1556 l 1,10,-1
 1230.54882812 1319 l 1,11,-1
 967.548828125 -170 l 1,0,-1
EndSplineSet
EndChar

StartChar: asciicircum
Encoding: 94 94 66
Width: 1331
GlyphClass: 1
Flags: W
LayerCount: 2
Fore
SplineSet
1436.078125 887 m 1,0,-1
 1129.078125 887 l 1,1,-1
 882.078125 1229 l 1,2,-1
 514.078125 889 l 1,3,-1
 208.078125 889 l 1,4,-1
 817.078125 1536 l 1,5,-1
 1034.078125 1556 l 1,6,-1
 1436.078125 887 l 1,0,-1
EndSplineSet
EndChar

StartChar: underscore
Encoding: 95 95 67
Width: 1331
GlyphClass: 1
Flags: W
LayerCount: 2
Fore
SplineSet
66.341796875 -205 m 1,0,-1
 1192.34179688 -205 l 1,1,-1
 1146.34179688 -466 l 1,2,-1
 20.341796875 -466 l 1,3,-1
 66.341796875 -205 l 1,0,-1
EndSplineSet
EndChar

StartChar: grave
Encoding: 96 96 68
Width: 1331
GlyphClass: 1
Flags: W
LayerCount: 2
Fore
SplineSet
1170.53515625 1163 m 5,0,-1
 950.53515625 1163 l 5,1,-1
 684.53515625 1556 l 1,2,-1
 1025.53515625 1536 l 1,3,-1
 1170.53515625 1163 l 5,0,-1
EndSplineSet
EndChar

StartChar: a
Encoding: 97 97 69
Width: 1331
GlyphClass: 1
Flags: W
LayerCount: 2
Fore
SplineSet
978.450195312 906 m 1,0,1
 958.450195312 909 958.450195312 909 940.950195312 911 c 128,-1,2
 923.450195312 913 923.450195312 913 916.450195312 914 c 0,3,4
 839.450195312 914 839.450195312 914 780.450195312 882.5 c 128,-1,5
 721.450195312 851 721.450195312 851 679.450195312 797.5 c 128,-1,6
 637.450195312 744 637.450195312 744 612.450195312 673 c 128,-1,7
 587.450195312 602 587.450195312 602 579.450195312 522 c 0,8,9
 573.450195312 460 573.450195312 460 575.950195312 404 c 128,-1,10
 578.450195312 348 578.450195312 348 589.450195312 305.5 c 128,-1,11
 600.450195312 263 600.450195312 263 621.450195312 238.5 c 128,-1,12
 642.450195312 214 642.450195312 214 672.450195312 214 c 0,13,14
 707.450195312 214 707.450195312 214 738.450195312 226 c 128,-1,15
 769.450195312 238 769.450195312 238 796.950195312 256 c 128,-1,16
 824.450195312 274 824.450195312 274 845.450195312 295.5 c 128,-1,17
 866.450195312 317 866.450195312 317 881.450195312 337 c 1,18,-1
 978.450195312 906 l 1,0,1
614.450195312 -16 m 0,19,20
 535.450195312 -15 535.450195312 -15 476.950195312 9 c 128,-1,21
 418.450195312 33 418.450195312 33 376.950195312 74 c 128,-1,22
 335.450195312 115 335.450195312 115 310.450195312 169.5 c 128,-1,23
 285.450195312 224 285.450195312 224 273.450195312 287 c 128,-1,24
 261.450195312 350 261.450195312 350 260.950195312 418.5 c 128,-1,25
 260.450195312 487 260.450195312 487 270.450195312 555 c 0,26,27
 279.450195312 629 279.450195312 629 303.950195312 701.5 c 128,-1,28
 328.450195312 774 328.450195312 774 368.950195312 839.5 c 128,-1,29
 409.450195312 905 409.450195312 905 464.950195312 961 c 128,-1,30
 520.450195312 1017 520.450195312 1017 592.950195312 1057.5 c 128,-1,31
 665.450195312 1098 665.450195312 1098 754.950195312 1121 c 128,-1,32
 844.450195312 1144 844.450195312 1144 951.450195312 1144 c 0,33,34
 1013.45019531 1143 1013.45019531 1143 1076.45019531 1135 c 0,35,36
 1131.45019531 1128 1131.45019531 1128 1196.45019531 1112.5 c 128,-1,37
 1261.45019531 1097 1261.45019531 1097 1320.45019531 1068 c 1,38,-1
 1174.45019531 214 l 1,39,-1
 1159.45019531 0 l 1,40,-1
 830.450195312 0 l 1,41,-1
 858.450195312 166 l 1,42,-1
 700.450195312 -10 l 1,43,44
 689.450195312 -12 689.450195312 -12 670.950195312 -14.5 c 128,-1,45
 652.450195312 -17 652.450195312 -17 614.450195312 -16 c 0,19,20
EndSplineSet
EndChar

StartChar: b
Encoding: 98 98 70
Width: 1331
GlyphClass: 1
Flags: W
LayerCount: 2
Fore
SplineSet
550.014648438 217 m 1,0,1
 580.014648438 212 580.014648438 212 612.514648438 208.5 c 128,-1,2
 645.014648438 205 645.014648438 205 676.014648438 205 c 0,3,4
 741.014648438 205 741.014648438 205 789.014648438 243.5 c 128,-1,5
 837.014648438 282 837.014648438 282 871.514648438 341.5 c 128,-1,6
 906.014648438 401 906.014648438 401 928.514648438 473.5 c 128,-1,7
 951.014648438 546 951.014648438 546 963.014648438 612 c 0,8,9
 978.014648438 696 978.014648438 696 976.514648438 755 c 128,-1,10
 975.014648438 814 975.014648438 814 961.014648438 851 c 128,-1,11
 947.014648438 888 947.014648438 888 923.014648438 905 c 128,-1,12
 899.014648438 922 899.014648438 922 870.014648438 922 c 0,13,14
 808.014648438 922 808.014648438 922 757.514648438 900.5 c 128,-1,15
 707.014648438 879 707.014648438 879 662.014648438 846 c 1,16,-1
 550.014648438 217 l 1,0,1
430.014648438 1432 m 1,17,-1
 430.014648438 1639 l 1,18,-1
 807.014648438 1671 l 1,19,-1
 688.014648438 997 l 1,20,-1
 809.014648438 1122 l 1,21,22
 841.014648438 1130 841.014648438 1130 875.014648438 1137 c 128,-1,23
 909.014648438 1144 909.014648438 1144 938.014648438 1144 c 0,24,25
 1032.01464844 1144 1032.01464844 1144 1108.51464844 1108.5 c 128,-1,26
 1185.01464844 1073 1185.01464844 1073 1234.51464844 1005 c 128,-1,27
 1284.01464844 937 1284.01464844 937 1302.01464844 836.5 c 128,-1,28
 1320.01464844 736 1320.01464844 736 1297.01464844 607 c 0,29,30
 1272.01464844 467 1272.01464844 467 1210.01464844 352 c 128,-1,31
 1148.01464844 237 1148.01464844 237 1059.01464844 155 c 128,-1,32
 970.014648438 73 970.014648438 73 859.514648438 28 c 128,-1,33
 749.014648438 -17 749.014648438 -17 628.014648438 -17 c 0,34,35
 562.014648438 -17 562.014648438 -17 496.014648438 -10.5 c 128,-1,36
 430.014648438 -4 430.014648438 -4 371.014648438 6 c 128,-1,37
 312.014648438 16 312.014648438 16 264.014648438 29.5 c 128,-1,38
 216.014648438 43 216.014648438 43 187.014648438 55 c 1,39,-1
 430.014648438 1432 l 1,17,-1
EndSplineSet
EndChar

StartChar: c
Encoding: 99 99 71
Width: 1331
GlyphClass: 1
Flags: W
LayerCount: 2
Fore
SplineSet
1163.48730469 791 m 1,0,1
 1125.48730469 853 1125.48730469 853 1070.48730469 879.5 c 128,-1,2
 1015.48730469 906 1015.48730469 906 936.487304688 906 c 0,3,4
 874.487304688 906 874.487304688 906 811.987304688 882 c 128,-1,5
 749.487304688 858 749.487304688 858 697.987304688 814 c 128,-1,6
 646.487304688 770 646.487304688 770 608.987304688 707 c 128,-1,7
 571.487304688 644 571.487304688 644 558.487304688 566 c 0,8,9
 546.487304688 495 546.487304688 495 562.987304688 435.5 c 128,-1,10
 579.487304688 376 579.487304688 376 616.987304688 333 c 128,-1,11
 654.487304688 290 654.487304688 290 707.487304688 266 c 128,-1,12
 760.487304688 242 760.487304688 242 819.487304688 242 c 0,13,14
 872.487304688 242 872.487304688 242 917.487304688 251.5 c 128,-1,15
 962.487304688 261 962.487304688 261 1000.48730469 278 c 128,-1,16
 1038.48730469 295 1038.48730469 295 1068.48730469 316.5 c 128,-1,17
 1098.48730469 338 1098.48730469 338 1120.48730469 361 c 1,18,-1
 1208.48730469 140 l 1,19,20
 1186.48730469 124 1186.48730469 124 1145.98730469 97.5 c 128,-1,21
 1105.48730469 71 1105.48730469 71 1046.48730469 45 c 128,-1,22
 987.487304688 19 987.487304688 19 910.487304688 1 c 128,-1,23
 833.487304688 -17 833.487304688 -17 740.487304688 -17 c 0,24,25
 604.487304688 -17 604.487304688 -17 501.487304688 30 c 128,-1,26
 398.487304688 77 398.487304688 77 333.487304688 157.5 c 128,-1,27
 268.487304688 238 268.487304688 238 244.487304688 344.5 c 128,-1,28
 220.487304688 451 220.487304688 451 241.487304688 568 c 0,29,30
 253.487304688 639 253.487304688 639 278.487304688 709.5 c 128,-1,31
 303.487304688 780 303.487304688 780 343.487304688 844 c 128,-1,32
 383.487304688 908 383.487304688 908 439.987304688 963 c 128,-1,33
 496.487304688 1018 496.487304688 1018 570.487304688 1058 c 128,-1,34
 644.487304688 1098 644.487304688 1098 738.487304688 1121 c 128,-1,35
 832.487304688 1144 832.487304688 1144 948.487304688 1144 c 0,36,37
 1085.48730469 1144 1085.48730469 1144 1191.48730469 1105.5 c 128,-1,38
 1297.48730469 1067 1297.48730469 1067 1362.48730469 980 c 1,39,-1
 1163.48730469 791 l 1,0,1
EndSplineSet
EndChar

StartChar: d
Encoding: 100 100 72
Width: 1331
GlyphClass: 1
Flags: W
LayerCount: 2
Fore
SplineSet
983.69921875 922 m 1,0,-1
 912.69921875 922 l 2,1,2
 844.69921875 922 844.69921875 922 789.19921875 890 c 128,-1,3
 733.69921875 858 733.69921875 858 691.69921875 804 c 128,-1,4
 649.69921875 750 649.69921875 750 621.19921875 678 c 128,-1,5
 592.69921875 606 592.69921875 606 579.69921875 527 c 0,6,7
 566.69921875 451 566.69921875 451 567.69921875 392 c 128,-1,8
 568.69921875 333 568.69921875 333 583.19921875 291 c 128,-1,9
 597.69921875 249 597.69921875 249 623.69921875 227 c 128,-1,10
 649.69921875 205 649.69921875 205 685.69921875 205 c 0,11,12
 722.69921875 205 722.69921875 205 752.19921875 215.5 c 128,-1,13
 781.69921875 226 781.69921875 226 805.19921875 243 c 128,-1,14
 828.69921875 260 828.69921875 260 846.69921875 281.5 c 128,-1,15
 864.69921875 303 864.69921875 303 878.69921875 324 c 1,16,-1
 983.69921875 922 l 1,0,-1
820.69921875 0 m 1,17,-1
 850.69921875 166 l 1,18,-1
 690.69921875 -10 l 1,19,20
 682.69921875 -12 682.69921875 -12 675.69921875 -13 c 128,-1,21
 668.69921875 -14 668.69921875 -14 658.19921875 -15 c 128,-1,22
 647.69921875 -16 647.69921875 -16 634.19921875 -16.5 c 128,-1,23
 620.69921875 -17 620.69921875 -17 598.69921875 -17 c 0,24,25
 504.69921875 -17 504.69921875 -17 430.19921875 24.5 c 128,-1,26
 355.69921875 66 355.69921875 66 308.19921875 140.5 c 128,-1,27
 260.69921875 215 260.69921875 215 243.69921875 317 c 128,-1,28
 226.69921875 419 226.69921875 419 248.69921875 541 c 256,29,30
 270.69921875 663 270.69921875 663 331.19921875 770 c 128,-1,31
 391.69921875 877 391.69921875 877 483.69921875 956 c 128,-1,32
 575.69921875 1035 575.69921875 1035 693.69921875 1080.5 c 128,-1,33
 811.69921875 1126 811.69921875 1126 947.69921875 1126 c 2,34,-1
 1019.69921875 1126 l 1,35,-1
 1115.69921875 1671 l 1,36,-1
 1443.69921875 1638 l 1,37,-1
 1192.69921875 214 l 1,38,-1
 1177.69921875 0 l 1,39,-1
 820.69921875 0 l 1,17,-1
EndSplineSet
EndChar

StartChar: e
Encoding: 101 101 73
Width: 1331
GlyphClass: 1
Flags: W
LayerCount: 2
Fore
SplineSet
1224.70019531 162 m 1,0,1
 1177.70019531 124 1177.70019531 124 1124.20019531 91.5 c 128,-1,2
 1070.70019531 59 1070.70019531 59 1009.20019531 35 c 128,-1,3
 947.700195312 11 947.700195312 11 876.200195312 -2.5 c 128,-1,4
 804.700195312 -16 804.700195312 -16 720.700195312 -16 c 0,5,6
 573.700195312 -16 573.700195312 -16 469.700195312 32 c 128,-1,7
 365.700195312 80 365.700195312 80 304.200195312 160.5 c 128,-1,8
 242.700195312 241 242.700195312 241 222.700195312 345.5 c 128,-1,9
 202.700195312 450 202.700195312 450 222.700195312 563 c 0,10,11
 234.700195312 636 234.700195312 636 261.700195312 707 c 128,-1,12
 288.700195312 778 288.700195312 778 329.200195312 842.5 c 128,-1,13
 369.700195312 907 369.700195312 907 424.700195312 962 c 128,-1,14
 479.700195312 1017 479.700195312 1017 550.200195312 1057.5 c 128,-1,15
 620.700195312 1098 620.700195312 1098 705.700195312 1121 c 128,-1,16
 790.700195312 1144 790.700195312 1144 890.700195312 1144 c 0,17,18
 1013.70019531 1144 1013.70019531 1144 1103.70019531 1107.5 c 128,-1,19
 1193.70019531 1071 1193.70019531 1071 1248.70019531 1005.5 c 128,-1,20
 1303.70019531 940 1303.70019531 940 1322.70019531 849 c 128,-1,21
 1341.70019531 758 1341.70019531 758 1321.70019531 647 c 0,22,23
 1316.70019531 619 1316.70019531 619 1305.70019531 574 c 128,-1,24
 1294.70019531 529 1294.70019531 529 1279.70019531 477 c 1,25,-1
 524.700195312 477 l 1,26,27
 516.700195312 422 516.700195312 422 523.700195312 374 c 128,-1,28
 530.700195312 326 530.700195312 326 559.200195312 290.5 c 128,-1,29
 587.700195312 255 587.700195312 255 640.700195312 235 c 128,-1,30
 693.700195312 215 693.700195312 215 779.700195312 215 c 0,31,32
 832.700195312 215 832.700195312 215 874.700195312 227 c 128,-1,33
 916.700195312 239 916.700195312 239 948.200195312 254.5 c 128,-1,34
 979.700195312 270 979.700195312 270 1003.20019531 287.5 c 128,-1,35
 1026.70019531 305 1026.70019531 305 1043.70019531 317 c 1,36,-1
 1224.70019531 162 l 1,0,1
1027.70019531 688 m 1,37,38
 1035.70019531 735 1035.70019531 735 1029.70019531 777 c 128,-1,39
 1023.70019531 819 1023.70019531 819 1002.20019531 851.5 c 128,-1,40
 980.700195312 884 980.700195312 884 944.200195312 903 c 128,-1,41
 907.700195312 922 907.700195312 922 855.700195312 922 c 256,42,43
 803.700195312 922 803.700195312 922 765.200195312 906.5 c 128,-1,44
 726.700195312 891 726.700195312 891 698.700195312 868 c 128,-1,45
 670.700195312 845 670.700195312 845 652.200195312 819.5 c 128,-1,46
 633.700195312 794 633.700195312 794 622.700195312 774 c 1,47,-1
 510.700195312 669 l 1,48,-1
 690.700195312 687 l 1,49,-1
 1027.70019531 688 l 1,37,38
EndSplineSet
EndChar

StartChar: f
Encoding: 102 102 74
Width: 1331
GlyphClass: 1
Flags: W
LayerCount: 2
Fore
SplineSet
604.779296875 897 m 1,0,-1
 342.779296875 897 l 1,1,-1
 381.779296875 1126 l 1,2,-1
 644.779296875 1126 l 1,3,-1
 669.779296875 1272 l 2,4,5
 688.779296875 1371 688.779296875 1371 723.279296875 1446 c 128,-1,6
 757.779296875 1521 757.779296875 1521 811.279296875 1570 c 128,-1,7
 864.779296875 1619 864.779296875 1619 939.279296875 1640.5 c 128,-1,8
 1013.77929688 1662 1013.77929688 1662 1114.77929688 1656 c 0,9,10
 1167.77929688 1653 1167.77929688 1653 1214.27929688 1640 c 128,-1,11
 1260.77929688 1627 1260.77929688 1627 1298.77929688 1610 c 128,-1,12
 1336.77929688 1593 1336.77929688 1593 1366.77929688 1573.5 c 128,-1,13
 1396.77929688 1554 1396.77929688 1554 1418.77929688 1537 c 1,14,-1
 1250.77929688 1373 l 1,15,16
 1220.77929688 1393 1220.77929688 1393 1186.27929688 1407 c 128,-1,17
 1151.77929688 1421 1151.77929688 1421 1105.77929688 1426 c 0,18,19
 1078.77929688 1429 1078.77929688 1429 1057.77929688 1422.5 c 128,-1,20
 1036.77929688 1416 1036.77929688 1416 1020.77929688 1396.5 c 128,-1,21
 1004.77929688 1377 1004.77929688 1377 993.279296875 1344.5 c 128,-1,22
 981.779296875 1312 981.779296875 1312 972.779296875 1263 c 2,23,-1
 948.779296875 1126 l 1,24,-1
 1252.77929688 1126 l 1,25,-1
 1184.77929688 897 l 1,26,-1
 922.779296875 897 l 1,27,-1
 764.779296875 0 l 2,28,29
 744.779296875 -115 744.779296875 -115 716.279296875 -200.5 c 128,-1,30
 687.779296875 -286 687.779296875 -286 638.779296875 -341 c 128,-1,31
 589.779296875 -396 589.779296875 -396 514.779296875 -420.5 c 128,-1,32
 439.779296875 -445 439.779296875 -445 324.779296875 -438 c 0,33,34
 286.779296875 -436 286.779296875 -436 254.279296875 -429.5 c 128,-1,35
 221.779296875 -423 221.779296875 -423 195.279296875 -415.5 c 128,-1,36
 168.779296875 -408 168.779296875 -408 150.779296875 -399.5 c 128,-1,37
 132.779296875 -391 132.779296875 -391 121.779296875 -385 c 1,38,-1
 214.779296875 -183 l 1,39,-1
 217.779296875 -184 l 2,40,41
 236.779296875 -192 236.779296875 -192 260.779296875 -200.5 c 128,-1,42
 284.779296875 -209 284.779296875 -209 311.779296875 -207 c 0,43,44
 340.779296875 -204 340.779296875 -204 362.279296875 -188.5 c 128,-1,45
 383.779296875 -173 383.779296875 -173 398.779296875 -146 c 128,-1,46
 413.779296875 -119 413.779296875 -119 425.279296875 -82 c 128,-1,47
 436.779296875 -45 436.779296875 -45 446.779296875 0 c 2,48,-1
 604.779296875 897 l 1,0,-1
EndSplineSet
EndChar

StartChar: g
Encoding: 103 103 75
Width: 1331
GlyphClass: 1
Flags: W
LayerCount: 2
Fore
SplineSet
861.467773438 16 m 1,0,1
 825.467773438 2 825.467773438 2 774.467773438 -7.5 c 128,-1,2
 723.467773438 -17 723.467773438 -17 664.467773438 -17 c 0,3,4
 561.467773438 -17 561.467773438 -17 473.467773438 28.5 c 128,-1,5
 385.467773438 74 385.467773438 74 326.467773438 152 c 128,-1,6
 267.467773438 230 267.467773438 230 241.967773438 335 c 128,-1,7
 216.467773438 440 216.467773438 440 237.467773438 558 c 0,8,9
 259.467773438 678 259.467773438 678 317.967773438 784.5 c 128,-1,10
 376.467773438 891 376.467773438 891 464.467773438 971 c 128,-1,11
 552.467773438 1051 552.467773438 1051 666.967773438 1097.5 c 128,-1,12
 781.467773438 1144 781.467773438 1144 913.467773438 1144 c 0,13,14
 931.467773438 1144 931.467773438 1144 943.967773438 1143.5 c 128,-1,15
 956.467773438 1143 956.467773438 1143 966.467773438 1141 c 1,16,-1
 1030.46777344 981 l 1,17,-1
 1060.46777344 1147 l 1,18,-1
 1390.46777344 1126 l 1,19,-1
 1184.46777344 -42 l 2,20,21
 1167.46777344 -143 1167.46777344 -143 1112.96777344 -232 c 128,-1,22
 1058.46777344 -321 1058.46777344 -321 974.467773438 -387 c 128,-1,23
 890.467773438 -453 890.467773438 -453 781.967773438 -491 c 128,-1,24
 673.467773438 -529 673.467773438 -529 546.467773438 -529 c 0,25,26
 478.467773438 -529 478.467773438 -529 425.467773438 -518.5 c 128,-1,27
 372.467773438 -508 372.467773438 -508 327.967773438 -487.5 c 128,-1,28
 283.467773438 -467 283.467773438 -467 246.967773438 -437 c 128,-1,29
 210.467773438 -407 210.467773438 -407 176.467773438 -368 c 1,30,-1
 354.467773438 -197 l 1,31,32
 367.467773438 -211 367.467773438 -211 391.467773438 -228.5 c 128,-1,33
 415.467773438 -246 415.467773438 -246 444.967773438 -262.5 c 128,-1,34
 474.467773438 -279 474.467773438 -279 508.967773438 -289.5 c 128,-1,35
 543.467773438 -300 543.467773438 -300 578.467773438 -300 c 0,36,37
 621.467773438 -300 621.467773438 -300 666.467773438 -279 c 128,-1,38
 711.467773438 -258 711.467773438 -258 749.967773438 -221 c 128,-1,39
 788.467773438 -184 788.467773438 -184 816.467773438 -134.5 c 128,-1,40
 844.467773438 -85 844.467773438 -85 854.467773438 -28 c 2,41,-1
 861.467773438 16 l 1,0,1
1006.46777344 840 m 1,42,43
 982.467773438 873 982.467773438 873 948.967773438 897.5 c 128,-1,44
 915.467773438 922 915.467773438 922 869.467773438 922 c 0,45,46
 808.467773438 922 808.467773438 922 757.467773438 885 c 128,-1,47
 706.467773438 848 706.467773438 848 668.467773438 792 c 128,-1,48
 630.467773438 736 630.467773438 736 605.467773438 670.5 c 128,-1,49
 580.467773438 605 580.467773438 605 570.467773438 547 c 0,50,51
 558.467773438 474 558.467773438 474 565.967773438 411.5 c 128,-1,52
 573.467773438 349 573.467773438 349 594.967773438 303 c 128,-1,53
 616.467773438 257 616.467773438 257 648.967773438 231 c 128,-1,54
 681.467773438 205 681.467773438 205 719.467773438 205 c 0,55,56
 779.467773438 205 779.467773438 205 825.467773438 230.5 c 128,-1,57
 871.467773438 256 871.467773438 256 910.467773438 294 c 1,58,-1
 1006.46777344 840 l 1,42,43
EndSplineSet
EndChar

StartChar: h
Encoding: 104 104 76
Width: 1331
GlyphClass: 1
Flags: W
LayerCount: 2
Fore
SplineSet
514.890625 0 m 1,0,-1
 189.890625 0 l 1,1,-1
 432.890625 1371 l 1,2,-1
 432.890625 1606 l 1,3,-1
 804.890625 1638 l 1,4,-1
 695.890625 1024 l 1,5,-1
 791.890625 1126 l 1,6,7
 838.890625 1136 838.890625 1136 892.390625 1140 c 128,-1,8
 945.890625 1144 945.890625 1144 1010.890625 1144 c 0,9,10
 1191.890625 1144 1191.890625 1144 1268.890625 1038.5 c 128,-1,11
 1345.890625 933 1345.890625 933 1310.890625 735 c 2,12,-1
 1180.890625 0 l 1,13,-1
 847.890625 0 l 1,14,-1
 974.890625 715 l 2,15,16
 983.890625 768 983.890625 768 978.390625 806 c 128,-1,17
 972.890625 844 972.890625 844 957.890625 868 c 128,-1,18
 942.890625 892 942.890625 892 920.890625 902.5 c 128,-1,19
 898.890625 913 898.890625 913 875.890625 913 c 0,20,21
 832.890625 913 832.890625 913 801.390625 905.5 c 128,-1,22
 769.890625 898 769.890625 898 744.890625 885.5 c 128,-1,23
 719.890625 873 719.890625 873 699.890625 858 c 128,-1,24
 679.890625 843 679.890625 843 660.890625 827 c 1,25,-1
 514.890625 0 l 1,0,-1
EndSplineSet
EndChar

StartChar: i
Encoding: 105 105 77
Width: 1331
GlyphClass: 1
Flags: W
LayerCount: 2
Fore
SplineSet
709.087890625 1537 m 1,0,-1
 1054.08789062 1537 l 1,1,-1
 1007.08789062 1270 l 1,2,-1
 662.087890625 1270 l 1,3,-1
 709.087890625 1537 l 1,0,-1
691.087890625 942 m 1,4,-1
 523.087890625 897 l 1,5,-1
 324.087890625 897 l 1,6,-1
 324.087890625 1126 l 1,7,-1
 981.087890625 1126 l 1,8,-1
 853.087890625 433 l 2,9,10
 846.087890625 393 846.087890625 393 852.087890625 358 c 128,-1,11
 858.087890625 323 858.087890625 323 873.587890625 297 c 128,-1,12
 889.087890625 271 889.087890625 271 913.587890625 256.5 c 128,-1,13
 938.087890625 242 938.087890625 242 969.087890625 242 c 0,14,15
 1003.08789062 242 1003.08789062 242 1032.08789062 247.5 c 128,-1,16
 1061.08789062 253 1061.08789062 253 1089.58789062 264 c 128,-1,17
 1118.08789062 275 1118.08789062 275 1146.08789062 293.5 c 128,-1,18
 1174.08789062 312 1174.08789062 312 1205.08789062 338 c 1,19,-1
 1223.08789062 100 l 1,20,21
 1208.08789062 89 1208.08789062 89 1182.58789062 69.5 c 128,-1,22
 1157.08789062 50 1157.08789062 50 1118.58789062 30.5 c 128,-1,23
 1080.08789062 11 1080.08789062 11 1026.08789062 -3 c 128,-1,24
 972.087890625 -17 972.087890625 -17 900.087890625 -17 c 0,25,26
 782.087890625 -17 782.087890625 -17 702.587890625 19.5 c 128,-1,27
 623.087890625 56 623.087890625 56 578.587890625 119 c 128,-1,28
 534.087890625 182 534.087890625 182 521.587890625 265.5 c 128,-1,29
 509.087890625 349 509.087890625 349 526.087890625 442 c 2,30,-1
 591.087890625 819 l 1,31,-1
 691.087890625 942 l 1,4,-1
EndSplineSet
EndChar

StartChar: j
Encoding: 106 106 78
Width: 1331
GlyphClass: 1
Flags: W
LayerCount: 2
Fore
SplineSet
972.64453125 1537 m 1,0,-1
 1317.64453125 1537 l 1,1,-1
 1270.64453125 1270 l 1,2,-1
 924.64453125 1270 l 1,3,-1
 972.64453125 1537 l 1,0,-1
950.64453125 942 m 1,4,-1
 782.64453125 897 l 1,5,-1
 582.64453125 897 l 1,6,-1
 583.64453125 1126 l 1,7,-1
 1240.64453125 1126 l 1,8,-1
 1029.64453125 -70 l 2,9,10
 1013.64453125 -163 1013.64453125 -163 971.64453125 -246.5 c 128,-1,11
 929.64453125 -330 929.64453125 -330 862.64453125 -393 c 128,-1,12
 795.64453125 -456 795.64453125 -456 703.64453125 -492.5 c 128,-1,13
 611.64453125 -529 611.64453125 -529 493.64453125 -529 c 0,14,15
 420.64453125 -529 420.64453125 -529 371.64453125 -515 c 128,-1,16
 322.64453125 -501 322.64453125 -501 291.14453125 -481.5 c 128,-1,17
 259.64453125 -462 259.64453125 -462 241.64453125 -442.5 c 128,-1,18
 223.64453125 -423 223.64453125 -423 211.64453125 -412 c 1,19,-1
 313.64453125 -174 l 1,20,21
 357.64453125 -225 357.64453125 -225 404.64453125 -247.5 c 128,-1,22
 451.64453125 -270 451.64453125 -270 519.64453125 -270 c 0,23,24
 550.64453125 -270 550.64453125 -270 578.14453125 -256 c 128,-1,25
 605.64453125 -242 605.64453125 -242 628.64453125 -216.5 c 128,-1,26
 651.64453125 -191 651.64453125 -191 668.64453125 -156 c 128,-1,27
 685.64453125 -121 685.64453125 -121 692.64453125 -79 c 2,28,-1
 851.64453125 819 l 1,29,-1
 950.64453125 942 l 1,4,-1
EndSplineSet
EndChar

StartChar: k
Encoding: 107 107 79
Width: 1331
GlyphClass: 1
Flags: W
LayerCount: 2
Fore
SplineSet
164.912109375 0 m 1,0,-1
 416.912109375 1431 l 1,1,-1
 416.912109375 1638 l 1,2,-1
 772.912109375 1670 l 1,3,-1
 616.912109375 787 l 1,4,-1
 948.912109375 1126 l 1,5,-1
 1297.91210938 1126 l 1,6,-1
 854.912109375 717 l 1,7,-1
 631.912109375 642 l 1,8,-1
 814.912109375 578 l 1,9,-1
 1202.91210938 0 l 1,10,-1
 845.912109375 0 l 1,11,-1
 560.912109375 469 l 1,12,-1
 478.912109375 0 l 1,13,-1
 164.912109375 0 l 1,0,-1
EndSplineSet
EndChar

StartChar: l
Encoding: 108 108 80
Width: 1331
GlyphClass: 1
Flags: W
LayerCount: 2
Fore
SplineSet
795.611328125 1419 m 1,0,-1
 627.611328125 1374 l 1,1,-1
 427.611328125 1374 l 1,2,-1
 427.611328125 1604 l 1,3,-1
 1074.61132812 1604 l 1,4,-1
 861.611328125 397 l 2,5,6
 852.611328125 345 852.611328125 345 857.111328125 309.5 c 128,-1,7
 861.611328125 274 861.611328125 274 874.611328125 252.5 c 128,-1,8
 887.611328125 231 887.611328125 231 907.611328125 222 c 128,-1,9
 927.611328125 213 927.611328125 213 948.611328125 213 c 0,10,11
 977.611328125 213 977.611328125 213 1003.11132812 221.5 c 128,-1,12
 1028.61132812 230 1028.61132812 230 1051.11132812 243.5 c 128,-1,13
 1073.61132812 257 1073.61132812 257 1093.61132812 274 c 128,-1,14
 1113.61132812 291 1113.61132812 291 1129.61132812 307 c 1,15,-1
 1205.61132812 110 l 1,16,17
 1193.61132812 101 1193.61132812 101 1169.61132812 79.5 c 128,-1,18
 1145.61132812 58 1145.61132812 58 1107.11132812 36.5 c 128,-1,19
 1068.61132812 15 1068.61132812 15 1014.61132812 -1 c 128,-1,20
 960.611328125 -17 960.611328125 -17 889.611328125 -17 c 0,21,22
 778.611328125 -17 778.611328125 -17 705.111328125 17.5 c 128,-1,23
 631.611328125 52 631.611328125 52 589.611328125 111.5 c 128,-1,24
 547.611328125 171 547.611328125 171 536.611328125 251 c 128,-1,25
 525.611328125 331 525.611328125 331 541.611328125 420 c 2,26,-1
 695.611328125 1296 l 1,27,-1
 795.611328125 1419 l 1,0,-1
EndSplineSet
EndChar

StartChar: m
Encoding: 109 109 81
Width: 1331
GlyphClass: 1
Flags: W
LayerCount: 2
Fore
SplineSet
369.771484375 0 m 1,0,-1
 47.771484375 0 l 1,1,-1
 245.771484375 1126 l 1,2,-1
 571.771484375 1147 l 1,3,-1
 549.771484375 1024 l 1,4,-1
 646.771484375 1126 l 2,5,6
 651.771484375 1129 651.771484375 1129 662.271484375 1132.5 c 128,-1,7
 672.771484375 1136 672.771484375 1136 685.271484375 1138.5 c 128,-1,8
 697.771484375 1141 697.771484375 1141 710.271484375 1142.5 c 128,-1,9
 722.771484375 1144 722.771484375 1144 731.771484375 1144 c 0,10,11
 780.771484375 1144 780.771484375 1144 815.771484375 1140.5 c 128,-1,12
 850.771484375 1137 850.771484375 1137 875.771484375 1127.5 c 128,-1,13
 900.771484375 1118 900.771484375 1118 918.271484375 1102.5 c 128,-1,14
 935.771484375 1087 935.771484375 1087 950.771484375 1064 c 1,15,16
 973.771484375 1077 973.771484375 1077 1002.77148438 1091 c 128,-1,17
 1031.77148438 1105 1031.77148438 1105 1064.27148438 1116.5 c 128,-1,18
 1096.77148438 1128 1096.77148438 1128 1130.27148438 1136 c 128,-1,19
 1163.77148438 1144 1163.77148438 1144 1195.77148438 1144 c 0,20,21
 1294.77148438 1144 1294.77148438 1144 1347.77148438 1116.5 c 128,-1,22
 1400.77148438 1089 1400.77148438 1089 1421.27148438 1038 c 128,-1,23
 1441.77148438 987 1441.77148438 987 1437.27148438 915 c 128,-1,24
 1432.77148438 843 1432.77148438 843 1415.77148438 754 c 2,25,-1
 1283.77148438 0 l 1,26,-1
 961.771484375 0 l 1,27,-1
 1092.77148438 744 l 2,28,29
 1099.77148438 786 1099.77148438 786 1104.27148438 816.5 c 128,-1,30
 1108.77148438 847 1108.77148438 847 1107.77148438 867 c 128,-1,31
 1106.77148438 887 1106.77148438 887 1098.77148438 896.5 c 128,-1,32
 1090.77148438 906 1090.77148438 906 1071.77148438 906 c 0,33,34
 1054.77148438 906 1054.77148438 906 1037.77148438 899 c 128,-1,35
 1020.77148438 892 1020.77148438 892 1005.27148438 879.5 c 128,-1,36
 989.771484375 867 989.771484375 867 978.771484375 851.5 c 128,-1,37
 967.771484375 836 967.771484375 836 961.771484375 817 c 0,38,39
 960.771484375 810 960.771484375 810 959.271484375 797 c 128,-1,40
 957.771484375 784 957.771484375 784 955.271484375 771.5 c 128,-1,41
 952.771484375 759 952.771484375 759 950.771484375 747.5 c 128,-1,42
 948.771484375 736 948.771484375 736 947.771484375 732 c 2,43,-1
 818.771484375 0 l 1,44,-1
 507.771484375 0 l 1,45,-1
 635.771484375 725 l 2,46,47
 642.771484375 768 642.771484375 768 646.771484375 802 c 128,-1,48
 650.771484375 836 650.771484375 836 649.771484375 859 c 128,-1,49
 648.771484375 882 648.771484375 882 641.771484375 894 c 128,-1,50
 634.771484375 906 634.771484375 906 618.771484375 906 c 0,51,52
 588.771484375 906 588.771484375 906 560.271484375 886.5 c 128,-1,53
 531.771484375 867 531.771484375 867 513.771484375 823 c 1,54,-1
 369.771484375 0 l 1,0,-1
EndSplineSet
EndChar

StartChar: n
Encoding: 110 110 82
Width: 1331
GlyphClass: 1
Flags: W
LayerCount: 2
Fore
SplineSet
494 0 m 1,0,-1
 169 0 l 1,1,-1
 368 1126 l 1,2,-1
 696 1147 l 1,3,-1
 674 1024 l 1,4,-1
 771 1126 l 1,5,6
 811 1136 811 1136 856.5 1140 c 128,-1,7
 902 1144 902 1144 962 1144 c 0,8,9
 1055 1144 1055 1144 1124.5 1116.5 c 128,-1,10
 1194 1089 1194 1089 1237 1038 c 128,-1,11
 1280 987 1280 987 1295 915 c 128,-1,12
 1310 843 1310 843 1294 754 c 2,13,-1
 1162 0 l 1,14,-1
 837 0 l 1,15,-1
 969 754 l 2,16,17
 976 796 976 796 969.5 826 c 128,-1,18
 963 856 963 856 945.5 875.5 c 128,-1,19
 928 895 928 895 903 904 c 128,-1,20
 878 913 878 913 849 913 c 0,21,22
 784 913 784 913 735.5 892 c 128,-1,23
 687 871 687 871 639 827 c 1,24,-1
 494 0 l 1,0,-1
EndSplineSet
EndChar

StartChar: o
Encoding: 111 111 83
Width: 1331
GlyphClass: 1
Flags: W
LayerCount: 2
Fore
SplineSet
665.80078125 -17 m 0,0,1
 542.80078125 -17 542.80078125 -17 448.30078125 27.5 c 128,-1,2
 353.80078125 72 353.80078125 72 293.80078125 150 c 128,-1,3
 233.80078125 228 233.80078125 228 211.30078125 334.5 c 128,-1,4
 188.80078125 441 188.80078125 441 210.80078125 566 c 0,5,6
 232.80078125 690 232.80078125 690 291.30078125 796 c 128,-1,7
 349.80078125 902 349.80078125 902 436.80078125 979.5 c 128,-1,8
 523.80078125 1057 523.80078125 1057 634.80078125 1100.5 c 128,-1,9
 745.80078125 1144 745.80078125 1144 871.80078125 1144 c 0,10,11
 994.80078125 1144 994.80078125 1144 1088.30078125 1100.5 c 128,-1,12
 1181.80078125 1057 1181.80078125 1057 1240.30078125 979.5 c 128,-1,13
 1298.80078125 902 1298.80078125 902 1319.80078125 796 c 128,-1,14
 1340.80078125 690 1340.80078125 690 1319.80078125 566 c 0,15,16
 1297.80078125 441 1297.80078125 441 1240.30078125 334.5 c 128,-1,17
 1182.80078125 228 1182.80078125 228 1097.30078125 150 c 128,-1,18
 1011.80078125 72 1011.80078125 72 902.30078125 27.5 c 128,-1,19
 792.80078125 -17 792.80078125 -17 665.80078125 -17 c 0,0,1
980.80078125 541 m 0,20,21
 992.80078125 611 992.80078125 611 992.80078125 678 c 128,-1,22
 992.80078125 745 992.80078125 745 975.80078125 799 c 128,-1,23
 958.80078125 853 958.80078125 853 922.80078125 886 c 128,-1,24
 886.80078125 919 886.80078125 919 826.80078125 919 c 0,25,26
 769.80078125 919 769.80078125 919 723.80078125 890.5 c 128,-1,27
 677.80078125 862 677.80078125 862 642.30078125 815 c 128,-1,28
 606.80078125 768 606.80078125 768 583.30078125 708 c 128,-1,29
 559.80078125 648 559.80078125 648 548.80078125 585 c 0,30,31
 536.80078125 514 536.80078125 514 537.30078125 446.5 c 128,-1,32
 537.80078125 379 537.80078125 379 556.30078125 326 c 128,-1,33
 574.80078125 273 574.80078125 273 612.30078125 240.5 c 128,-1,34
 649.80078125 208 649.80078125 208 709.80078125 208 c 0,35,36
 764.80078125 208 764.80078125 208 810.30078125 236 c 128,-1,37
 855.80078125 264 855.80078125 264 889.80078125 311 c 128,-1,38
 923.80078125 358 923.80078125 358 946.80078125 418 c 128,-1,39
 969.80078125 478 969.80078125 478 980.80078125 541 c 0,20,21
EndSplineSet
EndChar

StartChar: p
Encoding: 112 112 84
Width: 1331
GlyphClass: 1
Flags: W
LayerCount: 2
Fore
SplineSet
509.318359375 205 m 1,0,-1
 589.318359375 205 l 2,1,2
 658.318359375 205 658.318359375 205 723.818359375 235 c 128,-1,3
 789.318359375 265 789.318359375 265 844.318359375 317.5 c 128,-1,4
 899.318359375 370 899.318359375 370 937.818359375 440 c 128,-1,5
 976.318359375 510 976.318359375 510 990.318359375 590 c 0,6,7
 1005.31835938 673 1005.31835938 673 999.318359375 735.5 c 128,-1,8
 993.318359375 798 993.318359375 798 970.318359375 839.5 c 128,-1,9
 947.318359375 881 947.318359375 881 910.318359375 901.5 c 128,-1,10
 873.318359375 922 873.318359375 922 827.318359375 922 c 0,11,12
 799.318359375 922 799.318359375 922 770.818359375 913.5 c 128,-1,13
 742.318359375 905 742.318359375 905 715.318359375 892.5 c 128,-1,14
 688.318359375 880 688.318359375 880 663.818359375 863.5 c 128,-1,15
 639.318359375 847 639.318359375 847 619.318359375 830 c 1,16,-1
 509.318359375 205 l 1,0,-1
49.318359375 -512 m 1,17,-1
 338.318359375 1126 l 1,18,-1
 675.318359375 1147 l 1,19,-1
 643.318359375 967 l 1,20,-1
 801.318359375 1137 l 1,21,22
 823.318359375 1140 823.318359375 1140 846.318359375 1142 c 128,-1,23
 869.318359375 1144 869.318359375 1144 894.318359375 1144 c 0,24,25
 989.318359375 1144 989.318359375 1144 1072.31835938 1104 c 128,-1,26
 1155.31835938 1064 1155.31835938 1064 1211.81835938 989.5 c 128,-1,27
 1268.31835938 915 1268.31835938 915 1292.31835938 811 c 128,-1,28
 1316.31835938 707 1316.31835938 707 1293.31835938 578 c 0,29,30
 1271.31835938 452 1271.31835938 452 1202.81835938 346 c 128,-1,31
 1134.31835938 240 1134.31835938 240 1033.31835938 163 c 128,-1,32
 932.318359375 86 932.318359375 86 804.318359375 43 c 128,-1,33
 676.318359375 0 676.318359375 0 535.318359375 0 c 2,34,-1
 473.318359375 0 l 1,35,-1
 383.318359375 -512 l 1,36,-1
 49.318359375 -512 l 1,17,-1
EndSplineSet
EndChar

StartChar: q
Encoding: 113 113 85
Width: 1331
GlyphClass: 1
Flags: W
LayerCount: 2
Fore
SplineSet
1018.88085938 912 m 1,0,1
 988.880859375 916 988.880859375 916 960.380859375 919 c 128,-1,2
 931.880859375 922 931.880859375 922 892.880859375 922 c 0,3,4
 849.880859375 922 849.880859375 922 810.880859375 905.5 c 128,-1,5
 771.880859375 889 771.880859375 889 737.880859375 861.5 c 128,-1,6
 703.880859375 834 703.880859375 834 675.380859375 796.5 c 128,-1,7
 646.880859375 759 646.880859375 759 624.380859375 716.5 c 128,-1,8
 601.880859375 674 601.880859375 674 586.380859375 628.5 c 128,-1,9
 570.880859375 583 570.880859375 583 562.880859375 539 c 0,10,11
 547.880859375 453 547.880859375 453 555.380859375 390.5 c 128,-1,12
 562.880859375 328 562.880859375 328 585.380859375 286.5 c 128,-1,13
 607.880859375 245 607.880859375 245 643.380859375 225 c 128,-1,14
 678.880859375 205 678.880859375 205 718.880859375 205 c 0,15,16
 755.880859375 205 755.880859375 205 783.380859375 210.5 c 128,-1,17
 810.880859375 216 810.880859375 216 832.380859375 227 c 128,-1,18
 853.880859375 238 853.880859375 238 871.880859375 252 c 128,-1,19
 889.880859375 266 889.880859375 266 907.880859375 285 c 1,20,-1
 1018.88085938 912 l 1,0,1
881.880859375 139 m 1,21,-1
 736.880859375 -8 l 1,22,23
 685.880859375 -17 685.880859375 -17 640.880859375 -17 c 0,24,25
 546.880859375 -17 546.880859375 -17 462.880859375 21 c 128,-1,26
 378.880859375 59 378.880859375 59 320.380859375 131 c 128,-1,27
 261.880859375 203 261.880859375 203 236.380859375 306.5 c 128,-1,28
 210.880859375 410 210.880859375 410 233.880859375 539 c 0,29,30
 258.880859375 679 258.880859375 679 325.880859375 791 c 128,-1,31
 392.880859375 903 392.880859375 903 487.380859375 981.5 c 128,-1,32
 581.880859375 1060 581.880859375 1060 697.880859375 1102 c 128,-1,33
 813.880859375 1144 813.880859375 1144 935.880859375 1144 c 0,34,35
 1001.88085938 1144 1001.88085938 1144 1069.38085938 1134.5 c 128,-1,36
 1136.88085938 1125 1136.88085938 1125 1197.38085938 1112.5 c 128,-1,37
 1257.88085938 1100 1257.88085938 1100 1306.38085938 1086 c 128,-1,38
 1354.88085938 1072 1354.88085938 1072 1378.88085938 1063 c 1,39,-1
 1101.88085938 -512 l 1,40,-1
 767.880859375 -512 l 1,41,-1
 881.880859375 139 l 1,21,-1
EndSplineSet
EndChar

StartChar: r
Encoding: 114 114 86
Width: 1331
GlyphClass: 1
Flags: W
LayerCount: 2
Fore
SplineSet
653.159179688 1024 m 1,0,-1
 751.159179688 1126 l 1,1,2
 808.159179688 1141 808.159179688 1141 860.159179688 1142.5 c 128,-1,3
 912.159179688 1144 912.159179688 1144 961.159179688 1144 c 0,4,5
 1044.15917969 1144 1044.15917969 1144 1103.65917969 1134.5 c 128,-1,6
 1163.15917969 1125 1163.15917969 1125 1205.15917969 1111.5 c 128,-1,7
 1247.15917969 1098 1247.15917969 1098 1273.65917969 1083 c 128,-1,8
 1300.15917969 1068 1300.15917969 1068 1315.15917969 1057 c 1,9,-1
 1315.15917969 753 l 1,10,-1
 1019.15917969 717 l 1,11,-1
 1001.15917969 897 l 1,12,13
 982.159179688 900 982.159179688 900 961.659179688 903 c 128,-1,14
 941.159179688 906 941.159179688 906 921.159179688 906 c 0,15,16
 823.159179688 906 823.159179688 906 745.159179688 870 c 128,-1,17
 667.159179688 834 667.159179688 834 608.159179688 768 c 1,18,-1
 473.159179688 0 l 1,19,-1
 149.159179688 0 l 1,20,-1
 347.159179688 1126 l 1,21,-1
 675.159179688 1147 l 1,22,-1
 653.159179688 1024 l 1,0,-1
EndSplineSet
EndChar

StartChar: s
Encoding: 115 115 87
Width: 1331
GlyphClass: 1
Flags: W
LayerCount: 2
Fore
SplineSet
1185.79101562 842 m 1,0,1
 1159.79101562 860 1159.79101562 860 1126.29101562 874.5 c 128,-1,2
 1092.79101562 889 1092.79101562 889 1054.79101562 898.5 c 128,-1,3
 1016.79101562 908 1016.79101562 908 975.791015625 914 c 128,-1,4
 934.791015625 920 934.791015625 920 894.791015625 920 c 0,5,6
 837.791015625 920 837.791015625 920 788.791015625 915.5 c 128,-1,7
 739.791015625 911 739.791015625 911 703.291015625 900.5 c 128,-1,8
 666.791015625 890 666.791015625 890 643.791015625 871 c 128,-1,9
 620.791015625 852 620.791015625 852 615.791015625 823 c 0,10,11
 610.791015625 796 610.791015625 796 635.291015625 777.5 c 128,-1,12
 659.791015625 759 659.791015625 759 699.291015625 744.5 c 128,-1,13
 738.791015625 730 738.791015625 730 786.791015625 720 c 128,-1,14
 834.791015625 710 834.791015625 710 877.791015625 700 c 0,15,16
 945.791015625 685 945.791015625 685 1015.79101562 656.5 c 128,-1,17
 1085.79101562 628 1085.79101562 628 1140.29101562 584.5 c 128,-1,18
 1194.79101562 541 1194.79101562 541 1224.29101562 481 c 128,-1,19
 1253.79101562 421 1253.79101562 421 1239.79101562 343 c 0,20,21
 1221.79101562 241 1221.79101562 241 1163.79101562 171.5 c 128,-1,22
 1105.79101562 102 1105.79101562 102 1017.29101562 60 c 128,-1,23
 928.791015625 18 928.791015625 18 815.291015625 0.5 c 128,-1,24
 701.791015625 -17 701.791015625 -17 572.791015625 -17 c 0,25,26
 511.791015625 -17 511.791015625 -17 452.791015625 -8.5 c 128,-1,27
 393.791015625 0 393.791015625 0 340.791015625 15.5 c 128,-1,28
 287.791015625 31 287.791015625 31 243.791015625 52 c 128,-1,29
 199.791015625 73 199.791015625 73 168.791015625 97 c 1,30,-1
 307.791015625 312 l 1,31,32
 369.791015625 269 369.791015625 269 445.291015625 241 c 128,-1,33
 520.791015625 213 520.791015625 213 614.791015625 213 c 0,34,35
 637.791015625 213 637.791015625 213 669.291015625 215 c 128,-1,36
 700.791015625 217 700.791015625 217 735.291015625 222 c 128,-1,37
 769.791015625 227 769.791015625 227 804.791015625 237 c 128,-1,38
 839.791015625 247 839.791015625 247 868.291015625 262.5 c 128,-1,39
 896.791015625 278 896.791015625 278 916.791015625 300 c 128,-1,40
 936.791015625 322 936.791015625 322 941.791015625 352 c 0,41,42
 946.791015625 380 946.791015625 380 925.791015625 401.5 c 128,-1,43
 904.791015625 423 904.791015625 423 869.291015625 439 c 128,-1,44
 833.791015625 455 833.791015625 455 790.291015625 466.5 c 128,-1,45
 746.791015625 478 746.791015625 478 707.791015625 486 c 0,46,47
 623.791015625 504 623.791015625 504 550.291015625 535 c 128,-1,48
 476.791015625 566 476.791015625 566 423.291015625 610.5 c 128,-1,49
 369.791015625 655 369.791015625 655 344.291015625 714.5 c 128,-1,50
 318.791015625 774 318.791015625 774 331.791015625 852 c 256,51,52
 344.791015625 930 344.791015625 930 396.291015625 985 c 128,-1,53
 447.791015625 1040 447.791015625 1040 526.791015625 1075.5 c 128,-1,54
 605.791015625 1111 605.791015625 1111 707.791015625 1127.5 c 128,-1,55
 809.791015625 1144 809.791015625 1144 927.791015625 1144 c 0,56,57
 984.791015625 1144 984.791015625 1144 1041.29101562 1135 c 128,-1,58
 1097.79101562 1126 1097.79101562 1126 1147.29101562 1112.5 c 128,-1,59
 1196.79101562 1099 1196.79101562 1099 1237.29101562 1081.5 c 128,-1,60
 1277.79101562 1064 1277.79101562 1064 1302.79101562 1047 c 1,61,-1
 1185.79101562 842 l 1,0,1
EndSplineSet
EndChar

StartChar: t
Encoding: 116 116 88
Width: 1331
GlyphClass: 1
Flags: W
LayerCount: 2
Fore
SplineSet
787.854492188 397 m 2,0,1
 778.854492188 345 778.854492188 345 778.854492188 310.5 c 128,-1,2
 778.854492188 276 778.854492188 276 787.854492188 256 c 128,-1,3
 796.854492188 236 796.854492188 236 812.354492188 227.5 c 128,-1,4
 827.854492188 219 827.854492188 219 850.854492188 219 c 0,5,6
 905.854492188 219 905.854492188 219 948.854492188 229.5 c 128,-1,7
 991.854492188 240 991.854492188 240 1025.85449219 255 c 128,-1,8
 1059.85449219 270 1059.85449219 270 1085.85449219 288.5 c 128,-1,9
 1111.85449219 307 1111.85449219 307 1133.85449219 324 c 1,10,-1
 1206.85449219 138 l 1,11,12
 1191.85449219 127 1191.85449219 127 1153.85449219 101.5 c 128,-1,13
 1115.85449219 76 1115.85449219 76 1055.85449219 49.5 c 128,-1,14
 995.854492188 23 995.854492188 23 913.854492188 3 c 128,-1,15
 831.854492188 -17 831.854492188 -17 729.854492188 -17 c 0,16,17
 618.854492188 -17 618.854492188 -17 558.354492188 17.5 c 128,-1,18
 497.854492188 52 497.854492188 52 472.354492188 111.5 c 128,-1,19
 446.854492188 171 446.854492188 171 450.354492188 251 c 128,-1,20
 453.854492188 331 453.854492188 331 468.854492188 420 c 2,21,-1
 552.854492188 897 l 1,22,-1
 304.854492188 897 l 1,23,-1
 345.854492188 1126 l 1,24,-1
 593.854492188 1126 l 1,25,-1
 631.854492188 1341 l 1,26,-1
 970.854492188 1454 l 1,27,-1
 912.854492188 1126 l 1,28,-1
 1382.85449219 1126 l 1,29,-1
 1314.85449219 897 l 1,30,-1
 876.854492188 897 l 1,31,-1
 787.854492188 397 l 2,0,1
EndSplineSet
EndChar

StartChar: u
Encoding: 117 117 89
Width: 1331
GlyphClass: 1
Flags: W
LayerCount: 2
Fore
SplineSet
1045.20898438 1126 m 1,0,-1
 1374.20898438 1147 l 1,1,-1
 1171.20898438 0 l 1,2,-1
 847.208984375 0 l 1,3,-1
 865.208984375 102 l 1,4,-1
 764.208984375 0 l 1,5,6
 734.208984375 -8 734.208984375 -8 703.208984375 -12.5 c 128,-1,7
 672.208984375 -17 672.208984375 -17 637.208984375 -17 c 0,8,9
 500.208984375 -17 500.208984375 -17 414.708984375 21.5 c 128,-1,10
 329.208984375 60 329.208984375 60 285.208984375 125 c 128,-1,11
 241.208984375 190 241.208984375 190 232.208984375 274 c 128,-1,12
 223.208984375 358 223.208984375 358 238.208984375 449 c 2,13,-1
 358.208984375 1126 l 1,14,-1
 686.208984375 1147 l 1,15,-1
 562.208984375 449 l 2,16,17
 553.208984375 396 553.208984375 396 554.708984375 353 c 128,-1,18
 556.208984375 310 556.208984375 310 572.208984375 280 c 128,-1,19
 588.208984375 250 588.208984375 250 620.708984375 234 c 128,-1,20
 653.208984375 218 653.208984375 218 705.208984375 218 c 0,21,22
 739.208984375 218 739.208984375 218 770.208984375 228.5 c 128,-1,23
 801.208984375 239 801.208984375 239 826.208984375 255 c 128,-1,24
 851.208984375 271 851.208984375 271 871.208984375 289.5 c 128,-1,25
 891.208984375 308 891.208984375 308 904.208984375 326 c 1,26,-1
 1045.20898438 1126 l 1,0,-1
EndSplineSet
EndChar

StartChar: v
Encoding: 118 118 90
Width: 1331
GlyphClass: 1
Flags: W
LayerCount: 2
Fore
SplineSet
720.395507812 717 m 1,0,-1
 723.395507812 307 l 1,1,-1
 870.395507812 717 l 1,2,-1
 1076.39550781 1126 l 1,3,-1
 1400.39550781 1147 l 1,4,-1
 812.395507812 -17 l 1,5,-1
 492.395507812 0 l 1,6,-1
 331.395507812 1126 l 1,7,-1
 657.395507812 1147 l 1,8,-1
 720.395507812 717 l 1,0,-1
EndSplineSet
EndChar

StartChar: w
Encoding: 119 119 91
Width: 1331
GlyphClass: 1
Flags: W
LayerCount: 2
Fore
SplineSet
957.395507812 614 m 1,0,-1
 957.395507812 307 l 1,1,-1
 968.395507812 307 l 1,2,-1
 1026.39550781 717 l 1,3,-1
 1173.39550781 1126 l 1,4,-1
 1477.39550781 1147 l 1,5,-1
 1051.39550781 0 l 1,6,-1
 778.395507812 0 l 1,7,-1
 748.395507812 410 l 1,8,-1
 769.395507812 614 l 1,9,-1
 716.395507812 410 l 1,10,-1
 546.395507812 0 l 1,11,-1
 254.395507812 0 l 1,12,-1
 254.395507812 1126 l 1,13,-1
 552.395507812 1147 l 1,14,-1
 550.395507812 717 l 1,15,-1
 465.395507812 307 l 1,16,-1
 475.395507812 307 l 1,17,-1
 583.395507812 614 l 1,18,-1
 702.395507812 922 l 1,19,-1
 943.395507812 922 l 1,20,-1
 957.395507812 614 l 1,0,-1
EndSplineSet
EndChar

StartChar: x
Encoding: 120 120 92
Width: 1331
GlyphClass: 1
Flags: W
LayerCount: 2
Fore
SplineSet
759.5 279 m 1,0,-1
 728.5 485 l 1,1,-1
 632.5 279 l 1,2,-1
 411.5 0 l 1,3,-1
 65.5 0 l 1,4,-1
 580.5 599 l 1,5,-1
 309.5 1126 l 1,6,-1
 662.5 1147 l 1,7,-1
 766.5 922 l 1,8,-1
 794.5 717 l 1,9,-1
 891.5 922 l 1,10,-1
 1060.5 1126 l 1,11,-1
 1427.5 1147 l 1,12,-1
 952.5 595 l 1,13,-1
 1265.5 0 l 1,14,-1
 895.5 0 l 1,15,-1
 759.5 279 l 1,0,-1
EndSplineSet
EndChar

StartChar: y
Encoding: 121 121 93
Width: 1331
GlyphClass: 1
Flags: W
LayerCount: 2
Fore
SplineSet
704.395507812 686 m 1,0,-1
 708.395507812 205 l 1,1,-1
 854.395507812 686 l 1,2,-1
 1098.39550781 1126 l 1,3,-1
 1439.39550781 1147 l 1,4,-1
 821.395507812 8 l 2,5,6
 775.395507812 -77 775.395507812 -77 726.395507812 -165.5 c 128,-1,7
 677.395507812 -254 677.395507812 -254 616.895507812 -326.5 c 128,-1,8
 556.395507812 -399 556.395507812 -399 479.895507812 -445.5 c 128,-1,9
 403.395507812 -492 403.395507812 -492 304.395507812 -492 c 0,10,11
 235.395507812 -492 235.395507812 -492 178.895507812 -463 c 128,-1,12
 122.395507812 -434 122.395507812 -434 71.3955078125 -383 c 1,13,-1
 230.395507812 -199 l 1,14,15
 250.395507812 -214 250.395507812 -214 275.395507812 -227 c 128,-1,16
 300.395507812 -240 300.395507812 -240 327.395507812 -240 c 0,17,18
 372.395507812 -240 372.395507812 -240 415.895507812 -189 c 128,-1,19
 459.395507812 -138 459.395507812 -138 514.395507812 -48 c 1,20,-1
 292.395507812 1126 l 1,21,-1
 618.395507812 1147 l 1,22,-1
 704.395507812 686 l 1,0,-1
EndSplineSet
EndChar

StartChar: z
Encoding: 122 122 94
Width: 1331
GlyphClass: 1
Flags: W
LayerCount: 2
Fore
SplineSet
770.669921875 205 m 1,0,-1
 1152.66992188 205 l 1,1,-1
 1144.66992188 0 l 1,2,-1
 219.669921875 0 l 1,3,-1
 201.669921875 87 l 1,4,-1
 731.669921875 775 l 1,5,-1
 978.669921875 947 l 1,6,-1
 716.669921875 922 l 1,7,-1
 436.669921875 922 l 1,8,-1
 444.669921875 1126 l 1,9,-1
 1259.66992188 1126 l 1,10,-1
 1277.66992188 1041 l 1,11,-1
 750.669921875 347 l 1,12,-1
 508.669921875 179 l 1,13,-1
 770.669921875 205 l 1,0,-1
EndSplineSet
EndChar

StartChar: braceleft
Encoding: 123 123 95
Width: 1331
GlyphClass: 1
Flags: W
LayerCount: 2
Fore
SplineSet
1255.18359375 1290 m 1,0,1
 1224.18359375 1310 1224.18359375 1310 1181.68359375 1323 c 128,-1,2
 1139.18359375 1336 1139.18359375 1336 1103.18359375 1336 c 0,3,4
 1072.18359375 1334 1072.18359375 1334 1051.68359375 1319.5 c 128,-1,5
 1031.18359375 1305 1031.18359375 1305 1016.68359375 1278 c 128,-1,6
 1002.18359375 1251 1002.18359375 1251 992.18359375 1213 c 128,-1,7
 982.18359375 1175 982.18359375 1175 974.18359375 1125 c 2,8,-1
 931.18359375 885 l 2,9,10
 921.18359375 828 921.18359375 828 896.68359375 777.5 c 128,-1,11
 872.18359375 727 872.18359375 727 840.18359375 686.5 c 128,-1,12
 808.18359375 646 808.18359375 646 773.18359375 615 c 128,-1,13
 738.18359375 584 738.18359375 584 707.18359375 563 c 1,14,15
 732.18359375 543 732.18359375 543 756.18359375 512 c 128,-1,16
 780.18359375 481 780.18359375 481 797.68359375 440 c 128,-1,17
 815.18359375 399 815.18359375 399 822.18359375 349.5 c 128,-1,18
 829.18359375 300 829.18359375 300 819.18359375 244 c 2,19,-1
 775.18359375 -2 l 2,20,21
 767.18359375 -51 767.18359375 -51 762.68359375 -90 c 128,-1,22
 758.18359375 -129 758.18359375 -129 762.68359375 -156.5 c 128,-1,23
 767.18359375 -184 767.18359375 -184 783.18359375 -198.5 c 128,-1,24
 799.18359375 -213 799.18359375 -213 830.18359375 -213 c 0,25,26
 866.18359375 -213 866.18359375 -213 912.68359375 -200 c 128,-1,27
 959.18359375 -187 959.18359375 -187 998.18359375 -167 c 1,28,-1
 1062.18359375 -356 l 1,29,30
 1026.18359375 -371 1026.18359375 -371 992.68359375 -385 c 128,-1,31
 959.18359375 -399 959.18359375 -399 922.68359375 -409 c 128,-1,32
 886.18359375 -419 886.18359375 -419 843.68359375 -424.5 c 128,-1,33
 801.18359375 -430 801.18359375 -430 748.18359375 -430 c 0,34,35
 632.18359375 -430 632.18359375 -430 561.18359375 -397.5 c 128,-1,36
 490.18359375 -365 490.18359375 -365 454.68359375 -307.5 c 128,-1,37
 419.18359375 -250 419.18359375 -250 414.18359375 -171.5 c 128,-1,38
 409.18359375 -93 409.18359375 -93 424.18359375 -2 c 2,39,-1
 468.18359375 244 l 2,40,41
 484.18359375 335 484.18359375 335 478.18359375 388.5 c 128,-1,42
 472.18359375 442 472.18359375 442 426.18359375 453 c 2,43,-1
 288.18359375 473 l 1,44,-1
 321.18359375 655 l 1,45,-1
 465.18359375 676 l 1,46,47
 514.18359375 687 514.18359375 687 540.18359375 741 c 128,-1,48
 566.18359375 795 566.18359375 795 581.18359375 885 c 2,49,-1
 624.18359375 1125 l 2,50,51
 640.18359375 1216 640.18359375 1216 672.68359375 1294.5 c 128,-1,52
 705.18359375 1373 705.18359375 1373 761.68359375 1430.5 c 128,-1,53
 818.18359375 1488 818.18359375 1488 900.18359375 1520.5 c 128,-1,54
 982.18359375 1553 982.18359375 1553 1098.18359375 1553 c 0,55,56
 1151.18359375 1553 1151.18359375 1553 1191.68359375 1547.5 c 128,-1,57
 1232.18359375 1542 1232.18359375 1542 1265.18359375 1532.5 c 128,-1,58
 1298.18359375 1523 1298.18359375 1523 1327.18359375 1509.5 c 128,-1,59
 1356.18359375 1496 1356.18359375 1496 1387.18359375 1480 c 1,60,-1
 1255.18359375 1290 l 1,0,1
EndSplineSet
EndChar

StartChar: bar
Encoding: 124 124 96
Width: 1331
GlyphClass: 1
Flags: W
LayerCount: 2
Fore
SplineSet
1110.1015625 1556 m 1,0,-1
 767.1015625 -389 l 1,1,-1
 427.1015625 -389 l 1,2,-1
 766.1015625 1536 l 1,3,-1
 1110.1015625 1556 l 1,0,-1
EndSplineSet
EndChar

StartChar: braceright
Encoding: 125 125 97
Width: 1331
GlyphClass: 1
Flags: W
LayerCount: 2
Fore
SplineSet
466.861328125 1480 m 1,0,1
 502.861328125 1496 502.861328125 1496 536.361328125 1509.5 c 128,-1,2
 569.861328125 1523 569.861328125 1523 606.361328125 1532.5 c 128,-1,3
 642.861328125 1542 642.861328125 1542 685.361328125 1547.5 c 128,-1,4
 727.861328125 1553 727.861328125 1553 780.861328125 1553 c 0,5,6
 896.861328125 1553 896.861328125 1553 967.861328125 1520.5 c 128,-1,7
 1038.86132812 1488 1038.86132812 1488 1074.86132812 1430.5 c 128,-1,8
 1110.86132812 1373 1110.86132812 1373 1115.86132812 1295 c 128,-1,9
 1120.86132812 1217 1120.86132812 1217 1104.86132812 1125 c 2,10,-1
 1061.86132812 885 l 2,11,12
 1046.86132812 795 1046.86132812 795 1052.86132812 741 c 128,-1,13
 1058.86132812 687 1058.86132812 687 1103.86132812 676 c 1,14,-1
 1241.86132812 655 l 1,15,-1
 1208.86132812 473 l 1,16,-1
 1064.86132812 453 l 2,17,18
 1015.86132812 443 1015.86132812 443 990.861328125 389 c 128,-1,19
 965.861328125 335 965.861328125 335 948.861328125 244 c 2,20,-1
 904.861328125 -2 l 2,21,22
 889.861328125 -93 889.861328125 -93 856.861328125 -171.5 c 128,-1,23
 823.861328125 -250 823.861328125 -250 768.361328125 -307.5 c 128,-1,24
 712.861328125 -365 712.861328125 -365 630.361328125 -397.5 c 128,-1,25
 547.861328125 -430 547.861328125 -430 431.861328125 -430 c 0,26,27
 378.861328125 -430 378.861328125 -430 338.361328125 -424.5 c 128,-1,28
 297.861328125 -419 297.861328125 -419 264.361328125 -409 c 128,-1,29
 230.861328125 -399 230.861328125 -399 201.861328125 -385.5 c 128,-1,30
 172.861328125 -372 172.861328125 -372 141.861328125 -356 c 1,31,-1
 273.861328125 -167 l 1,32,33
 304.861328125 -187 304.861328125 -187 347.361328125 -200 c 128,-1,34
 389.861328125 -213 389.861328125 -213 425.861328125 -213 c 0,35,36
 456.861328125 -213 456.861328125 -213 477.861328125 -198.5 c 128,-1,37
 498.861328125 -184 498.861328125 -184 512.861328125 -156.5 c 128,-1,38
 526.861328125 -129 526.861328125 -129 536.861328125 -90 c 128,-1,39
 546.861328125 -51 546.861328125 -51 554.861328125 -2 c 2,40,-1
 598.861328125 244 l 2,41,42
 608.861328125 300 608.861328125 300 633.361328125 349.5 c 128,-1,43
 657.861328125 399 657.861328125 399 689.361328125 440 c 128,-1,44
 720.861328125 481 720.861328125 481 755.861328125 512 c 128,-1,45
 790.861328125 543 790.861328125 543 822.861328125 563 c 1,46,47
 798.861328125 583 798.861328125 583 774.861328125 614.5 c 128,-1,48
 750.861328125 646 750.861328125 646 733.361328125 686.5 c 128,-1,49
 715.861328125 727 715.861328125 727 708.361328125 777 c 128,-1,50
 700.861328125 827 700.861328125 827 711.861328125 885 c 2,51,-1
 754.861328125 1125 l 2,52,53
 762.861328125 1174 762.861328125 1174 766.861328125 1212.5 c 128,-1,54
 770.861328125 1251 770.861328125 1251 765.861328125 1278 c 128,-1,55
 760.861328125 1305 760.861328125 1305 745.361328125 1319.5 c 128,-1,56
 729.861328125 1334 729.861328125 1334 698.861328125 1336 c 0,57,58
 662.861328125 1336 662.861328125 1336 616.361328125 1323.5 c 128,-1,59
 569.861328125 1311 569.861328125 1311 530.861328125 1290 c 1,60,-1
 466.861328125 1480 l 1,0,1
EndSplineSet
EndChar

StartChar: asciitilde
Encoding: 126 126 98
Width: 1331
GlyphClass: 1
Flags: W
LayerCount: 2
Fore
SplineSet
113.232421875 452 m 1,0,1
 131.232421875 521 131.232421875 521 170.732421875 592.5 c 128,-1,2
 210.232421875 664 210.232421875 664 271.732421875 722 c 128,-1,3
 333.232421875 780 333.232421875 780 416.732421875 817.5 c 128,-1,4
 500.232421875 855 500.232421875 855 607.232421875 855 c 0,5,6
 662.232421875 855 662.232421875 855 701.732421875 845 c 128,-1,7
 741.232421875 835 741.232421875 835 770.232421875 820 c 128,-1,8
 799.232421875 805 799.232421875 805 821.732421875 787.5 c 128,-1,9
 844.232421875 770 844.232421875 770 866.732421875 755 c 128,-1,10
 889.232421875 740 889.232421875 740 914.232421875 730 c 128,-1,11
 939.232421875 720 939.232421875 720 974.232421875 720 c 0,12,13
 1045.23242188 720 1045.23242188 720 1095.73242188 759 c 128,-1,14
 1146.23242188 798 1146.23242188 798 1167.23242188 858 c 1,15,-1
 1442.23242188 821 l 1,16,17
 1424.23242188 746 1424.23242188 746 1388.23242188 672.5 c 128,-1,18
 1352.23242188 599 1352.23242188 599 1293.73242188 540.5 c 128,-1,19
 1235.23242188 482 1235.23242188 482 1151.73242188 446 c 128,-1,20
 1068.23242188 410 1068.23242188 410 956.232421875 410 c 0,21,22
 905.232421875 410 905.232421875 410 868.732421875 420 c 128,-1,23
 832.232421875 430 832.232421875 430 804.732421875 445 c 128,-1,24
 777.232421875 460 777.232421875 460 755.232421875 477.5 c 128,-1,25
 733.232421875 495 733.232421875 495 709.232421875 509.5 c 128,-1,26
 685.232421875 524 685.232421875 524 657.232421875 534.5 c 128,-1,27
 629.232421875 545 629.232421875 545 589.232421875 545 c 0,28,29
 559.232421875 545 559.232421875 545 532.232421875 534.5 c 128,-1,30
 505.232421875 524 505.232421875 524 482.732421875 507 c 128,-1,31
 460.232421875 490 460.232421875 490 442.232421875 467.5 c 128,-1,32
 424.232421875 445 424.232421875 445 414.232421875 420 c 1,33,-1
 113.232421875 452 l 1,0,1
EndSplineSet
EndChar

StartChar: exclamdown
Encoding: 161 161 100
Width: 1331
GlyphClass: 1
Flags: W
LayerCount: 2
Fore
SplineSet
438.241210938 -410 m 1,0,-1
 629.241210938 672 l 1,1,-1
 942.241210938 708 l 1,2,-1
 746.241210938 -410 l 1,3,-1
 438.241210938 -410 l 1,0,-1
1004.24121094 974 m 0,4,5
 998.241210938 939 998.241210938 939 980.241210938 909 c 128,-1,6
 962.241210938 879 962.241210938 879 934.741210938 856 c 128,-1,7
 907.241210938 833 907.241210938 833 874.741210938 819.5 c 128,-1,8
 842.241210938 806 842.241210938 806 807.241210938 806 c 256,9,10
 772.241210938 806 772.241210938 806 744.741210938 819.5 c 128,-1,11
 717.241210938 833 717.241210938 833 698.241210938 856 c 128,-1,12
 679.241210938 879 679.241210938 879 671.741210938 909 c 128,-1,13
 664.241210938 939 664.241210938 939 670.241210938 974 c 0,14,15
 676.241210938 1008 676.241210938 1008 694.741210938 1039 c 128,-1,16
 713.241210938 1070 713.241210938 1070 739.241210938 1093 c 128,-1,17
 765.241210938 1116 765.241210938 1116 798.241210938 1130 c 128,-1,18
 831.241210938 1144 831.241210938 1144 865.241210938 1144 c 0,19,20
 899.241210938 1144 899.241210938 1144 928.241210938 1130 c 128,-1,21
 957.241210938 1116 957.241210938 1116 976.741210938 1093 c 128,-1,22
 996.241210938 1070 996.241210938 1070 1003.24121094 1039 c 128,-1,23
 1010.24121094 1008 1010.24121094 1008 1004.24121094 974 c 0,4,5
EndSplineSet
EndChar

StartChar: cent
Encoding: 162 162 101
Width: 1331
GlyphClass: 1
Flags: W
LayerCount: 2
Fore
SplineSet
1120.69140625 834 m 1,0,1
 1100.69140625 858 1100.69140625 858 1080.19140625 873 c 128,-1,2
 1059.69140625 888 1059.69140625 888 1041.69140625 898 c 1,3,-1
 922.69140625 228 l 1,4,5
 958.69140625 241 958.69140625 241 993.19140625 258 c 128,-1,6
 1027.69140625 275 1027.69140625 275 1059.69140625 295 c 1,7,-1
 1139.69140625 95 l 1,8,9
 1080.69140625 59 1080.69140625 59 1016.69140625 33 c 128,-1,10
 952.69140625 7 952.69140625 7 881.69140625 -5 c 1,11,-1
 848.69140625 -195 l 1,12,-1
 551.69140625 -195 l 1,13,-1
 586.69140625 6 l 1,14,15
 496.69140625 35 496.69140625 35 435.19140625 93 c 128,-1,16
 373.69140625 151 373.69140625 151 339.19140625 228 c 128,-1,17
 304.69140625 305 304.69140625 305 297.19140625 397.5 c 128,-1,18
 289.69140625 490 289.69140625 490 306.69140625 589 c 0,19,20
 321.69140625 678 321.69140625 678 360.19140625 762.5 c 128,-1,21
 398.69140625 847 398.69140625 847 458.19140625 918 c 128,-1,22
 517.69140625 989 517.69140625 989 599.19140625 1042 c 128,-1,23
 680.69140625 1095 680.69140625 1095 783.69140625 1121 c 1,24,-1
 821.69140625 1333 l 1,25,-1
 1124.69140625 1372 l 1,26,-1
 1082.69140625 1132 l 1,27,28
 1148.69140625 1117 1148.69140625 1117 1202.19140625 1081.5 c 128,-1,29
 1255.69140625 1046 1255.69140625 1046 1301.69140625 984 c 1,30,-1
 1120.69140625 834 l 1,0,1
594.69140625 577 m 0,31,32
 571.69140625 447 571.69140625 447 593.69140625 362.5 c 128,-1,33
 615.69140625 278 615.69140625 278 676.69140625 238 c 1,34,-1
 792.69140625 894 l 1,35,36
 719.69140625 860 719.69140625 860 669.19140625 783.5 c 128,-1,37
 618.69140625 707 618.69140625 707 594.69140625 577 c 0,31,32
EndSplineSet
EndChar

StartChar: sterling
Encoding: 163 163 102
Width: 1331
GlyphClass: 1
Flags: W
LayerCount: 2
Fore
SplineSet
826.897460938 221 m 1,0,-1
 1155.89746094 221 l 1,1,-1
 1116.89746094 0 l 1,2,-1
 144.897460938 0 l 1,3,-1
 213.897460938 221 l 1,4,-1
 349.897460938 221 l 2,5,6
 351.897460938 223 351.897460938 223 355.897460938 230 c 128,-1,7
 359.897460938 237 359.897460938 237 369.897460938 255 c 0,8,9
 382.897460938 284 382.897460938 284 422.397460938 387 c 128,-1,10
 461.897460938 490 461.897460938 490 522.897460938 681 c 1,11,-1
 391.897460938 681 l 1,12,-1
 430.897460938 904 l 1,13,-1
 593.897460938 904 l 1,14,-1
 681.897460938 1178 l 2,15,16
 707.897460938 1259 707.897460938 1259 745.397460938 1328 c 128,-1,17
 782.897460938 1397 782.897460938 1397 837.397460938 1447 c 128,-1,18
 891.897460938 1497 891.897460938 1497 963.897460938 1525 c 128,-1,19
 1035.89746094 1553 1035.89746094 1553 1131.89746094 1553 c 0,20,21
 1186.89746094 1553 1186.89746094 1553 1229.39746094 1546.5 c 128,-1,22
 1271.89746094 1540 1271.89746094 1540 1306.89746094 1525 c 128,-1,23
 1341.89746094 1510 1341.89746094 1510 1373.39746094 1486 c 128,-1,24
 1404.89746094 1462 1404.89746094 1462 1437.89746094 1428 c 1,25,-1
 1273.89746094 1257 l 1,26,27
 1230.89746094 1303 1230.89746094 1303 1199.89746094 1318.5 c 128,-1,28
 1168.89746094 1334 1168.89746094 1334 1138.89746094 1334 c 0,29,30
 1114.89746094 1334 1114.89746094 1334 1095.39746094 1320.5 c 128,-1,31
 1075.89746094 1307 1075.89746094 1307 1059.89746094 1281.5 c 128,-1,32
 1043.89746094 1256 1043.89746094 1256 1029.89746094 1221 c 128,-1,33
 1015.89746094 1186 1015.89746094 1186 1001.89746094 1143 c 2,34,-1
 925.897460938 904 l 1,35,-1
 1124.89746094 904 l 1,36,-1
 1058.89746094 681 l 1,37,-1
 855.897460938 681 l 1,38,39
 836.897460938 615 836.897460938 615 822.397460938 569 c 128,-1,40
 807.897460938 523 807.897460938 523 795.397460938 486 c 128,-1,41
 782.897460938 449 782.897460938 449 769.897460938 414.5 c 128,-1,42
 756.897460938 380 756.897460938 380 738.897460938 339 c 1,43,-1
 561.897460938 161 l 1,44,-1
 826.897460938 221 l 1,0,-1
EndSplineSet
EndChar

StartChar: currency
Encoding: 164 164 103
Width: 1331
GlyphClass: 1
Flags: W
LayerCount: 2
Fore
SplineSet
1237.46582031 238 m 1,0,-1
 1025.46582031 56 l 1,1,-1
 884.465820312 226 l 1,2,3
 796.465820312 192 796.465820312 192 700.465820312 193 c 0,4,5
 651.465820312 193 651.465820312 193 606.965820312 201 c 128,-1,6
 562.465820312 209 562.465820312 209 525.465820312 226 c 1,7,-1
 326.465820312 56 l 1,8,-1
 177.465820312 238 l 1,9,-1
 360.465820312 392 l 1,10,11
 340.465820312 441 340.465820312 441 333.965820312 490.5 c 128,-1,12
 327.465820312 540 327.465820312 540 335.465820312 587 c 0,13,14
 343.465820312 633 343.465820312 633 366.965820312 682 c 128,-1,15
 390.465820312 731 390.465820312 731 429.465820312 780 c 1,16,-1
 300.465820312 935 l 1,17,-1
 513.465820312 1118 l 1,18,-1
 652.465820312 947 l 1,19,20
 696.465820312 964 696.465820312 964 742.965820312 972 c 128,-1,21
 789.465820312 980 789.465820312 980 838.465820312 980 c 0,22,23
 886.465820312 980 886.465820312 980 929.965820312 972.5 c 128,-1,24
 973.465820312 965 973.465820312 965 1011.46582031 947 c 1,25,-1
 1213.46582031 1118 l 1,26,-1
 1359.46582031 935 l 1,27,-1
 1178.46582031 780 l 1,28,29
 1197.46582031 731 1197.46582031 731 1203.46582031 682 c 128,-1,30
 1209.46582031 633 1209.46582031 633 1201.46582031 587 c 0,31,32
 1193.46582031 540 1193.46582031 540 1169.96582031 490 c 128,-1,33
 1146.46582031 440 1146.46582031 440 1110.46582031 392 c 1,34,-1
 1237.46582031 238 l 1,0,-1
600.465820312 587 m 0,35,36
 592.465820312 538 592.465820312 538 601.965820312 503.5 c 128,-1,37
 611.465820312 469 611.465820312 469 632.465820312 448.5 c 128,-1,38
 653.465820312 428 653.465820312 428 681.965820312 419 c 128,-1,39
 710.465820312 410 710.465820312 410 738.465820312 410 c 256,40,41
 766.465820312 410 766.465820312 410 797.965820312 419 c 128,-1,42
 829.465820312 428 829.465820312 428 857.465820312 448.5 c 128,-1,43
 885.465820312 469 885.465820312 469 906.965820312 503.5 c 128,-1,44
 928.465820312 538 928.465820312 538 937.465820312 587 c 0,45,46
 946.465820312 636 946.465820312 636 936.465820312 669.5 c 128,-1,47
 926.465820312 703 926.465820312 703 905.465820312 723.5 c 128,-1,48
 884.465820312 744 884.465820312 744 856.465820312 753 c 128,-1,49
 828.465820312 762 828.465820312 762 800.465820312 762 c 256,50,51
 772.465820312 762 772.465820312 762 740.965820312 753 c 128,-1,52
 709.465820312 744 709.465820312 744 680.965820312 723.5 c 128,-1,53
 652.465820312 703 652.465820312 703 630.965820312 669.5 c 128,-1,54
 609.465820312 636 609.465820312 636 600.465820312 587 c 0,35,36
EndSplineSet
EndChar

StartChar: yen
Encoding: 165 165 104
Width: 1331
GlyphClass: 1
Flags: W
LayerCount: 2
Fore
SplineSet
274.337890625 603 m 1,0,-1
 590.337890625 603 l 1,1,-1
 602.337890625 666 l 1,2,-1
 583.337890625 717 l 1,3,-1
 293.337890625 717 l 1,4,-1
 328.337890625 910 l 1,5,-1
 520.337890625 910 l 1,6,-1
 314.337890625 1536 l 1,7,-1
 667.337890625 1556 l 1,8,-1
 795.337890625 1170 l 1,9,-1
 837.337890625 792 l 1,10,-1
 964.337890625 1170 l 1,11,-1
 1215.33789062 1536 l 1,12,-1
 1558.33789062 1536 l 1,13,-1
 1129.33789062 910 l 1,14,-1
 1352.33789062 910 l 1,15,-1
 1317.33789062 717 l 1,16,-1
 995.337890625 717 l 1,17,-1
 961.337890625 666 l 1,18,-1
 950.337890625 603 l 1,19,-1
 1298.33789062 603 l 1,20,-1
 1264.33789062 410 l 1,21,-1
 916.337890625 410 l 1,22,-1
 843.337890625 0 l 1,23,-1
 484.337890625 0 l 1,24,-1
 557.337890625 410 l 1,25,-1
 240.337890625 410 l 1,26,-1
 274.337890625 603 l 1,0,-1
EndSplineSet
EndChar

StartChar: brokenbar
Encoding: 166 166 105
Width: 1331
GlyphClass: 1
Flags: W
LayerCount: 2
Fore
SplineSet
1115.1015625 1556 m 1,0,-1
 967.1015625 717 l 1,1,-1
 617.1015625 717 l 1,2,-1
 761.1015625 1536 l 1,3,-1
 1115.1015625 1556 l 1,0,-1
906.1015625 371 m 1,4,-1
 768.1015625 -410 l 1,5,-1
 418.1015625 -410 l 1,6,-1
 556.1015625 371 l 1,7,-1
 906.1015625 371 l 1,4,-1
EndSplineSet
EndChar

StartChar: section
Encoding: 167 167 106
Width: 1331
GlyphClass: 1
Flags: W
LayerCount: 2
Fore
SplineSet
1189.62695312 1279 m 1,0,1
 1150.62695312 1303 1150.62695312 1303 1119.12695312 1316.5 c 128,-1,2
 1087.62695312 1330 1087.62695312 1330 1061.12695312 1338 c 128,-1,3
 1034.62695312 1346 1034.62695312 1346 1011.12695312 1348 c 128,-1,4
 987.626953125 1350 987.626953125 1350 965.626953125 1350 c 0,5,6
 933.626953125 1350 933.626953125 1350 903.626953125 1342 c 128,-1,7
 873.626953125 1334 873.626953125 1334 849.126953125 1316.5 c 128,-1,8
 824.626953125 1299 824.626953125 1299 806.626953125 1271 c 128,-1,9
 788.626953125 1243 788.626953125 1243 781.626953125 1202 c 0,10,11
 774.626953125 1162 774.626953125 1162 784.626953125 1131.5 c 128,-1,12
 794.626953125 1101 794.626953125 1101 816.626953125 1075.5 c 128,-1,13
 838.626953125 1050 838.626953125 1050 869.126953125 1027 c 128,-1,14
 899.626953125 1004 899.626953125 1004 931.626953125 981 c 0,15,16
 985.626953125 943 985.626953125 943 1040.12695312 901 c 128,-1,17
 1094.62695312 859 1094.62695312 859 1135.12695312 807 c 128,-1,18
 1175.62695312 755 1175.62695312 755 1195.62695312 690 c 128,-1,19
 1215.62695312 625 1215.62695312 625 1200.62695312 540 c 0,20,21
 1191.62695312 491 1191.62695312 491 1168.12695312 444 c 128,-1,22
 1144.62695312 397 1144.62695312 397 1111.62695312 358 c 128,-1,23
 1078.62695312 319 1078.62695312 319 1037.12695312 288.5 c 128,-1,24
 995.626953125 258 995.626953125 258 950.626953125 240 c 1,25,26
 983.626953125 210 983.626953125 210 1010.12695312 177 c 128,-1,27
 1036.62695312 144 1036.62695312 144 1054.12695312 108.5 c 128,-1,28
 1071.62695312 73 1071.62695312 73 1078.12695312 34 c 128,-1,29
 1084.62695312 -5 1084.62695312 -5 1077.62695312 -47 c 0,30,31
 1062.62695312 -131 1062.62695312 -131 1019.12695312 -198 c 128,-1,32
 975.626953125 -265 975.626953125 -265 907.126953125 -312 c 128,-1,33
 838.626953125 -359 838.626953125 -359 748.126953125 -384.5 c 128,-1,34
 657.626953125 -410 657.626953125 -410 546.626953125 -410 c 0,35,36
 498.626953125 -410 498.626953125 -410 454.626953125 -404.5 c 128,-1,37
 410.626953125 -399 410.626953125 -399 368.626953125 -387 c 128,-1,38
 326.626953125 -375 326.626953125 -375 285.626953125 -355.5 c 128,-1,39
 244.626953125 -336 244.626953125 -336 202.626953125 -306 c 1,40,-1
 342.626953125 -132 l 1,41,42
 381.626953125 -156 381.626953125 -156 413.126953125 -170 c 128,-1,43
 444.626953125 -184 444.626953125 -184 471.626953125 -192 c 128,-1,44
 498.626953125 -200 498.626953125 -200 521.626953125 -202.5 c 128,-1,45
 544.626953125 -205 544.626953125 -205 566.626953125 -205 c 0,46,47
 598.626953125 -205 598.626953125 -205 628.626953125 -196.5 c 128,-1,48
 658.626953125 -188 658.626953125 -188 683.126953125 -170.5 c 128,-1,49
 707.626953125 -153 707.626953125 -153 725.126953125 -124 c 128,-1,50
 742.626953125 -95 742.626953125 -95 749.626953125 -55 c 256,51,52
 756.626953125 -15 756.626953125 -15 747.126953125 15.5 c 128,-1,53
 737.626953125 46 737.626953125 46 716.126953125 72 c 128,-1,54
 694.626953125 98 694.626953125 98 664.126953125 120.5 c 128,-1,55
 633.626953125 143 633.626953125 143 601.626953125 167 c 0,56,57
 547.626953125 205 547.626953125 205 493.126953125 246.5 c 128,-1,58
 438.626953125 288 438.626953125 288 398.126953125 340 c 128,-1,59
 357.626953125 392 357.626953125 392 337.626953125 457 c 128,-1,60
 317.626953125 522 317.626953125 522 332.626953125 607 c 0,61,62
 341.626953125 660 341.626953125 660 365.126953125 705.5 c 128,-1,63
 388.626953125 751 388.626953125 751 421.126953125 787.5 c 128,-1,64
 453.626953125 824 453.626953125 824 494.626953125 853.5 c 128,-1,65
 535.626953125 883 535.626953125 883 580.626953125 906 c 1,66,67
 547.626953125 937 547.626953125 937 521.626953125 969.5 c 128,-1,68
 495.626953125 1002 495.626953125 1002 478.126953125 1038 c 128,-1,69
 460.626953125 1074 460.626953125 1074 454.126953125 1113 c 128,-1,70
 447.626953125 1152 447.626953125 1152 455.626953125 1194 c 0,71,72
 469.626953125 1278 469.626953125 1278 513.126953125 1344.5 c 128,-1,73
 556.626953125 1411 556.626953125 1411 624.626953125 1457.5 c 128,-1,74
 692.626953125 1504 692.626953125 1504 783.626953125 1528.5 c 128,-1,75
 874.626953125 1553 874.626953125 1553 985.626953125 1553 c 0,76,77
 1079.62695312 1553 1079.62695312 1553 1162.62695312 1532 c 128,-1,78
 1245.62695312 1511 1245.62695312 1511 1328.62695312 1453 c 1,79,-1
 1189.62695312 1279 l 1,0,1
751.626953125 765 m 1,80,-1
 737.626953125 755 l 2,81,82
 725.626953125 746 725.626953125 746 710.626953125 732 c 128,-1,83
 695.626953125 718 695.626953125 718 682.126953125 700 c 128,-1,84
 668.626953125 682 668.626953125 682 658.126953125 659.5 c 128,-1,85
 647.626953125 637 647.626953125 637 643.626953125 609 c 0,86,87
 637.626953125 574 637.626953125 574 645.626953125 544.5 c 128,-1,88
 653.626953125 515 653.626953125 515 671.626953125 489 c 128,-1,89
 689.626953125 463 689.626953125 463 713.126953125 440 c 128,-1,90
 736.626953125 417 736.626953125 417 760.626953125 396 c 2,91,-1
 781.626953125 381 l 1,92,-1
 795.626953125 392 l 2,93,94
 821.626953125 410 821.626953125 410 850.626953125 446.5 c 128,-1,95
 879.626953125 483 879.626953125 483 889.626953125 538 c 0,96,97
 895.626953125 572 895.626953125 572 887.126953125 601.5 c 128,-1,98
 878.626953125 631 878.626953125 631 861.126953125 657 c 128,-1,99
 843.626953125 683 843.626953125 683 820.126953125 705.5 c 128,-1,100
 796.626953125 728 796.626953125 728 772.626953125 749 c 2,101,-1
 751.626953125 765 l 1,80,-1
EndSplineSet
EndChar

StartChar: dieresis
Encoding: 168 168 107
Width: 1331
GlyphClass: 1
Flags: W
LayerCount: 2
Fore
SplineSet
602.259765625 1604 m 1,0,-1
 884.259765625 1604 l 1,1,-1
 836.259765625 1331 l 1,2,-1
 554.259765625 1331 l 1,3,-1
 602.259765625 1604 l 1,0,-1
1011.25976562 1604 m 1,4,-1
 1294.25976562 1604 l 1,5,-1
 1246.25976562 1331 l 1,6,-1
 963.259765625 1331 l 1,7,-1
 1011.25976562 1604 l 1,4,-1
EndSplineSet
EndChar

StartChar: copyright
Encoding: 169 169 108
Width: 1331
GlyphClass: 1
Flags: W
LayerCount: 2
Fore
SplineSet
939.020507812 1553 m 256,0,1
 1038.02050781 1553 1038.02050781 1553 1119.02050781 1515.5 c 128,-1,2
 1200.02050781 1478 1200.02050781 1478 1254.02050781 1412.5 c 128,-1,3
 1308.02050781 1347 1308.02050781 1347 1330.52050781 1259 c 128,-1,4
 1353.02050781 1171 1353.02050781 1171 1336.02050781 1072 c 0,5,6
 1319.02050781 972 1319.02050781 972 1265.02050781 884.5 c 128,-1,7
 1211.02050781 797 1211.02050781 797 1134.02050781 732 c 128,-1,8
 1057.02050781 667 1057.02050781 667 963.020507812 629 c 128,-1,9
 869.020507812 591 869.020507812 591 770.020507812 591 c 256,10,11
 671.020507812 591 671.020507812 591 589.520507812 629 c 128,-1,12
 508.020507812 667 508.020507812 667 454.520507812 732 c 128,-1,13
 401.020507812 797 401.020507812 797 378.520507812 884.5 c 128,-1,14
 356.020507812 972 356.020507812 972 373.020507812 1072 c 0,15,16
 390.020507812 1171 390.020507812 1171 443.520507812 1259 c 128,-1,17
 497.020507812 1347 497.020507812 1347 574.020507812 1412.5 c 128,-1,18
 651.020507812 1478 651.020507812 1478 745.520507812 1515.5 c 128,-1,19
 840.020507812 1553 840.020507812 1553 939.020507812 1553 c 256,0,1
791.020507812 718 m 0,20,21
 863.020507812 718 863.020507812 718 932.020507812 746 c 128,-1,22
 1001.02050781 774 1001.02050781 774 1058.52050781 822 c 128,-1,23
 1116.02050781 870 1116.02050781 870 1156.02050781 934.5 c 128,-1,24
 1196.02050781 999 1196.02050781 999 1209.02050781 1072 c 0,25,26
 1221.02050781 1146 1221.02050781 1146 1204.52050781 1210.5 c 128,-1,27
 1188.02050781 1275 1188.02050781 1275 1149.02050781 1323 c 128,-1,28
 1110.02050781 1371 1110.02050781 1371 1050.52050781 1398.5 c 128,-1,29
 991.020507812 1426 991.020507812 1426 917.020507812 1426 c 256,30,31
 843.020507812 1426 843.020507812 1426 774.020507812 1398.5 c 128,-1,32
 705.020507812 1371 705.020507812 1371 648.020507812 1323 c 128,-1,33
 591.020507812 1275 591.020507812 1275 552.020507812 1210.5 c 128,-1,34
 513.020507812 1146 513.020507812 1146 500.020507812 1072 c 0,35,36
 488.020507812 1000 488.020507812 1000 504.520507812 936 c 128,-1,37
 521.020507812 872 521.020507812 872 560.520507812 823.5 c 128,-1,38
 600.020507812 775 600.020507812 775 659.020507812 746.5 c 128,-1,39
 718.020507812 718 718.020507812 718 791.020507812 718 c 0,20,21
1013.02050781 1193 m 1,40,41
 986.020507812 1220 986.020507812 1220 962.520507812 1226.5 c 128,-1,42
 939.020507812 1233 939.020507812 1233 914.020507812 1233 c 0,43,44
 884.020507812 1233 884.020507812 1233 860.520507812 1220 c 128,-1,45
 837.020507812 1207 837.020507812 1207 820.020507812 1185.5 c 128,-1,46
 803.020507812 1164 803.020507812 1164 792.520507812 1136 c 128,-1,47
 782.020507812 1108 782.020507812 1108 777.020507812 1077 c 0,48,49
 772.020507812 1045 772.020507812 1045 772.020507812 1015 c 128,-1,50
 772.020507812 985 772.020507812 985 781.020507812 962 c 128,-1,51
 790.020507812 939 790.020507812 939 810.020507812 924.5 c 128,-1,52
 830.020507812 910 830.020507812 910 863.020507812 910 c 0,53,54
 890.020507812 910 890.020507812 910 924.520507812 922 c 128,-1,55
 959.020507812 934 959.020507812 934 989.020507812 951 c 1,56,-1
 1030.02050781 861 l 1,57,58
 988.020507812 837 988.020507812 837 940.020507812 823.5 c 128,-1,59
 892.020507812 810 892.020507812 810 837.020507812 810 c 0,60,61
 768.020507812 810 768.020507812 810 720.520507812 833 c 128,-1,62
 673.020507812 856 673.020507812 856 645.020507812 894 c 128,-1,63
 617.020507812 932 617.020507812 932 608.520507812 981 c 128,-1,64
 600.020507812 1030 600.020507812 1030 609.020507812 1083 c 0,65,66
 617.020507812 1131 617.020507812 1131 641.520507812 1176.5 c 128,-1,67
 666.020507812 1222 666.020507812 1222 707.020507812 1256.5 c 128,-1,68
 748.020507812 1291 748.020507812 1291 804.520507812 1312 c 128,-1,69
 861.020507812 1333 861.020507812 1333 932.020507812 1333 c 0,70,71
 987.020507812 1333 987.020507812 1333 1028.52050781 1316 c 128,-1,72
 1070.02050781 1299 1070.02050781 1299 1102.02050781 1261 c 1,73,-1
 1013.02050781 1193 l 1,40,41
EndSplineSet
EndChar

StartChar: ordfeminine
Encoding: 170 170 109
Width: 1331
GlyphClass: 1
Flags: W
LayerCount: 2
Fore
SplineSet
810.78515625 974 m 0,0,1
 770.78515625 974 770.78515625 974 741.78515625 986 c 128,-1,2
 712.78515625 998 712.78515625 998 692.28515625 1018.5 c 128,-1,3
 671.78515625 1039 671.78515625 1039 658.78515625 1066.5 c 128,-1,4
 645.78515625 1094 645.78515625 1094 640.28515625 1125.5 c 128,-1,5
 634.78515625 1157 634.78515625 1157 634.28515625 1191.5 c 128,-1,6
 633.78515625 1226 633.78515625 1226 638.78515625 1260 c 0,7,8
 642.78515625 1297 642.78515625 1297 655.28515625 1333 c 128,-1,9
 667.78515625 1369 667.78515625 1369 688.28515625 1402 c 128,-1,10
 708.78515625 1435 708.78515625 1435 736.28515625 1462.5 c 128,-1,11
 763.78515625 1490 763.78515625 1490 800.28515625 1510.5 c 128,-1,12
 836.78515625 1531 836.78515625 1531 881.28515625 1542 c 128,-1,13
 925.78515625 1553 925.78515625 1553 978.78515625 1553 c 0,14,15
 1010.78515625 1553 1010.78515625 1553 1042.78515625 1549 c 0,16,17
 1070.78515625 1545 1070.78515625 1545 1102.78515625 1537.5 c 128,-1,18
 1134.78515625 1530 1134.78515625 1530 1164.78515625 1516 c 1,19,-1
 1090.78515625 1089 l 1,20,-1
 1083.78515625 982 l 1,21,-1
 918.78515625 982 l 1,22,-1
 932.78515625 1065 l 1,23,-1
 853.78515625 977 l 1,24,-1
 838.78515625 974 l 2,25,26
 828.78515625 973 828.78515625 973 810.78515625 974 c 0,0,1
608.78515625 829 m 1,27,-1
 1060.78515625 829 l 1,28,-1
 1039.78515625 707 l 1,29,-1
 586.78515625 707 l 1,30,-1
 608.78515625 829 l 1,27,-1
993.78515625 1435 m 1,31,32
 983.78515625 1437 983.78515625 1437 974.78515625 1438 c 128,-1,33
 965.78515625 1439 965.78515625 1439 961.78515625 1439 c 0,34,35
 923.78515625 1439 923.78515625 1439 894.28515625 1423 c 128,-1,36
 864.78515625 1407 864.78515625 1407 843.78515625 1380.5 c 128,-1,37
 822.78515625 1354 822.78515625 1354 810.28515625 1318.5 c 128,-1,38
 797.78515625 1283 797.78515625 1283 793.78515625 1243 c 0,39,40
 790.78515625 1211 790.78515625 1211 791.78515625 1183.5 c 128,-1,41
 792.78515625 1156 792.78515625 1156 798.28515625 1134.5 c 128,-1,42
 803.78515625 1113 803.78515625 1113 814.78515625 1101 c 128,-1,43
 825.78515625 1089 825.78515625 1089 839.78515625 1089 c 0,44,45
 856.78515625 1089 856.78515625 1089 872.78515625 1095 c 128,-1,46
 888.78515625 1101 888.78515625 1101 902.28515625 1110 c 128,-1,47
 915.78515625 1119 915.78515625 1119 926.28515625 1130 c 128,-1,48
 936.78515625 1141 936.78515625 1141 943.78515625 1150 c 1,49,-1
 993.78515625 1435 l 1,31,32
EndSplineSet
EndChar

StartChar: guillemotleft
Encoding: 171 171 110
Width: 1331
GlyphClass: 1
Flags: W
LayerCount: 2
Fore
SplineSet
847.673828125 1133 m 1,0,-1
 897.673828125 901 l 1,1,-1
 505.673828125 597 l 1,2,-1
 421.673828125 563 l 1,3,-1
 492.673828125 529 l 1,4,-1
 782.673828125 229 l 1,5,-1
 642.673828125 -13 l 1,6,-1
 162.673828125 487 l 1,7,-1
 188.673828125 635 l 1,8,-1
 847.673828125 1133 l 1,0,-1
1359.67382812 1133 m 1,9,-1
 1409.67382812 901 l 1,10,-1
 1017.67382812 597 l 1,11,-1
 933.673828125 563 l 1,12,-1
 1004.67382812 529 l 1,13,-1
 1294.67382812 229 l 1,14,-1
 1154.67382812 -13 l 1,15,-1
 674.673828125 487 l 1,16,-1
 700.673828125 635 l 1,17,-1
 1359.67382812 1133 l 1,9,-1
EndSplineSet
EndChar

StartChar: logicalnot
Encoding: 172 172 111
Width: 1331
GlyphClass: 1
Flags: W
LayerCount: 2
Fore
SplineSet
1428.84863281 847 m 1,0,-1
 1364.84863281 600 l 1,1,-1
 1305.84863281 264 l 1,2,-1
 954.848632812 264 l 1,3,-1
 991.848632812 470 l 1,4,-1
 1029.84863281 614 l 1,5,-1
 159.848632812 614 l 1,6,-1
 200.848632812 847 l 1,7,-1
 1428.84863281 847 l 1,0,-1
EndSplineSet
EndChar

StartChar: registered
Encoding: 174 174 113
Width: 1331
GlyphClass: 1
Flags: W
LayerCount: 2
Fore
SplineSet
939.020507812 1553 m 256,0,1
 1038.02050781 1553 1038.02050781 1553 1119.02050781 1515.5 c 128,-1,2
 1200.02050781 1478 1200.02050781 1478 1254.02050781 1412.5 c 128,-1,3
 1308.02050781 1347 1308.02050781 1347 1330.52050781 1259 c 128,-1,4
 1353.02050781 1171 1353.02050781 1171 1336.02050781 1072 c 0,5,6
 1319.02050781 972 1319.02050781 972 1265.02050781 884.5 c 128,-1,7
 1211.02050781 797 1211.02050781 797 1134.02050781 732 c 128,-1,8
 1057.02050781 667 1057.02050781 667 963.020507812 629 c 128,-1,9
 869.020507812 591 869.020507812 591 770.020507812 591 c 256,10,11
 671.020507812 591 671.020507812 591 589.520507812 629 c 128,-1,12
 508.020507812 667 508.020507812 667 454.520507812 732 c 128,-1,13
 401.020507812 797 401.020507812 797 378.520507812 884.5 c 128,-1,14
 356.020507812 972 356.020507812 972 373.020507812 1072 c 0,15,16
 390.020507812 1171 390.020507812 1171 443.520507812 1259 c 128,-1,17
 497.020507812 1347 497.020507812 1347 574.020507812 1412.5 c 128,-1,18
 651.020507812 1478 651.020507812 1478 745.520507812 1515.5 c 128,-1,19
 840.020507812 1553 840.020507812 1553 939.020507812 1553 c 256,0,1
791.020507812 718 m 0,20,21
 863.020507812 718 863.020507812 718 932.020507812 746 c 128,-1,22
 1001.02050781 774 1001.02050781 774 1058.52050781 822 c 128,-1,23
 1116.02050781 870 1116.02050781 870 1156.02050781 934.5 c 128,-1,24
 1196.02050781 999 1196.02050781 999 1209.02050781 1072 c 0,25,26
 1221.02050781 1146 1221.02050781 1146 1204.52050781 1210.5 c 128,-1,27
 1188.02050781 1275 1188.02050781 1275 1149.02050781 1323 c 128,-1,28
 1110.02050781 1371 1110.02050781 1371 1050.52050781 1398.5 c 128,-1,29
 991.020507812 1426 991.020507812 1426 917.020507812 1426 c 256,30,31
 843.020507812 1426 843.020507812 1426 774.020507812 1398.5 c 128,-1,32
 705.020507812 1371 705.020507812 1371 648.020507812 1323 c 128,-1,33
 591.020507812 1275 591.020507812 1275 552.020507812 1210.5 c 128,-1,34
 513.020507812 1146 513.020507812 1146 500.020507812 1072 c 0,35,36
 488.020507812 1000 488.020507812 1000 504.520507812 936 c 128,-1,37
 521.020507812 872 521.020507812 872 560.520507812 823.5 c 128,-1,38
 600.020507812 775 600.020507812 775 659.020507812 746.5 c 128,-1,39
 718.020507812 718 718.020507812 718 791.020507812 718 c 0,20,21
833.020507812 1202 m 1,40,-1
 814.020507812 1091 l 1,41,-1
 834.020507812 1091 l 2,42,43
 878.020507812 1091 878.020507812 1091 903.520507812 1118 c 128,-1,44
 929.020507812 1145 929.020507812 1145 935.020507812 1181 c 0,45,46
 939.020507812 1205 939.020507812 1205 934.520507812 1220.5 c 128,-1,47
 930.020507812 1236 930.020507812 1236 919.520507812 1245 c 128,-1,48
 909.020507812 1254 909.020507812 1254 894.520507812 1258 c 128,-1,49
 880.020507812 1262 880.020507812 1262 865.020507812 1262 c 0,50,51
 853.020507812 1262 853.020507812 1262 848.020507812 1262 c 128,-1,52
 843.020507812 1262 843.020507812 1262 837.020507812 1261 c 1,53,-1
 833.020507812 1202 l 1,40,-1
815.020507812 1011 m 2,54,55
 812.020507812 1015 812.020507812 1015 807.020507812 1016 c 128,-1,56
 802.020507812 1017 802.020507812 1017 800.020507812 1017 c 2,57,-1
 766.020507812 819 l 1,58,-1
 650.020507812 819 l 1,59,-1
 726.020507812 1247 l 1,60,-1
 727.020507812 1322 l 1,61,62
 741.020507812 1323 741.020507812 1323 760.020507812 1325 c 128,-1,63
 779.020507812 1327 779.020507812 1327 799.020507812 1328 c 128,-1,64
 819.020507812 1329 819.020507812 1329 837.520507812 1330 c 128,-1,65
 856.020507812 1331 856.020507812 1331 870.020507812 1331 c 0,66,67
 960.020507812 1331 960.020507812 1331 1008.52050781 1294 c 128,-1,68
 1057.02050781 1257 1057.02050781 1257 1045.02050781 1186 c 0,69,70
 1039.02050781 1149 1039.02050781 1149 1023.02050781 1123 c 128,-1,71
 1007.02050781 1097 1007.02050781 1097 985.020507812 1078.5 c 128,-1,72
 963.020507812 1060 963.020507812 1060 936.520507812 1047.5 c 128,-1,73
 910.020507812 1035 910.020507812 1035 882.020507812 1028 c 1,74,-1
 926.020507812 1017 l 1,75,-1
 1034.02050781 819 l 1,76,-1
 914.020507812 819 l 1,77,-1
 815.020507812 1011 l 2,54,55
EndSplineSet
EndChar

StartChar: macron
Encoding: 175 175 114
Width: 1331
GlyphClass: 1
Flags: W
LayerCount: 2
Fore
SplineSet
578.517578125 1536 m 1,0,-1
 1294.51757812 1536 l 1,1,-1
 1255.51757812 1313 l 1,2,-1
 538.517578125 1313 l 1,3,-1
 578.517578125 1536 l 1,0,-1
EndSplineSet
EndChar

StartChar: degree
Encoding: 176 176 115
Width: 1331
GlyphClass: 1
Flags: W
LayerCount: 2
Fore
SplineSet
938.669921875 1553 m 0,0,1
 1000.66992188 1553 1000.66992188 1553 1052.66992188 1531.5 c 128,-1,2
 1104.66992188 1510 1104.66992188 1510 1139.16992188 1472.5 c 128,-1,3
 1173.66992188 1435 1173.66992188 1435 1188.66992188 1384.5 c 128,-1,4
 1203.66992188 1334 1203.66992188 1334 1193.66992188 1277 c 256,5,6
 1183.66992188 1220 1183.66992188 1220 1150.66992188 1169.5 c 128,-1,7
 1117.66992188 1119 1117.66992188 1119 1070.16992188 1081.5 c 128,-1,8
 1022.66992188 1044 1022.66992188 1044 963.169921875 1022 c 128,-1,9
 903.669921875 1000 903.669921875 1000 841.669921875 1000 c 0,10,11
 778.669921875 1000 778.669921875 1000 727.169921875 1022 c 128,-1,12
 675.669921875 1044 675.669921875 1044 641.169921875 1081.5 c 128,-1,13
 606.669921875 1119 606.669921875 1119 592.169921875 1169.5 c 128,-1,14
 577.669921875 1220 577.669921875 1220 587.669921875 1277 c 256,15,16
 597.669921875 1334 597.669921875 1334 630.169921875 1384.5 c 128,-1,17
 662.669921875 1435 662.669921875 1435 710.169921875 1472.5 c 128,-1,18
 757.669921875 1510 757.669921875 1510 816.669921875 1531.5 c 128,-1,19
 875.669921875 1553 875.669921875 1553 938.669921875 1553 c 0,0,1
872.669921875 1172 m 256,20,21
 896.669921875 1172 896.669921875 1172 918.669921875 1180.5 c 128,-1,22
 940.669921875 1189 940.669921875 1189 958.669921875 1203.5 c 128,-1,23
 976.669921875 1218 976.669921875 1218 989.169921875 1236.5 c 128,-1,24
 1001.66992188 1255 1001.66992188 1255 1005.66992188 1277 c 0,25,26
 1008.66992188 1299 1008.66992188 1299 1002.66992188 1317.5 c 128,-1,27
 996.669921875 1336 996.669921875 1336 983.669921875 1350.5 c 128,-1,28
 970.669921875 1365 970.669921875 1365 951.169921875 1373 c 128,-1,29
 931.669921875 1381 931.669921875 1381 907.669921875 1381 c 256,30,31
 883.669921875 1381 883.669921875 1381 861.669921875 1373 c 128,-1,32
 839.669921875 1365 839.669921875 1365 821.669921875 1350.5 c 128,-1,33
 803.669921875 1336 803.669921875 1336 791.169921875 1317 c 128,-1,34
 778.669921875 1298 778.669921875 1298 775.669921875 1277 c 0,35,36
 771.669921875 1255 771.669921875 1255 777.169921875 1236.5 c 128,-1,37
 782.669921875 1218 782.669921875 1218 796.169921875 1203.5 c 128,-1,38
 809.669921875 1189 809.669921875 1189 829.169921875 1180.5 c 128,-1,39
 848.669921875 1172 848.669921875 1172 872.669921875 1172 c 256,20,21
EndSplineSet
EndChar

StartChar: plusminus
Encoding: 177 177 116
Width: 1331
GlyphClass: 1
Flags: W
LayerCount: 2
Fore
SplineSet
344.23828125 883 m 1,0,-1
 712.23828125 883 l 1,1,-1
 787.23828125 1225 l 1,2,-1
 1012.23828125 1225 l 1,3,-1
 938.23828125 883 l 1,4,-1
 1306.23828125 883 l 1,5,-1
 1269.23828125 719 l 1,6,-1
 901.23828125 719 l 1,7,-1
 829.23828125 391 l 1,8,-1
 604.23828125 391 l 1,9,-1
 676.23828125 719 l 1,10,-1
 307.23828125 719 l 1,11,-1
 344.23828125 883 l 1,0,-1
262.23828125 297 m 1,12,-1
 1183.23828125 297 l 1,13,-1
 1143.23828125 90 l 1,14,-1
 222.23828125 90 l 1,15,-1
 262.23828125 297 l 1,12,-1
EndSplineSet
EndChar

StartChar: twosuperior
Encoding: 178 178 117
Width: 1331
GlyphClass: 1
Flags: W
LayerCount: 2
Fore
SplineSet
537.59375 737 m 1,0,-1
 553.59375 835 l 1,1,2
 584.59375 873 584.59375 873 623.59375 914 c 128,-1,3
 662.59375 955 662.59375 955 703.09375 995.5 c 128,-1,4
 743.59375 1036 743.59375 1036 781.59375 1072 c 128,-1,5
 819.59375 1108 819.59375 1108 847.59375 1134 c 0,6,7
 881.59375 1164 881.59375 1164 904.09375 1184 c 128,-1,8
 926.59375 1204 926.59375 1204 942.09375 1221.5 c 128,-1,9
 957.59375 1239 957.59375 1239 965.59375 1257 c 128,-1,10
 973.59375 1275 973.59375 1275 977.59375 1298 c 0,11,12
 981.59375 1317 981.59375 1317 978.59375 1336 c 128,-1,13
 975.59375 1355 975.59375 1355 966.59375 1369.5 c 128,-1,14
 957.59375 1384 957.59375 1384 942.09375 1393.5 c 128,-1,15
 926.59375 1403 926.59375 1403 906.59375 1403 c 0,16,17
 864.59375 1403 864.59375 1403 827.59375 1375 c 128,-1,18
 790.59375 1347 790.59375 1347 757.59375 1298 c 1,19,-1
 645.59375 1342 l 1,20,21
 667.59375 1382 667.59375 1382 696.59375 1413.5 c 128,-1,22
 725.59375 1445 725.59375 1445 761.59375 1467.5 c 128,-1,23
 797.59375 1490 797.59375 1490 840.59375 1501.5 c 128,-1,24
 883.59375 1513 883.59375 1513 932.59375 1513 c 0,25,26
 990.59375 1513 990.59375 1513 1033.59375 1494.5 c 128,-1,27
 1076.59375 1476 1076.59375 1476 1102.09375 1444.5 c 128,-1,28
 1127.59375 1413 1127.59375 1413 1137.09375 1373 c 128,-1,29
 1146.59375 1333 1146.59375 1333 1139.59375 1293 c 0,30,31
 1133.59375 1257 1133.59375 1257 1116.59375 1227 c 128,-1,32
 1099.59375 1197 1099.59375 1197 1076.09375 1169 c 128,-1,33
 1052.59375 1141 1052.59375 1141 1023.59375 1113 c 128,-1,34
 994.59375 1085 994.59375 1085 963.59375 1055 c 256,35,36
 932.59375 1024 932.59375 1024 899.59375 992.5 c 128,-1,37
 866.59375 961 866.59375 961 836.59375 932 c 128,-1,38
 806.59375 903 806.59375 903 782.09375 879 c 128,-1,39
 757.59375 855 757.59375 855 743.59375 840 c 1,40,-1
 1071.59375 840 l 1,41,-1
 1054.59375 737 l 1,42,-1
 537.59375 737 l 1,0,-1
EndSplineSet
EndChar

StartChar: threesuperior
Encoding: 179 179 118
Width: 1331
GlyphClass: 1
Flags: W
LayerCount: 2
Fore
SplineSet
691.28515625 1218 m 1,0,1
 708.28515625 1228 708.28515625 1228 731.78515625 1243 c 128,-1,2
 755.28515625 1258 755.28515625 1258 782.28515625 1276.5 c 128,-1,3
 809.28515625 1295 809.28515625 1295 837.78515625 1315.5 c 128,-1,4
 866.28515625 1336 866.28515625 1336 892.78515625 1357 c 128,-1,5
 919.28515625 1378 919.28515625 1378 941.78515625 1399.5 c 128,-1,6
 964.28515625 1421 964.28515625 1421 980.28515625 1441 c 1,7,-1
 840.28515625 1403 l 1,8,-1
 670.28515625 1403 l 1,9,-1
 700.28515625 1505 l 1,10,-1
 1131.28515625 1505 l 1,11,-1
 1115.28515625 1416 l 1,12,13
 1092.28515625 1376 1092.28515625 1376 1056.28515625 1342.5 c 128,-1,14
 1020.28515625 1309 1020.28515625 1309 978.28515625 1276 c 1,15,-1
 891.28515625 1233 l 1,16,17
 944.28515625 1233 944.28515625 1233 986.78515625 1219 c 128,-1,18
 1029.28515625 1205 1029.28515625 1205 1055.78515625 1179 c 128,-1,19
 1082.28515625 1153 1082.28515625 1153 1092.28515625 1115 c 128,-1,20
 1102.28515625 1077 1102.28515625 1077 1094.28515625 1030 c 0,21,22
 1085.28515625 980 1085.28515625 980 1057.28515625 938.5 c 128,-1,23
 1029.28515625 897 1029.28515625 897 987.78515625 864 c 128,-1,24
 946.28515625 831 946.28515625 831 893.28515625 807 c 128,-1,25
 840.28515625 783 840.28515625 783 782.28515625 768 c 128,-1,26
 724.28515625 753 724.28515625 753 664.78515625 745 c 128,-1,27
 605.28515625 737 605.28515625 737 548.28515625 737 c 1,28,-1
 567.28515625 840 l 1,29,30
 627.28515625 842 627.28515625 842 687.28515625 855.5 c 128,-1,31
 747.28515625 869 747.28515625 869 796.28515625 892.5 c 128,-1,32
 845.28515625 916 845.28515625 916 878.78515625 950 c 128,-1,33
 912.28515625 984 912.28515625 984 919.28515625 1025 c 0,34,35
 924.28515625 1055 924.28515625 1055 915.78515625 1075.5 c 128,-1,36
 907.28515625 1096 907.28515625 1096 887.78515625 1108 c 128,-1,37
 868.28515625 1120 868.28515625 1120 840.78515625 1126 c 128,-1,38
 813.28515625 1132 813.28515625 1132 781.28515625 1132 c 0,39,40
 774.28515625 1132 774.28515625 1132 759.28515625 1130.5 c 128,-1,41
 744.28515625 1129 744.28515625 1129 727.78515625 1128.5 c 128,-1,42
 711.28515625 1128 711.28515625 1128 697.28515625 1127 c 128,-1,43
 683.28515625 1126 683.28515625 1126 674.28515625 1126 c 1,44,-1
 691.28515625 1218 l 1,0,1
EndSplineSet
EndChar

StartChar: acute
Encoding: 180 180 119
Width: 1331
GlyphClass: 1
Flags: W
LayerCount: 2
Fore
SplineSet
847.03515625 1536 m 1,0,-1
 1196.03515625 1556 l 1,1,-1
 813.03515625 1163 l 5,2,-1
 593.03515625 1163 l 5,3,-1
 847.03515625 1536 l 1,0,-1
EndSplineSet
EndChar

StartChar: mu
Encoding: 181 181 120
Width: 1331
GlyphClass: 1
Flags: W
LayerCount: 2
Fore
SplineSet
1272.9453125 52 m 1,0,1
 1255.9453125 38 1255.9453125 38 1235.4453125 25.5 c 128,-1,2
 1214.9453125 13 1214.9453125 13 1187.9453125 3.5 c 128,-1,3
 1160.9453125 -6 1160.9453125 -6 1125.4453125 -11.5 c 128,-1,4
 1089.9453125 -17 1089.9453125 -17 1040.9453125 -17 c 0,5,6
 1005.9453125 -17 1005.9453125 -17 974.4453125 -5 c 128,-1,7
 942.9453125 7 942.9453125 7 917.9453125 32.5 c 128,-1,8
 892.9453125 58 892.9453125 58 874.9453125 98 c 128,-1,9
 856.9453125 138 856.9453125 138 850.9453125 195 c 1,10,-1
 780.9453125 74 l 1,11,12
 760.9453125 58 760.9453125 58 733.4453125 41.5 c 128,-1,13
 705.9453125 25 705.9453125 25 672.9453125 12 c 128,-1,14
 639.9453125 -1 639.9453125 -1 601.4453125 -9 c 128,-1,15
 562.9453125 -17 562.9453125 -17 518.9453125 -17 c 0,16,17
 498.9453125 -17 498.9453125 -17 469.9453125 -12 c 128,-1,18
 440.9453125 -7 440.9453125 -7 412.4453125 1.5 c 128,-1,19
 383.9453125 10 383.9453125 10 359.9453125 20.5 c 128,-1,20
 335.9453125 31 335.9453125 31 325.9453125 41 c 1,21,-1
 354.9453125 -170 l 1,22,-1
 294.9453125 -512 l 1,23,-1
 -23.0546875 -512 l 1,24,-1
 265.9453125 1126 l 1,25,-1
 587.9453125 1147 l 1,26,-1
 449.9453125 371 l 2,27,28
 442.9453125 332 442.9453125 332 450.9453125 300.5 c 128,-1,29
 458.9453125 269 458.9453125 269 475.4453125 247.5 c 128,-1,30
 491.9453125 226 491.9453125 226 516.4453125 215 c 128,-1,31
 540.9453125 204 540.9453125 204 567.9453125 204 c 0,32,33
 611.9453125 204 611.9453125 204 652.9453125 225 c 128,-1,34
 693.9453125 246 693.9453125 246 729.9453125 274 c 1,35,-1
 880.9453125 1126 l 1,36,-1
 1201.9453125 1147 l 1,37,-1
 1065.9453125 374 l 2,38,39
 1048.9453125 280 1048.9453125 280 1061.4453125 242 c 128,-1,40
 1073.9453125 204 1073.9453125 204 1109.9453125 204 c 0,41,42
 1137.9453125 204 1137.9453125 204 1156.4453125 209.5 c 128,-1,43
 1174.9453125 215 1174.9453125 215 1202.9453125 228 c 1,44,-1
 1272.9453125 52 l 1,0,1
EndSplineSet
EndChar

StartChar: paragraph
Encoding: 182 182 121
Width: 1331
GlyphClass: 1
Flags: W
LayerCount: 2
Fore
SplineSet
1180.63867188 1329 m 1,0,-1
 1043.63867188 1329 l 1,1,-1
 737.638671875 -410 l 1,2,-1
 462.638671875 -410 l 1,3,-1
 643.638671875 618 l 1,4,5
 566.638671875 628 566.638671875 628 495.638671875 658 c 128,-1,6
 424.638671875 688 424.638671875 688 374.138671875 742 c 128,-1,7
 323.638671875 796 323.638671875 796 301.138671875 877.5 c 128,-1,8
 278.638671875 959 278.638671875 959 299.638671875 1075 c 0,9,10
 314.638671875 1164 314.638671875 1164 349.638671875 1233.5 c 128,-1,11
 384.638671875 1303 384.638671875 1303 432.638671875 1354 c 128,-1,12
 480.638671875 1405 480.638671875 1405 538.638671875 1440 c 128,-1,13
 596.638671875 1475 596.638671875 1475 659.138671875 1496.5 c 128,-1,14
 721.638671875 1518 721.638671875 1518 785.138671875 1527 c 128,-1,15
 848.638671875 1536 848.638671875 1536 907.638671875 1536 c 2,16,-1
 1491.63867188 1536 l 1,17,-1
 1148.63867188 -410 l 1,18,-1
 874.638671875 -410 l 1,19,-1
 1180.63867188 1329 l 1,0,-1
EndSplineSet
EndChar

StartChar: periodcentered
Encoding: 183 183 122
Width: 1331
GlyphClass: 1
Flags: W
LayerCount: 2
Fore
SplineSet
586.263671875 699 m 0,0,1
 593.263671875 741 593.263671875 741 616.263671875 778 c 128,-1,2
 639.263671875 815 639.263671875 815 671.263671875 842.5 c 128,-1,3
 703.263671875 870 703.263671875 870 742.763671875 886 c 128,-1,4
 782.263671875 902 782.263671875 902 824.263671875 902 c 256,5,6
 866.263671875 902 866.263671875 902 900.263671875 886 c 128,-1,7
 934.263671875 870 934.263671875 870 957.263671875 842.5 c 128,-1,8
 980.263671875 815 980.263671875 815 989.263671875 778 c 128,-1,9
 998.263671875 741 998.263671875 741 991.263671875 699 c 0,10,11
 983.263671875 657 983.263671875 657 961.263671875 620 c 128,-1,12
 939.263671875 583 939.263671875 583 906.763671875 555 c 128,-1,13
 874.263671875 527 874.263671875 527 834.763671875 511 c 128,-1,14
 795.263671875 495 795.263671875 495 753.263671875 495 c 256,15,16
 711.263671875 495 711.263671875 495 677.263671875 511 c 128,-1,17
 643.263671875 527 643.263671875 527 620.763671875 555 c 128,-1,18
 598.263671875 583 598.263671875 583 588.263671875 620 c 128,-1,19
 578.263671875 657 578.263671875 657 586.263671875 699 c 0,0,1
EndSplineSet
EndChar

StartChar: cedilla
Encoding: 184 184 123
Width: 1331
GlyphClass: 1
Flags: W
LayerCount: 2
Fore
SplineSet
879.38671875 0 m 1,0,1
 904.38671875 -20 904.38671875 -20 922.38671875 -47 c 0,2,3
 937.38671875 -71 937.38671875 -71 947.38671875 -103 c 128,-1,4
 957.38671875 -135 957.38671875 -135 950.38671875 -175 c 0,5,6
 941.38671875 -226 941.38671875 -226 909.38671875 -270 c 128,-1,7
 877.38671875 -314 877.38671875 -314 831.38671875 -346.5 c 128,-1,8
 785.38671875 -379 785.38671875 -379 728.38671875 -398 c 128,-1,9
 671.38671875 -417 671.38671875 -417 613.38671875 -417 c 0,10,11
 552.38671875 -417 552.38671875 -417 496.38671875 -398.5 c 128,-1,12
 440.38671875 -380 440.38671875 -380 395.38671875 -357 c 0,13,14
 343.38671875 -330 343.38671875 -330 297.38671875 -297 c 1,15,-1
 443.38671875 -134 l 1,16,17
 473.38671875 -154 473.38671875 -154 502.38671875 -170 c 0,18,19
 527.38671875 -183 527.38671875 -183 555.38671875 -194 c 128,-1,20
 583.38671875 -205 583.38671875 -205 606.38671875 -205 c 0,21,22
 630.38671875 -205 630.38671875 -205 652.88671875 -192 c 128,-1,23
 675.38671875 -179 675.38671875 -179 681.38671875 -151 c 0,24,25
 685.38671875 -129 685.38671875 -129 676.88671875 -105 c 128,-1,26
 668.38671875 -81 668.38671875 -81 656.38671875 -59.5 c 128,-1,27
 644.38671875 -38 644.38671875 -38 630.88671875 -22 c 128,-1,28
 617.38671875 -6 617.38671875 -6 611.38671875 0 c 1,29,-1
 879.38671875 0 l 1,0,1
EndSplineSet
EndChar

StartChar: onesuperior
Encoding: 185 185 124
Width: 1331
GlyphClass: 1
Flags: W
LayerCount: 2
Fore
SplineSet
828.375976562 1188 m 1,0,-1
 899.375976562 1373 l 1,1,-1
 757.375976562 1235 l 1,2,-1
 708.375976562 1197 l 1,3,-1
 645.375976562 1291 l 1,4,-1
 931.375976562 1516 l 1,5,-1
 1053.37597656 1505 l 1,6,-1
 936.375976562 840 l 1,7,-1
 1061.37597656 840 l 1,8,-1
 1042.37597656 737 l 1,9,-1
 623.375976562 737 l 1,10,-1
 642.375976562 840 l 1,11,-1
 767.375976562 840 l 1,12,-1
 828.375976562 1188 l 1,0,-1
EndSplineSet
EndChar

